<svg width="226" height="42" viewBox="0 0 226 42" fill="none" xmlns="http://www.w3.org/2000/svg">
<path d="M37.0923 8.26131V32.6786H24.4994V8.26131H12.5326V32.6786H0V8.37904C0 7.24883 0.240781 6.18926 0.722342 5.18855C1.2039 4.18785 1.84197 3.32842 2.62451 2.58672C3.41909 1.85679 4.33405 1.26814 5.36941 0.832538C6.40477 0.396937 7.51236 0.185022 8.66811 0.185022H61.664V32.6786H49.0711V8.26131H37.0923Z" fill="#B5D411"/>
<path d="M116.545 32.6786H76.3831C75.1912 32.6786 74.0595 32.4549 73.0001 31.9957C71.9407 31.5483 71.0137 30.9361 70.2311 30.1591C69.4365 29.3821 68.8105 28.4874 68.353 27.4513C67.8955 26.4153 67.6548 25.3086 67.6548 24.1431V8.72046C67.6548 7.55493 67.8835 6.44827 68.353 5.41224C68.8105 4.37622 69.4365 3.46969 70.2311 2.70445C71.0257 1.92743 71.9407 1.31523 73.0001 0.867857C74.0595 0.420483 75.1912 0.185022 76.3831 0.185022H116.545V8.26131H80.2596V24.5905H116.545V32.6786ZM87.3025 20.2462V12.6762H114.005V20.2462H87.3025Z" fill="#B5D411"/>
<path d="M56.4154 40.519V41.7861H50.109C49.92 41.7861 49.7456 41.752 49.5769 41.681C49.4112 41.61 49.2658 41.5134 49.1408 41.3941C49.0158 41.2748 48.9198 41.1299 48.8471 40.9679C48.7745 40.806 48.7396 40.6327 48.7396 40.448V38.0275C48.7396 37.8457 48.7745 37.6724 48.8471 37.5076C48.9198 37.3457 49.0187 37.2036 49.1408 37.0814C49.2658 36.9593 49.4112 36.8655 49.5769 36.7945C49.7427 36.7235 49.92 36.6894 50.109 36.6894H56.4125V37.9565H50.7167V40.519H56.4154ZM51.8244 39.8372V38.6497H56.0142V39.8372H51.8244Z" fill="#FFFEF4"/>
<path d="M65.0192 40.519V41.7861H57.3433V36.6894H59.3204V40.519H65.0192Z" fill="#FFFEF4"/>
<path d="M73.62 40.519V41.7861H67.3165C67.1276 41.7861 66.9531 41.752 66.7845 41.681C66.6187 41.61 66.4734 41.5134 66.3483 41.3941C66.2233 41.2748 66.1274 41.1299 66.0547 40.9679C65.982 40.806 65.9471 40.6327 65.9471 40.448V38.0275C65.9471 37.8457 65.982 37.6724 66.0547 37.5076C66.1274 37.3457 66.2262 37.2036 66.3483 37.0814C66.4734 36.9593 66.6187 36.8655 66.7845 36.7945C66.9502 36.7235 67.1276 36.6894 67.3165 36.6894H73.62V37.9565H67.9242V40.519H73.62ZM69.0291 39.8372V38.6497H73.2188V39.8372H69.0291Z" fill="#FFFEF4"/>
<path d="M76.5339 40.519H82.2297V41.7861H75.9263C75.7373 41.7861 75.5628 41.752 75.3942 41.681C75.2284 41.61 75.0831 41.5134 74.9581 41.3941C74.833 41.2748 74.7371 41.1299 74.6644 40.9679C74.5917 40.806 74.5568 40.6327 74.5568 40.448V38.0275C74.5568 37.8457 74.5917 37.6724 74.6644 37.5076C74.7371 37.3457 74.8359 37.2036 74.9581 37.0814C75.0831 36.9593 75.2284 36.8655 75.3942 36.7945C75.5599 36.7235 75.7373 36.6894 75.9263 36.6894H82.2297V37.9565H76.5339V40.519Z" fill="#FFFEF4"/>
<path d="M87.9608 37.9565V41.7861H85.9837V37.9565H83.1546V36.6894H90.784V37.9565H87.9608Z" fill="#FFFEF4"/>
<path d="M97.4262 37.9565H93.69V41.7861H91.7129V36.6894H97.8536C98.0455 36.6894 98.2345 36.7206 98.4205 36.786C98.6037 36.8513 98.7694 36.9422 98.9148 37.0616C99.0602 37.1809 99.1765 37.3201 99.2637 37.482C99.3509 37.644 99.3946 37.8229 99.3946 38.019V38.6298C99.3946 38.8059 99.348 38.9764 99.255 39.1383C99.162 39.3003 99.0398 39.4423 98.8916 39.5645C98.7433 39.6866 98.5775 39.7832 98.3973 39.8571C98.217 39.931 98.0396 39.9679 97.871 39.9679L99.3131 41.7861H97.1907L94.8501 38.7718H97.4262V37.9565Z" fill="#FFFEF4"/>
<path d="M100.311 40.519H103.14V37.9565H100.319V36.6894H107.949V37.9565H105.12V40.519H107.94V41.7861H100.311V40.519Z" fill="#FFFEF4"/>
<path d="M110.853 40.519H116.549V41.7861H110.245C110.056 41.7861 109.882 41.752 109.713 41.681C109.547 41.61 109.402 41.5134 109.277 41.3941C109.152 41.2719 109.056 41.1299 108.983 40.9679C108.911 40.806 108.873 40.6327 108.873 40.448V38.0275C108.873 37.8457 108.908 37.6724 108.983 37.5076C109.056 37.3457 109.155 37.2036 109.277 37.0814C109.402 36.9593 109.547 36.8655 109.713 36.7945C109.879 36.7235 110.056 36.6894 110.245 36.6894H116.549V37.9565H110.853V40.519Z" fill="#FFFEF4"/>
<path d="M57.3291 36.9782V36.7276H57.2343V36.6894H57.4739V36.7276H57.3794V36.9785L57.3291 36.9782Z" fill="#FFFEF4"/>
<path d="M57.5137 36.9782V36.6894H57.5651L57.6592 36.8764L57.7529 36.6894H57.8043V36.9785H57.7544V36.7687L57.6742 36.9284H57.6438L57.5632 36.7687V36.9782H57.5137Z" fill="#FFFEF4"/>
<path d="M5.85555 37.9633V41.8148H3.86759V37.9633H1.97846V41.8148H0V37.9819C0 37.8036 0.0380107 37.6365 0.114032 37.4786C0.190054 37.3208 0.290782 37.1852 0.414317 37.0682C0.539752 36.9531 0.684193 36.8602 0.847639 36.7915C1.01109 36.7228 1.18593 36.6894 1.36839 36.6894H9.73454V41.8148H7.74658V37.9633H5.85555Z" fill="#FFFEF4"/>
<path d="M18.3936 41.8148H12.0535C11.8653 41.8148 11.6866 41.7795 11.5194 41.7071C11.3522 41.6366 11.2058 41.54 11.0823 41.4174C10.9568 41.2949 10.858 41.1537 10.7858 40.9903C10.7136 40.8269 10.6756 40.6523 10.6756 40.4685V38.0357C10.6756 37.8519 10.7117 37.6773 10.7858 37.5139C10.858 37.3505 10.9568 37.2075 11.0823 37.0868C11.2077 36.9642 11.3522 36.8676 11.5194 36.7971C11.6866 36.7265 11.8653 36.6894 12.0535 36.6894H18.3936V37.9633H12.6654V40.539H18.3936V41.8148ZM13.7772 39.8538V38.6597H17.9926V39.8538H13.7772Z" fill="#FFFEF4"/>
<path d="M19.3248 40.5409H22.1718V37.9633H19.3343V36.6894H27.0068V37.9633H24.1598V40.539H26.9973V41.813H19.3248V40.539V40.5409Z" fill="#FFFEF4"/>
<path d="M29.9225 41.8148H27.9346V36.6894H34.2938C34.4762 36.6894 34.6492 36.7228 34.8145 36.7915C34.9779 36.8602 35.1224 36.9512 35.2478 37.0682C35.3732 37.1833 35.4721 37.3208 35.5481 37.4786C35.6241 37.6365 35.6621 37.8036 35.6621 37.9819V41.8148H33.6818V37.9633H29.9225V41.8148Z" fill="#FFFEF4"/>
<path d="M44.3098 41.8148H37.9696C37.7815 41.8148 37.6028 41.7795 37.4356 41.7071C37.2683 41.6366 37.122 41.54 36.9985 41.4174C36.873 41.2949 36.7742 41.1537 36.702 40.9903C36.6298 40.8269 36.5918 40.6523 36.5918 40.4685V38.0357C36.5918 37.8519 36.6279 37.6773 36.702 37.5139C36.7742 37.3505 36.873 37.2075 36.9985 37.0868C37.1239 36.9642 37.2683 36.8676 37.4356 36.7971C37.6028 36.7265 37.7815 36.6894 37.9696 36.6894H44.3098V37.9633H38.5816V40.539H44.3098V41.8148ZM39.6934 39.8538V38.6597H43.9088V39.8538H39.6934Z" fill="#FFFEF4"/>
<path d="M122.005 10.978V0.185021H124.528V8.94273H129.995V10.978H122.005Z" fill="#FFFEF4"/>
<path d="M131.42 10.978V0.185021H133.943V10.978H131.42Z" fill="#FFFEF4"/>
<path d="M136.531 10.978V0.185021H138.618L143.259 7.80176H142.154L146.717 0.185021H148.789L148.82 10.978H146.452L146.437 3.77753H146.873L143.228 9.837H142.091L138.369 3.77753H138.898V10.978H136.531Z" fill="#FFFEF4"/>
<path d="M151.407 10.978V0.185021H153.93V10.978H151.407Z" fill="#FFFEF4"/>
<path d="M158.776 10.978V2.22026H155.287V0.185021H164.788V2.22026H161.299V10.978H158.776Z" fill="#FFFEF4"/>
<path d="M166.146 10.978V0.185021H168.669V8.94273H174.136V10.978H166.146Z" fill="#FFFEF4"/>
<path d="M177.882 4.53304H183.131V6.47577H177.882V4.53304ZM178.069 8.97357H184.003V10.978H175.561V0.185021H183.801V2.18943H178.069V8.97357Z" fill="#FFFEF4"/>
<path d="M189.593 11.163C188.721 11.163 187.885 11.0499 187.086 10.8238C186.286 10.5874 185.642 10.2841 185.154 9.9141L186.011 8.03304C186.478 8.36197 187.029 8.63436 187.662 8.85022C188.306 9.0558 188.955 9.15859 189.609 9.15859C190.107 9.15859 190.507 9.11233 190.808 9.01982C191.12 8.91703 191.348 8.77827 191.494 8.60352C191.639 8.42878 191.712 8.22834 191.712 8.0022C191.712 7.71439 191.598 7.48825 191.369 7.32379C191.141 7.14905 190.84 7.01028 190.466 6.90749C190.092 6.79442 189.677 6.69163 189.22 6.59912C188.773 6.49633 188.321 6.37298 187.865 6.22907C187.418 6.08517 187.008 5.90015 186.634 5.67401C186.26 5.44787 185.954 5.14978 185.715 4.77974C185.487 4.40969 185.372 3.93686 185.372 3.36123C185.372 2.74449 185.539 2.18429 185.871 1.68062C186.214 1.16667 186.722 0.760646 187.397 0.462555C188.083 0.154185 188.939 0 189.967 0C190.653 0 191.328 0.0822319 191.992 0.246696C192.657 0.40088 193.243 0.637298 193.752 0.955947L192.973 2.85242C192.465 2.56461 191.956 2.35389 191.447 2.22026C190.938 2.07636 190.44 2.00441 189.952 2.00441C189.464 2.00441 189.064 2.06094 188.752 2.17401C188.441 2.28708 188.218 2.43612 188.083 2.62114C187.948 2.79589 187.88 3.00147 187.88 3.23789C187.88 3.51542 187.994 3.74156 188.223 3.9163C188.451 4.08076 188.752 4.21439 189.126 4.31718C189.5 4.41997 189.91 4.52276 190.357 4.62555C190.814 4.72834 191.265 4.84655 191.712 4.98018C192.169 5.1138 192.584 5.29369 192.958 5.51982C193.332 5.74596 193.633 6.04405 193.861 6.4141C194.1 6.78414 194.219 7.25184 194.219 7.81718C194.219 8.42364 194.048 8.97871 193.705 9.48238C193.363 9.98605 192.849 10.3921 192.163 10.7004C191.489 11.0088 190.632 11.163 189.593 11.163Z" fill="#FFFEF4"/>
<path d="M199.526 11.163C198.654 11.163 197.818 11.0499 197.018 10.8238C196.219 10.5874 195.575 10.2841 195.087 9.9141L195.944 8.03304C196.411 8.36197 196.961 8.63436 197.595 8.85022C198.238 9.0558 198.887 9.15859 199.542 9.15859C200.04 9.15859 200.44 9.11233 200.741 9.01982C201.052 8.91703 201.281 8.77827 201.426 8.60352C201.572 8.42878 201.644 8.22834 201.644 8.0022C201.644 7.71439 201.53 7.48825 201.302 7.32379C201.073 7.14905 200.772 7.01028 200.398 6.90749C200.024 6.79442 199.609 6.69163 199.152 6.59912C198.706 6.49633 198.254 6.37298 197.797 6.22907C197.351 6.08517 196.94 5.90015 196.567 5.67401C196.193 5.44787 195.886 5.14978 195.648 4.77974C195.419 4.40969 195.305 3.93686 195.305 3.36123C195.305 2.74449 195.471 2.18429 195.803 1.68062C196.146 1.16667 196.655 0.760646 197.33 0.462555C198.015 0.154185 198.872 0 199.9 0C200.585 0 201.26 0.0822319 201.925 0.246696C202.589 0.40088 203.176 0.637298 203.685 0.955947L202.906 2.85242C202.397 2.56461 201.888 2.35389 201.38 2.22026C200.871 2.07636 200.372 2.00441 199.884 2.00441C199.396 2.00441 198.996 2.06094 198.685 2.17401C198.373 2.28708 198.15 2.43612 198.015 2.62114C197.88 2.79589 197.813 3.00147 197.813 3.23789C197.813 3.51542 197.927 3.74156 198.155 3.9163C198.384 4.08076 198.685 4.21439 199.059 4.31718C199.433 4.41997 199.843 4.52276 200.289 4.62555C200.746 4.72834 201.198 4.84655 201.644 4.98018C202.101 5.1138 202.517 5.29369 202.89 5.51982C203.264 5.74596 203.565 6.04405 203.794 6.4141C204.033 6.78414 204.152 7.25184 204.152 7.81718C204.152 8.42364 203.981 8.97871 203.638 9.48238C203.295 9.98605 202.781 10.3921 202.096 10.7004C201.421 11.0088 200.564 11.163 199.526 11.163Z" fill="#FFFEF4"/>
<path d="M122.005 26.3965V15.6035H126.724C127.7 15.6035 128.541 15.7628 129.247 16.0815C129.953 16.3899 130.499 16.837 130.883 17.4229C131.267 18.0088 131.459 18.7078 131.459 19.5198C131.459 20.3216 131.267 21.0154 130.883 21.6013C130.499 22.1769 129.953 22.6189 129.247 22.9273C128.541 23.2357 127.7 23.3899 126.724 23.3899H123.406L124.528 22.2952V26.3965H122.005ZM128.936 26.3965L126.21 22.4802H128.905L131.662 26.3965H128.936ZM124.528 22.5727L123.406 21.4009H126.584C127.363 21.4009 127.944 21.2364 128.328 20.9075C128.713 20.5683 128.905 20.1057 128.905 19.5198C128.905 18.9236 128.713 18.4611 128.328 18.1322C127.944 17.8032 127.363 17.6388 126.584 17.6388H123.406L124.528 16.4515V22.5727Z" fill="#FFFEF4"/>
<path d="M135.779 19.9515H141.028V21.8943H135.779V19.9515ZM135.966 24.3921H141.9V26.3965H133.458V15.6035H141.698V17.6079H135.966V24.3921Z" fill="#FFFEF4"/>
<path d="M143.908 26.3965V15.6035H145.995L152.428 23.3744H151.415V15.6035H153.908V26.3965H151.836L145.388 18.6256H146.4V26.3965H143.908Z" fill="#FFFEF4"/>
<path d="M158.808 19.9515H164.057V21.8943H158.808V19.9515ZM158.995 24.3921H164.929V26.3965H156.487V15.6035H164.727V17.6079H158.995V24.3921Z" fill="#FFFEF4"/>
<path d="M169.401 26.3965L165.835 15.6035H168.451L171.551 25.163H170.243L173.482 15.6035H175.819L178.934 25.163H177.672L180.85 15.6035H183.264L179.697 26.3965H176.987L174.23 18.0088H174.946L172.112 26.3965H169.401Z" fill="#FFFEF4"/>
<path d="M182.874 26.3965L187.734 15.6035H190.226L195.101 26.3965H192.454L188.466 16.8678H189.463L185.46 26.3965H182.874ZM185.304 24.0837L185.974 22.1872H191.581L192.267 24.0837H185.304Z" fill="#FFFEF4"/>
<path d="M196.233 26.3965V15.6035H201.56C202.93 15.6035 203.958 15.8605 204.643 16.3744C205.339 16.8884 205.687 17.5668 205.687 18.4097C205.687 18.975 205.547 19.4684 205.267 19.8899C204.986 20.301 204.602 20.6197 204.114 20.8458C203.626 21.072 203.065 21.185 202.432 21.185L202.728 20.5529C203.413 20.5529 204.02 20.6659 204.55 20.8921C205.08 21.1079 205.49 21.4317 205.781 21.8634C206.082 22.2952 206.232 22.8245 206.232 23.4515C206.232 24.3767 205.864 25.1013 205.126 25.6256C204.389 26.1395 203.304 26.3965 201.871 26.3965H196.233ZM198.74 24.5154H201.684C202.338 24.5154 202.832 24.4126 203.164 24.207C203.506 23.9912 203.678 23.652 203.678 23.1894C203.678 22.7372 203.506 22.4031 203.164 22.1872C202.832 21.9611 202.338 21.848 201.684 21.848H198.553V20.0286H201.248C201.861 20.0286 202.328 19.9258 202.65 19.7203C202.982 19.5044 203.148 19.1806 203.148 18.7489C203.148 18.3275 202.982 18.0139 202.65 17.8084C202.328 17.5925 201.861 17.4846 201.248 17.4846H198.74V24.5154Z" fill="#FFFEF4"/>
<path d="M208.143 26.3965V15.6035H210.666V24.3612H216.133V26.3965H208.143Z" fill="#FFFEF4"/>
<path d="M219.879 19.9515H225.128V21.8943H219.879V19.9515ZM220.066 24.3921H226V26.3965H217.558V15.6035H225.798V17.6079H220.066V24.3921Z" fill="#FFFEF4"/>
<path d="M124.325 35.37H129.574V37.3128H124.325V35.37ZM124.512 39.8106H130.447V41.815H122.005V31.022H130.244V33.0264H124.512V39.8106Z" fill="#B5D411"/>
<path d="M132.454 41.815V31.022H134.541L140.974 38.7929H139.962V31.022H142.454V41.815H140.382L133.934 34.0441H134.946V41.815H132.454Z" fill="#B5D411"/>
<path d="M147.354 35.37H152.603V37.3128H147.354V35.37ZM147.541 39.8106H153.476V41.815H145.034V31.022H153.273V33.0264H147.541V39.8106Z" fill="#B5D411"/>
<path d="M155.483 41.815V31.022H160.203C161.179 31.022 162.02 31.1814 162.726 31.5C163.432 31.8084 163.977 32.2555 164.361 32.8414C164.746 33.4273 164.938 34.1263 164.938 34.9383C164.938 35.7401 164.746 36.4339 164.361 37.0198C163.977 37.5954 163.432 38.0374 162.726 38.3458C162.02 38.6542 161.179 38.8084 160.203 38.8084H156.885L158.007 37.7137V41.815H155.483ZM162.414 41.815L159.689 37.8987H162.383L165.14 41.815H162.414ZM158.007 37.9912L156.885 36.8194H160.062C160.841 36.8194 161.423 36.6549 161.807 36.326C162.191 35.9868 162.383 35.5242 162.383 34.9383C162.383 34.3421 162.191 33.8796 161.807 33.5507C161.423 33.2217 160.841 33.0573 160.062 33.0573H156.885L158.007 31.87V37.9912Z" fill="#B5D411"/>
<path d="M172.201 42C171.34 42 170.545 41.8664 169.818 41.5991C169.102 41.3216 168.474 40.931 167.934 40.4273C167.404 39.9236 166.989 39.3326 166.688 38.6542C166.397 37.9758 166.252 37.2305 166.252 36.4185C166.252 35.6065 166.397 34.8612 166.688 34.1828C166.989 33.5044 167.409 32.9134 167.949 32.4097C168.489 31.906 169.123 31.5206 169.85 31.2533C170.576 30.9758 171.376 30.837 172.248 30.837C173.214 30.837 174.081 30.9963 174.849 31.315C175.628 31.6336 176.282 32.0962 176.812 32.7026L175.192 34.1828C174.797 33.7717 174.367 33.4684 173.899 33.2731C173.432 33.0675 172.923 32.9648 172.373 32.9648C171.843 32.9648 171.36 33.047 170.924 33.2115C170.488 33.3759 170.109 33.6123 169.787 33.9207C169.476 34.2291 169.232 34.594 169.055 35.0154C168.889 35.4369 168.806 35.9045 168.806 36.4185C168.806 36.9222 168.889 37.3847 169.055 37.8062C169.232 38.2276 169.476 38.5976 169.787 38.9163C170.109 39.2247 170.483 39.4611 170.909 39.6256C171.345 39.79 171.822 39.8722 172.342 39.8722C172.84 39.8722 173.323 39.7952 173.79 39.641C174.268 39.4765 174.73 39.2041 175.176 38.8238L176.609 40.6278C176.018 41.0698 175.327 41.409 174.538 41.6454C173.759 41.8818 172.98 42 172.201 42ZM174.304 40.304V36.2489H176.609V40.6278L174.304 40.304Z" fill="#B5D411"/>
<path d="M181.663 41.815V37.4053L182.24 38.9163L177.442 31.022H180.121L183.797 37.0815H182.255L185.947 31.022H188.423L183.626 38.9163L184.187 37.4053V41.815H181.663Z" fill="#B5D411"/>
</svg>
