<?xml version="1.0" encoding="UTF-8"?>
<svg version="1.1" xmlns="http://www.w3.org/2000/svg" width="400" height="200">
<path d="M0 0 C132 0 264 0 400 0 C400 66 400 132 400 200 C268 200 136 200 0 200 C0 134 0 68 0 0 Z " fill="#FEFEFD" transform="translate(0,0)"/>
<path d="M0 0 C1.57043101 0.01330874 3.14079971 0.03717648 4.7109375 0.0703125 C5.91363281 0.08384766 5.91363281 0.08384766 7.140625 0.09765625 C9.12252273 0.12125027 11.10426731 0.15712185 13.0859375 0.1953125 C11.63793125 3.25954541 9.94252485 6.00381447 8.03125 8.80078125 C7.42249023 9.6932959 6.81373047 10.58581055 6.18652344 11.50537109 C5.53458008 12.45492676 4.88263672 13.40448242 4.2109375 14.3828125 C3.53836914 15.36588379 2.86580078 16.34895508 2.17285156 17.36181641 C-2.37495385 23.99412231 -6.97926022 30.58398275 -11.63427734 37.14135742 C-14.9373685 41.79712718 -18.1902509 46.4843431 -21.4140625 51.1953125 C-26.72141196 58.94797837 -32.06574828 66.6818635 -37.58813477 74.28344727 C-38.9451175 76.17812248 -38.9451175 76.17812248 -40.06616211 78.23022461 C-42.83956277 82.89932272 -42.83956277 82.89932272 -45.8984375 83.74194336 C-48.21525077 83.88470832 -50.41263116 83.80931523 -52.7265625 83.6328125 C-53.51482422 83.60123047 -54.30308594 83.56964844 -55.11523438 83.53710938 C-57.04979175 83.45503724 -58.98241913 83.32948398 -60.9140625 83.1953125 C-59.23493277 78.01281334 -56.12368905 73.868559 -53.0390625 69.4453125 C-52.45825928 68.60476318 -51.87745605 67.76421387 -51.27905273 66.89819336 C-46.56409005 60.08911396 -41.79316872 53.31945 -37.00390625 46.5625 C-33.66423279 41.84855038 -30.35036319 37.11671887 -27.0390625 32.3828125 C-26.17438354 31.14760864 -26.17438354 31.14760864 -25.29223633 29.88745117 C-22.18392551 25.44583747 -19.08126685 21.00036487 -15.984375 16.55078125 C-15.34483887 15.63337158 -14.70530273 14.71596191 -14.04638672 13.77075195 C-12.81455828 12.00353349 -11.58434959 10.23518463 -10.35595703 8.46557617 C-9.80278809 7.67256104 -9.24961914 6.8795459 -8.6796875 6.0625 C-8.19274414 5.36237793 -7.70580078 4.66225586 -7.20410156 3.94091797 C-4.74695601 0.61605221 -4.38036497 0.21858109 0 0 Z " fill="#F2A82C" transform="translate(79.9140625,54.8046875)"/>
<path d="M0 0 C0.66 0 1.32 0 2 0 C2 18.15 2 36.3 2 55 C-10.87 55 -23.74 55 -37 55 C-35.57204958 52.14409915 -34.23638638 49.75172819 -32.453125 47.15625 C-31.94483154 46.4144751 -31.43653809 45.6727002 -30.9128418 44.90844727 C-30.364104 44.11365967 -29.81536621 43.31887207 -29.25 42.5 C-28.39305542 41.25271118 -28.39305542 41.25271118 -27.51879883 39.98022461 C-22.69191522 32.96854796 -17.8097906 25.99574137 -12.90820312 19.03613281 C-8.95590462 13.41205232 -5.13986238 7.72447905 -1.453125 1.921875 C-0.73382813 0.97054687 -0.73382813 0.97054687 0 0 Z " fill="#F3A82D" transform="translate(91,83)"/>
<path d="M0 0 C4.87986993 2.2656539 7.66705454 5.15465173 10 10 C10.86869205 14.46327983 10.89883082 18.25452853 8.7890625 22.3515625 C6.27268794 25.8642681 4.11620251 28.45177193 0 30 C-4.85211064 30.71173414 -9.83911354 31.14553017 -14.26953125 28.796875 C-18.10865142 25.59626113 -20.56267408 22.49237074 -21.44140625 17.484375 C-21.68760237 11.92510774 -21.35310563 8.66890961 -17.625 4.375 C-12.35032001 -0.94309299 -7.27242886 -0.6758409 0 0 Z " fill="#242323" transform="translate(339,107)"/>
<path d="M0 0 C2.866875 -0.061875 5.73375 -0.12375 8.6875 -0.1875 C10.02880981 -0.22846802 10.02880981 -0.22846802 11.3972168 -0.27026367 C16.04674149 -0.31875597 19.30765372 -0.16798941 23 3 C24.207644 7.07579849 24.44610971 9.08838451 22.5625 12.9375 C21.7890625 13.9584375 21.7890625 13.9584375 21 15 C21.495 15.33 21.99 15.66 22.5 16 C24.42220956 18.56294608 24.44850207 20.82385724 24.59375 23.96484375 C23.60864218 27.34143043 22.02445337 28.27119332 19 30 C15.70739811 30.47199584 12.50477584 30.37764184 9.1875 30.25 C6.155625 30.1675 3.12375 30.085 0 30 C0 20.1 0 10.2 0 0 Z " fill="#272727" transform="translate(233,107)"/>
<path d="M0 0 C2.866875 -0.0825 5.73375 -0.165 8.6875 -0.25 C9.58170654 -0.28641602 10.47591309 -0.32283203 11.3972168 -0.36035156 C15.44692845 -0.41666694 17.50103852 -0.31241573 21.01953125 1.890625 C23.33856227 4.36059886 23.91796315 5.39839646 24.375 8.75 C24 12 24 12 21.375 15 C20.59125 15.99 19.8075 16.98 19 18 C19.36521065 21.09802862 19.36521065 21.09802862 21 24 C21.53625 25.11375 22.0725 26.2275 22.625 27.375 C23.305625 28.674375 23.305625 28.674375 24 30 C18.89545632 30.88009374 18.89545632 30.88009374 16 30 C14.00054233 27.56153097 12.64312061 25.09848815 11.2265625 22.28515625 C10.21036926 19.86494404 10.21036926 19.86494404 8 19 C8 22.63 8 26.26 8 30 C5.36 30 2.72 30 0 30 C0 20.1 0 10.2 0 0 Z " fill="#282828" transform="translate(354,107)"/>
<path d="M0 0 C8 0 8 0 9.91796875 1.56054688 C10.33691406 2.27275391 10.75585938 2.98496094 11.1875 3.71875 C11.65800781 4.48574219 12.12851563 5.25273438 12.61328125 6.04296875 C13.07089844 6.85378906 13.52851563 7.66460937 14 8.5 C14.48855469 9.31082031 14.97710937 10.12164062 15.48046875 10.95703125 C16.67978929 12.95589881 17.84347031 14.97607304 19 17 C19.33 11.39 19.66 5.78 20 0 C22.31 0 24.62 0 27 0 C27 9.9 27 19.8 27 30 C19 30 19 30 17.17382812 28.53125 C16.79677734 27.8609375 16.41972656 27.190625 16.03125 26.5 C15.60585937 25.778125 15.18046875 25.05625 14.7421875 24.3125 C14.33226562 23.549375 13.92234375 22.78625 13.5 22 C13.05914062 21.236875 12.61828125 20.47375 12.1640625 19.6875 C11.08265013 17.80678284 10.03765774 15.90520765 9 14 C8.67 19.28 8.34 24.56 8 30 C5.36 30 2.72 30 0 30 C0 20.1 0 10.2 0 0 Z " fill="#242424" transform="translate(150,55)"/>
<path d="M0 0 C8 0 8 0 9.91796875 1.56054688 C10.33691406 2.27275391 10.75585938 2.98496094 11.1875 3.71875 C11.65800781 4.48574219 12.12851563 5.25273438 12.61328125 6.04296875 C13.07089844 6.85378906 13.52851563 7.66460937 14 8.5 C14.48855469 9.31082031 14.97710937 10.12164062 15.48046875 10.95703125 C16.67978929 12.95589881 17.84347031 14.97607304 19 17 C19.33 11.39 19.66 5.78 20 0 C22.31 0 24.62 0 27 0 C27 9.9 27 19.8 27 30 C19 30 19 30 17.17382812 28.56298828 C16.79677734 27.90540527 16.41972656 27.24782227 16.03125 26.5703125 C15.60585937 25.85746094 15.18046875 25.14460938 14.7421875 24.41015625 C14.12730469 23.27900391 14.12730469 23.27900391 13.5 22.125 C13.05914062 21.37863281 12.61828125 20.63226563 12.1640625 19.86328125 C9 14.40969526 9 14.40969526 9 12 C8.34 12 7.68 12 7 12 C7 17.94 7 23.88 7 30 C4.69 30 2.38 30 0 30 C0 20.1 0 10.2 0 0 Z " fill="#202020" transform="translate(185,55)"/>
<path d="M0 0 C8 0 8 0 9.91796875 1.56054688 C10.33691406 2.27275391 10.75585938 2.98496094 11.1875 3.71875 C11.65800781 4.48574219 12.12851563 5.25273438 12.61328125 6.04296875 C13.07089844 6.85378906 13.52851563 7.66460937 14 8.5 C14.48855469 9.31082031 14.97710937 10.12164062 15.48046875 10.95703125 C16.67978929 12.95589881 17.84347031 14.97607304 19 17 C19.33 11.39 19.66 5.78 20 0 C22.31 0 24.62 0 27 0 C27 9.9 27 19.8 27 30 C19 30 19 30 17.17382812 28.56298828 C16.79677734 27.90540527 16.41972656 27.24782227 16.03125 26.5703125 C15.60585937 25.85746094 15.18046875 25.14460938 14.7421875 24.41015625 C14.12730469 23.27900391 14.12730469 23.27900391 13.5 22.125 C13.05914062 21.37863281 12.61828125 20.63226563 12.1640625 19.86328125 C9 14.40969526 9 14.40969526 9 12 C8.34 12 7.68 12 7 12 C7 17.94 7 23.88 7 30 C4.69 30 2.38 30 0 30 C0 20.1 0 10.2 0 0 Z " fill="#202020" transform="translate(133,107)"/>
<path d="M0 0 C2.97 0 5.94 0 9 0 C9.70576172 1.918125 9.70576172 1.918125 10.42578125 3.875 C11.0546749 5.58333797 11.68358186 7.29167104 12.3125 9 C12.7755957 10.25876953 12.7755957 10.25876953 13.24804688 11.54296875 C13.55419922 12.37441406 13.86035156 13.20585938 14.17578125 14.0625 C14.4795166 14.89007813 14.78325195 15.71765625 15.09619141 16.5703125 C15.68497508 18.15312588 16.28565718 19.73157997 16.89990234 21.3046875 C18.08442976 24.34643693 19 26.70420769 19 30 C16.36 30 13.72 30 11 30 C10.67 28.68 10.34 27.36 10 26 C6.04 25.67 2.08 25.34 -2 25 C-2.33 26.65 -2.66 28.3 -3 30 C-5.31 30 -7.62 30 -10 30 C-9.37113841 19.30935298 -4.40024559 9.61535148 0 0 Z " fill="#262626" transform="translate(127,55)"/>
<path d="M0 0 C1.23556641 0.01740234 1.23556641 0.01740234 2.49609375 0.03515625 C3.32238281 0.04417969 4.14867187 0.05320312 5 0.0625 C5.63808594 0.07410156 6.27617187 0.08570312 6.93359375 0.09765625 C15.3927617 21.59226334 15.3927617 21.59226334 16.93359375 30.09765625 C14.29359375 30.09765625 11.65359375 30.09765625 8.93359375 30.09765625 C8.60359375 28.77765625 8.27359375 27.45765625 7.93359375 26.09765625 C3.97359375 25.76765625 0.01359375 25.43765625 -4.06640625 25.09765625 C-4.39640625 26.74765625 -4.72640625 28.39765625 -5.06640625 30.09765625 C-7.37640625 30.09765625 -9.68640625 30.09765625 -12.06640625 30.09765625 C-11.61216506 24.87388251 -10.21559586 20.69153671 -8.18359375 15.87109375 C-6.54554092 11.80459895 -5.23309701 7.64288432 -3.8984375 3.46875 C-2.7264459 0.12884905 -2.7264459 0.12884905 0 0 Z " fill="#242424" transform="translate(273.06640625,106.90234375)"/>
<path d="M0 0 C2.97 0 5.94 0 9 0 C10.74602141 4.63859688 12.48681121 9.27909532 14.22167969 13.921875 C14.9069152 15.75146243 15.59756496 17.57902012 16.2890625 19.40625 C16.64742187 20.3653125 17.00578125 21.324375 17.375 22.3125 C17.69210938 23.15425781 18.00921875 23.99601562 18.3359375 24.86328125 C19 27 19 27 19 30 C16.69 30 14.38 30 12 30 C11.79632813 29.35546875 11.59265625 28.7109375 11.3828125 28.046875 C10.1332065 25.68846128 10.1332065 25.68846128 7.1796875 25.390625 C6.08914062 25.34421875 4.99859375 25.2978125 3.875 25.25 C2.77929688 25.19328125 1.68359375 25.1365625 0.5546875 25.078125 C-0.28835937 25.05234375 -1.13140625 25.0265625 -2 25 C-2.33 26.65 -2.66 28.3 -3 30 C-5.31 30 -7.62 30 -10 30 C-8.77325145 19.40412795 -4.47313402 9.60895456 0 0 Z " fill="#262626" transform="translate(227,55)"/>
<path d="M0 0 C2.64 0 5.28 0 8 0 C8.02505615 0.62567871 8.0501123 1.25135742 8.07592773 1.89599609 C8.19175273 4.72254619 8.31453985 7.54875169 8.4375 10.375 C8.47681641 11.35984375 8.51613281 12.3446875 8.55664062 13.359375 C8.61948242 14.77089844 8.61948242 14.77089844 8.68359375 16.2109375 C8.72025146 17.08024902 8.75690918 17.94956055 8.79467773 18.84521484 C8.87401544 21.0483262 8.87401544 21.0483262 10 23 C12.41645782 23.16687448 12.41645782 23.16687448 15 23 C17.48057628 20.51942372 17.29019005 19.63807536 17.4140625 16.2109375 C17.45273438 15.26992187 17.49140625 14.32890625 17.53125 13.359375 C17.5621875 12.37453125 17.593125 11.3896875 17.625 10.375 C17.66367188 9.38242188 17.70234375 8.38984375 17.7421875 7.3671875 C17.8366314 4.91164615 17.92219875 2.4561159 18 0 C20.64 0 23.28 0 26 0 C26.1171893 3.35386761 26.18757584 6.70720149 26.25 10.0625 C26.30027344 11.47692383 26.30027344 11.47692383 26.3515625 12.91992188 C26.43883631 19.1818178 25.82770102 22.9610859 22 28 C17.7176998 31.17012817 12.07707455 30.61768563 7 30 C3.31239868 27.89279925 1.58256661 25.87967289 0 22 C-0.22705078 19.52636719 -0.22705078 19.52636719 -0.1953125 16.796875 C-0.18886719 15.8171875 -0.18242187 14.8375 -0.17578125 13.828125 C-0.15902344 12.81234375 -0.14226562 11.7965625 -0.125 10.75 C-0.11597656 9.71875 -0.10695312 8.6875 -0.09765625 7.625 C-0.07412011 5.08309713 -0.04124023 2.5416672 0 0 Z " fill="#2C2C2B" transform="translate(200,107)"/>
<path d="M0 0 C1.010625 -0.00773437 2.02125 -0.01546875 3.0625 -0.0234375 C7.30694465 0.55227175 9.96024542 2.22768461 12.8125 5.375 C14 7.375 14 7.375 14 10.375 C8.60598179 10.64027958 8.60598179 10.64027958 6 10.375 C4.375 8.875 4.375 8.875 3 7.375 C-0.59350675 6.83979687 -2.31881548 6.92685229 -5.375 8.9375 C-7.60301871 12.27952807 -7.41585332 14.42439344 -7 18.375 C-6.1025173 21.20878132 -6.1025173 21.20878132 -5 23.375 C-0.20962103 23.84019222 -0.20962103 23.84019222 3.9375 21.875 C7.16937963 19.52454209 10.07434148 20.17871707 14 20.375 C12.90756969 24.19850607 11.21913544 26.95762647 8.03515625 29.4140625 C3.5531146 31.5303432 -1.22273699 31.29591817 -6 30.375 C-10.07189138 28.12455917 -12.44634881 25.20547678 -15 21.375 C-15.68923878 15.82101777 -15.7242151 10.90389855 -13.3125 5.8125 C-9.22886009 1.50812279 -5.94478778 -0.04549582 0 0 Z " fill="#222222" transform="translate(181,106.625)"/>
<path d="M0 0 C7.59 0 15.18 0 23 0 C23 1.65 23 3.3 23 5 C20.36 5 17.72 5 15 5 C15 13.25 15 21.5 15 30 C12.69 30 10.38 30 8 30 C8 22.08 8 14.16 8 6 C5.36 6 2.72 6 0 6 C0 4.02 0 2.04 0 0 Z " fill="#222222" transform="translate(292,107)"/>
<path d="M0 0 C3.88265681 0.72799815 5.46228253 1.50231129 8 4.5625 C8.72788859 7.70885714 8.69514931 10.41190395 8 13.5625 C5.57198867 17.0616928 4.14958016 18.29905455 0 19.25 C-3.43370792 18.4631086 -5.00764889 17.19401581 -7.078125 14.34375 C-8.70252444 11.20507989 -8.62314186 8.98978024 -8 5.5625 C-5.54999553 2.17572911 -4.13607554 0.77551416 0 0 Z " fill="#F3F3F3" transform="translate(333,112.4375)"/>
<path d="M0 0 C2.31 0 4.62 0 7 0 C7 9.9 7 19.8 7 30 C4.69 30 2.38 30 0 30 C0 20.1 0 10.2 0 0 Z " fill="#191819" transform="translate(118,107)"/>
<path d="M0 0 C2.31 0 4.62 0 7 0 C7 9.9 7 19.8 7 30 C4.69 30 2.38 30 0 30 C0 20.1 0 10.2 0 0 Z M1 2 C1 10.91 1 19.82 1 29 C2.32 29 3.64 29 5 29 C5 20.09 5 11.18 5 2 C3.68 2 2.36 2 1 2 Z " fill="#252425" transform="translate(118,107)"/>
<path d="M0 0 C2.33294775 -0.04241723 4.66702567 -0.04092937 7 0 C8 1 8 1 8.125 3.5 C8 6 8 6 7 7 C4.66702567 7.04092937 2.33294775 7.04241723 0 7 C0 4.69 0 2.38 0 0 Z " fill="#F8F8F8" transform="translate(362,113)"/>
<path d="M0 0 C2.64 0 5.28 0 8 0 C8.38218767 1.65614657 8.71395102 3.32457024 9 5 C8 6 8 6 6.15234375 6.09765625 C4.1015625 6.06510417 2.05078125 6.03255208 0 6 C0 4.02 0 2.04 0 0 Z " fill="#F7F7F7" transform="translate(241,125)"/>
<path d="M0 0 C2.31 0 4.62 0 7 0 C7.38218767 1.65614657 7.71395102 3.32457024 8 5 C7 6 7 6 3.4375 6.0625 C2.303125 6.041875 1.16875 6.02125 0 6 C0 4.02 0 2.04 0 0 Z " fill="#FBFBFB" transform="translate(241,113)"/>
<path d="M0 0 C2.83374881 3.20336822 3.5205537 5.78087253 4 10 C1.69 10 -0.62 10 -3 10 C-2.25 3.375 -2.25 3.375 0 0 Z " fill="#EBECEB" transform="translate(275,116)"/>
<path d="M0 0 C0.66 0 1.32 0 2 0 C3.60355101 3.50776784 4.22036864 6.14354879 4 10 C2.02 10 0.04 10 -2 10 C-1.34 6.7 -0.68 3.4 0 0 Z " fill="#E1E1E1" transform="translate(130,64)"/>
<path d="M0 0 C2.18975773 3.28463659 2.99806563 6.20696275 4 10 C1.69 10 -0.62 10 -3 10 C-2.69201674 8.51988629 -2.378482 7.04092675 -2.0625 5.5625 C-1.88847656 4.73878906 -1.71445313 3.91507812 -1.53515625 3.06640625 C-1 1 -1 1 0 0 Z " fill="#E6E6E6" transform="translate(231,64)"/>
<path d="M0 0 C0.66 1.32 1.32 2.64 2 4 C1.54625 4.433125 1.0925 4.86625 0.625 5.3125 C-1.20024334 7.10798342 -1.20024334 7.10798342 -3 10 C-2.25 3.375 -2.25 3.375 0 0 Z " fill="#CDCECE" transform="translate(275,116)"/>
</svg>
