<?xml version="1.0" encoding="UTF-8"?>
<svg version="1.1" viewBox="0 0 2000 2000" width="500" height="500" xmlns="http://www.w3.org/2000/svg">
<path transform="translate(0)" d="m0 0h2e3v2e3h-2e3z" fill="#FCFCFC"/>
<path transform="translate(411,733)" d="m0 0h81l-1 6-7 12-36 51-14 20-11 16-16 23-12 17-13 19-10 14-9 13-12 17-14 20-11 16-16 23-12 17-32 46-12 17-11 16-14 20-8 11-3 3h-73l-8-1 1-5 7-11 7-10 12-17 14-20 13-19 11-15 11-16 16-23 21-30 13-19 10-14 11-16 10-14 11-16 12-17 64-92 12-17 8-12z" fill="#F6A833"/>
<path transform="translate(490,867)" d="m0 0 2 1v56l-1 206h-183l-2-2 10-16 24-34 28-40 16-23 14-20 16-23 11-16 8-11 11-16 16-23 10-15 14-19z" fill="#F6A833"/>
<path transform="translate(1633,980)" d="m0 0h19l15 3 12 5 11 7 11 11 7 11 5 11 3 11 1 9v10l-2 15-3 10-8 14-9 10-9 8-16 8-13 4-6 1h-15l-16-3-16-7-11-8-9-9-8-13-5-12-3-16v-12l3-17 5-12 6-10 9-10 10-8 14-7 10-3z" fill="#1F1E1F"/>
<path transform="translate(1165,982)" d="m0 0h77l12 3 10 6 7 8 5 11 1 11-2 10-5 9-5 5-10 6v2l9 3 9 9 5 9 2 9v9l-3 11-6 9-8 7-11 5-7 2h-81v-128z" fill="#1F1E1F"/>
<path transform="translate(686,982)" d="m0 0h34l4 5 13 20 10 15 16 25 15 22 1 1 1-88h35v109l-1 35-4 1-30-1-6-7-19-29-18-27-9-14-7-10-1 87-1 1h-33l-1-1v-143z" fill="#1F1E1F"/>
<path transform="translate(1779,981)" d="m0 0h14l21 1 10 2 12 5 10 9 6 10 3 8 1 6v10l-4 14-6 9-7 7-14 7 6 12 14 24 11 19v2h-39l-12-22-10-18-7-12v-2h-9l-1 54h-35v-144z" fill="#1F1E1F"/>
<path transform="translate(963,732)" d="m0 0 6 1 12 18 11 17 10 15 15 23 10 15 1-88h35v144l-1 1h-16l-19-1-7-11-10-15-25-38-10-15-5-8-2-1v88l-1 1-33-1v-144z" fill="#1F1E1F"/>
<path transform="translate(795,732)" d="m0 0 7 1 14 22 14 21 19 29 8 13 3 4 1-89h34v142l-1 3h-23l-11-1-7-10-13-20-18-27-17-26-2-4-2 88h-24l-10-1v-144z" fill="#1F1E1F"/>
<path transform="translate(1346,981)" d="m0 0 40 1 4 10 14 39 20 55 14 39v1h-37l-7-20-2-4-53-1-5 12-5 13h-36l1-5 11-30 17-47 16-44 6-18z" fill="#1F1E1F"/>
<path transform="translate(1171,732)" d="m0 0 5 2 10 29 20 55 13 36 8 22v2h-26l-11-1-7-19-2-5h-54l-5 16-3 8h-36l2-9 14-39 13-36 11-30 9-24 2-6z" fill="#1F1E1F"/>
<path transform="translate(691,732)" d="m0 0 5 1 18 50 32 88 1 6-9 1-27-1-3-7-6-17h-54l-7 20-2 4-5 1-31-1 3-10 43-119 5-14 1-1z" fill="#1F1E1F"/>
<path transform="translate(1006,982)" d="m0 0h34l1 4 1 90 4 9 5 6 7 3h16l9-4 5-5 3-7 1-7 1-89h34v96l-4 15-5 10-9 10-10 7-14 6-10 2h-17l-14-3-16-8-6-5-7-9-4-8-3-9-2-17z" fill="#1F1E1F"/>
<path transform="translate(905,980)" d="m0 0h19l15 3 12 5 12 9 8 8 8 14 3 8v3h-38l-7-9-9-6-9-3h-12l-11 4-9 7-6 10-3 11v18l3 11 5 9 5 6 10 5 5 1h14l10-3 6-4 6-8 1-2h39l-3 10-6 12-11 12-11 7-16 7-9 2h-24l-12-3-17-8-9-7-8-8-8-13-5-14-2-12v-17l3-16 5-12 7-11 6-7 12-9 12-6 11-3z" fill="#1F1E1F"/>
<path transform="translate(1446,982)" d="m0 0h111v19l-1 8-2 1-35-1v85l-1 32h-34v-116l-38-1z" fill="#1F1E1F"/>
<path transform="translate(1635,1011)" d="m0 0h15l11 4 8 6 6 7 4 9 2 10v12l-3 14-6 10-7 7-12 5-14 1-13-3-8-5-8-9-4-10-2-11v-10l3-14 6-10 9-8z" fill="#FDFDFD"/>
<path transform="translate(612,982)" d="m0 0h35v144h-35z" fill="#1F1E1F"/>
<path transform="translate(1778,1010)" d="m0 0h28l7 3 6 7 1 3v12l-6 8-5 3-5 1h-25l-1-1z" fill="#FDFDFD"/>
<path transform="translate(1199,1066)" d="m0 0h33l8 4 3 4 1 3v11l-4 6-5 3-4 1h-31l-1-1z" fill="#FDFDFD"/>
<path transform="translate(1200,1009)" d="m0 0h26l8 2 6 7 1 2v10l-3 5-7 5-9 1h-21l-2-1v-30z" fill="#FDFDFD"/>
<path transform="translate(1364,1022)" d="m0 0h2l10 28 6 18 1 6h-35l1-8 9-27 5-16z" fill="#FDFDFD"/>
<path transform="translate(1153,774)" d="m0 0 3 1 16 47v3l-34 1-2-2 12-36z" fill="#FDFDFD"/>
<path transform="translate(673,774)" d="m0 0 3 1 7 19 10 28v3l-34 1-2-2 12-36z" fill="#FDFDFD"/>
<path transform="translate(215,1263)" d="m0 0 4 1 1 4 7-5 9 1 6 7 2 5v8l-3 7-5 5-2 1h-7l-6-4-1 17h-4l-1-3z" fill="#1F1E1F"/>
<path transform="translate(253,1263)" d="m0 0 3 2v3l8-5h6l6 4 4 6 1 11-3 7-6 6h-9l-6-5v17l-4 1-1-1v-45z" fill="#1F1E1F"/>
<path transform="translate(1400,1252)" d="m0 0 8 1 4 5v8l-4 5-3 2 2 4 6 8 2-3 1-5h3l1 5-2 4h-2l3 6 2 3v3l-5-2-5-1-7 3-9-2-5-4-2-4v-7l5-5 3-2-2-5-2-3v-7l4-5z" fill="#1F1E1F"/>
<path transform="translate(462,1253)" d="m0 0h3l1 4v10l8-4 8 1 6 7 2 8-1 9-7 8-3 1h-7l-7-1-4-1v-36z" fill="#1F1E1F"/>
<path transform="translate(987,1252)" d="m0 0 4 2 6 10 7 18 2 7 2-1 8-20 7-15 5 1v43h-4l-1-33-10 24-4 9-5-1-10-27-3-6-1 34h-4v-44z" fill="#1F1E1F"/>
<path transform="translate(1299,1252)" d="m0 0 5 2 10 21 5 13 2-2 6-16 8-16 4-2 1 1v44h-3v-35h-2l-2 6-10 26-2 3h-4l-12-29-2-3-1 32h-4v-44z" fill="#1F1E1F"/>
<path transform="translate(1255,1253)" d="m0 0h3l5 10 9 26 3 8-3 1-3-3-4-10-19-1-2 10-2 3h-3l2-10 7-20 4-8 2-5z" fill="#1F1E1F"/>
<path transform="translate(1461,1252)" d="m0 0 3 3 7 17 7 20 1 5-5-1-4-10v-2h-19l-3 12-4 2-1-2 10-30 6-13z" fill="#1F1E1F"/>
<path transform="translate(562,1252)" d="m0 0 4 4 6 14 8 24v4h-3l-5-13-3-1h-16l-3 11-1 2h-4l1-6 4-10 6-18z" fill="#1F1E1F"/>
<path transform="translate(381,1263)" d="m0 0 9 1 5 4 3 9-1 5h-21l-2-1 2 7 1 3 3 1h8l5-3 4-5v6l-4 5-7 3-7-1-6-4-3-5-1-4v-8l4-8 5-4z" fill="#1F1E1F"/>
<path transform="translate(1745,1263)" d="m0 0 8 1 6 5 2 5v8l-19 1-5-1 3 7 4 3 4 1 7-3 5-4v5l-7 6-7 1-7-3-5-6-2-7 1-8 4-6 5-4z" fill="#1F1E1F"/>
<path transform="translate(1566,1263)" d="m0 0h7l6 4 2 5v23l-4 1-7 1h-9l-4-4-1-2v-9l8-4 9-2h4l-3-7-1-1h-7l-7 4h-2l2-5 4-3z" fill="#1F1E1F"/>
<path transform="translate(836,1263)" d="m0 0h7l5 3 3 5v25l-3 1v-3l-8 3h-9l-5-6v-8l3-3 10-3 7-2-2-6-1-1-9 1-7 4 1-5 5-4z" fill="#1F1E1F"/>
<path transform="translate(618,1263)" d="m0 0h6l6 4 2 5v23l-4 1v-2l-7 3h-9l-4-5-1-9 5-4 15-4-2-6-2-1h-6l-6 4h-2l1-5z" fill="#1F1E1F"/>
<path transform="translate(1608,1253)" d="m0 0h5l1 30 3 7 4 2h8l6-4 1-3 1-32h4l1 5v25l-2 7-7 6-3 1h-11l-7-4-3-6-1-4z" fill="#1F1E1F"/>
<path transform="translate(153,1252)" d="m0 0h8l6 4 4 5v3l-4-2-5-4-9-1-5 4-1 5 4 4 15 5 5 4 1 8-3 5-4 4-6 2-9-1-7-5-2-4v-3l5 2 6 5 6 1 6-3 2-3v-5l-5-4-13-4-6-5v-8l3-5z" fill="#1F1E1F"/>
<path transform="translate(1141,1267)" d="m0 0 7 1 5 5 1 2v11l-5 6-2 1h-7l-6-7-1-8 3-7z" fill="#FDFDFD"/>
<path transform="translate(416,1267)" d="m0 0h6l6 5 1 3v9l-3 7-4 2h-7l-6-7v-11l4-6z" fill="#FDFDFD"/>
<path transform="translate(907,1267)" d="m0 0h6l5 4 3 9-1 6-6 7-6 1-5-4-2-3-1-11 5-8z" fill="#FDFDFD"/>
<path transform="translate(770,1267)" d="m0 0 7 1 4 4 2 5-1 10-4 5-2 1h-6l-6-5-2-6 1-8 5-6z" fill="#FDFDFD"/>
<path transform="translate(299,1267)" d="m0 0h6l5 4 2 5v9l-4 6-5 3-6-2-4-5-1-2v-10l4-6z" fill="#FDFDFD"/>
<path transform="translate(472,1267)" d="m0 0h6l5 4 2 4v11l-2 4-5 3h-7l-5-5v-15l4-5z" fill="#FDFDFD"/>
<path transform="translate(429,1253)" d="m0 0h3l1 20v14l-1 8h-3l-5 1-2 1h-9l-5-4-3-6-1-8 3-10 6-5 8-1 7 4v-13zm-13 14-5 4-2 4v11l6 7h7l5-3 2-6v-9l-3-5-4-3z" fill="#1F1E1F"/>
<path transform="translate(226,1267)" d="m0 0h6l5 4 2 4v10l-4 7-2 1h-6l-6-5-1-2v-11l2-5z" fill="#FDFDFD"/>
<path transform="translate(263,1267)" d="m0 0h6l5 4 2 5v8l-3 6-4 3h-6l-6-7v-14z" fill="#FDFDFD"/>
<path transform="translate(770,1263)" d="m0 0 9 1 5 5 3 5v12l-4 7-6 4-7 1-7-4-4-6-1-3v-10l4-8zm0 4-6 5-2 5 1 9 5 6 2 1h6l5-4 2-6-1-9-3-5-4-2z" fill="#1F1E1F"/>
<path transform="translate(299,1263)" d="m0 0 9 1 7 8 2 10-3 9-7 6-7 1-6-3-6-7-1-3v-9l4-8 5-4zm0 4-5 5-2 3v10l4 6 5 3 6-2 4-5 1-2v-9l-3-6-4-3z" fill="#1F1E1F"/>
<path transform="translate(1140,1263)" d="m0 0h7l6 3 4 5 2 11-3 9-6 5-2 1h-10l-5-4-3-6-1-9 3-9 5-5zm1 4-6 5-2 6 1 8 6 7h7l6-5 1-2v-11l-4-6-4-2z" fill="#1F1E1F"/>
<path transform="translate(907,1263)" d="m0 0 9 1 6 5 3 7v9l-4 7-6 5-6 1-7-3-4-5-2-4v-12l6-9zm0 4-5 5-2 4 1 11 5 6 5 1 5-3 4-5 1-6-3-9-5-4z" fill="#1F1E1F"/>
<path transform="translate(701,1263)" d="m0 0 8 1 4 5 2 8v20h-5l-1-24-3-5-9 1-2 2-1 25-5 1v-33l4 1v2l4-3z" fill="#1F1E1F"/>
<path transform="translate(933,1264)" d="m0 0 4 1 1 2 3-3h12l4 4 2 8v20l-5 1-1-24-3-5h-7l-4 3-1 7v19l-5-1-1-31z" fill="#1F1E1F"/>
<path transform="translate(1664,1263)" d="m0 0 9 1 4 6 1 4v23h-5l-1-25-1-4h-9l-4 3-1 7-1 19-4-1v-32l4 1 2 2 3-3z" fill="#1F1E1F"/>
<path transform="translate(737,1263)" d="m0 0 8 1 3 4 1 3 1 26h-4l-1-3-1-22-2-4h-8l-4 4-1 25h-5v-33l4 1 2 2 3-3z" fill="#1F1E1F"/>
<path transform="translate(182,1263)" d="m0 0 3 1 1 23 5 5 6-1 2-1 1-3 1-23h4l1 32-7-1-4 2h-7l-6-5-2-6v-16z" fill="#1F1E1F"/>
<path transform="translate(1859,1263)" d="m0 0 3 1 9 25 10-25 3-1 1 4-6 16-5 12-3 9-6 5h-5v-3l7-4 1-2-1-9-5-12-4-12z" fill="#1F1E1F"/>
<path transform="translate(1499,1263)" d="m0 0 8 1 3 4 1 5v24l-4-1v-10l-1-14-2-4h-7l-5 2-1 27h-5v-33h3l1 2z" fill="#1F1E1F"/>
<path transform="translate(1062,1263)" d="m0 0 9 1 4 4v4h-2v-2l-5-2h-7l-2 3 1 5 12 4 3 3 1 6-3 5-3 3-8 1-7-3-3-5v-2l4 1 5 3 5 1 4-2 1-5-8-3-7-4-3-3 1-7 5-5z" fill="#1F1E1F"/>
<path transform="translate(1094,1263)" d="m0 0 8 1 5 4v4l-5-2-3-2h-6l-4 3 1 4 7 3 7 2 4 4v6l-4 5-3 2h-11l-6-5v-5l8 5h7l4-3-1-4-12-4-5-4v-7l2-4z" fill="#1F1E1F"/>
<path transform="translate(495,1263)" d="m0 0 4 1 5 13 4 12 1 1 9-26 4-1-2 9-7 20-5 12-6 5-5-1 1-3 6-2 1-6-2-8-8-23z" fill="#1F1E1F"/>
<path transform="translate(1534,1263)" d="m0 0h6l4 2 2 4 1 6v22h-4l-1-23-2-5-2-1h-6l-5 3-1 5v20l-4 1-1-7v-26l4 2v2l5-4z" fill="#1F1E1F"/>
<path transform="translate(1181,1263)" d="m0 0 6 1 4 4 1 5v24h-4l-1-23-2-5-2-1-11 1-1 28h-4l-1-31 5-1z" fill="#1F1E1F"/>
<path transform="translate(1800,1263)" d="m0 0h7l7 6v3l-10-5-6 2-1 1v5l7 3 7 2 4 4-1 8-6 5h-10l-6-4-2-6 4 1 5 4 4 1 6-2 1-5-8-3-8-4-2-2v-7l5-6z" fill="#1F1E1F"/>
<path transform="translate(792,1264)" d="m0 0 5 1 5 12 3 12h2l3-9 6-16h3l-1 8-9 24-4 1-2-2-5-13z" fill="#1F1E1F"/>
<path transform="translate(1700,1264)" d="m0 0 4 1 5 11 4 11v2l2-1 6-19 3-5h3l-2 10-8 21-4 2-5-8-8-24z" fill="#1F1E1F"/>
<path transform="translate(1351,1247)" d="m0 0 3 1 6 13 1 4v20l-5 13-2 3-4-1 4-10 2-11v-8l-4-18-2-5z" fill="#1F1E1F"/>
<path transform="translate(1840,1256)" d="m0 0h4l1 7 6 1-1 3h-5v18l1 6 5 3v3l-7-1-4-5-1-12 1-12-5-1 3-3h2z" fill="#1F1E1F"/>
<path transform="translate(1229,1248)" d="m0 0h2l-1 5-4 16v11l3 13 3 6v3l-4-2-5-8-2-7-1-12 2-12 6-12z" fill="#1F1E1F"/>
<path transform="translate(352,1256)" d="m0 0 4 1 2 6 5 2-3 3-4-1 1 19 1 6 4 2v4l-7-2-2-3-1-6v-20l-8-1 2-2 6-1z" fill="#1F1E1F"/>
<path transform="translate(1282,1253)" d="m0 0h5v44h-5z" fill="#1F1E1F"/>
<path transform="translate(589,1256)" d="m0 0h2l1 5-1 2h7l1 4h-7l1 21 1 4 5 2v3l-7-1-3-4-1-5v-17l1-3-4 1-2-3 5-2v-6z" fill="#1F1E1F"/>
<path transform="translate(864,1256)" d="m0 0h3v7l8 1v3h-8l2 25 6 2v3h-7l-4-5v-25h-6l1-3 5-1z" fill="#1F1E1F"/>
<path transform="translate(1769,1264)" d="m0 0 5 1h2l1-1h8v3l-9 2-1 3-1 25-5-1z" fill="#1F1E1F"/>
<path transform="translate(674,1253)" d="m0 0h4l1 43-1 1h-5v-14z" fill="#1F1E1F"/>
<path transform="translate(1398,1277)" d="m0 0 4 1 8 9v4l-4 2h-7l-6-5-1-5 5-5z" fill="#FDFDFD"/>
<path transform="translate(325,1264)" d="m0 0 4 1 1 2 3-3h8l-1 3-9 3-1 7v20h-5l-1-4v-28z" fill="#1F1E1F"/>
<path transform="translate(1255,1260)" d="m0 0h2l5 12 2 8h-15l1-7z" fill="#FDFDFD"/>
<path transform="translate(1572,1280)" d="m0 0h5l-1 10-6 3h-8l-3-4 1-5 9-3z" fill="#FDFDFD"/>
<path transform="translate(642,1253)" d="m0 0h4v44h-4z" fill="#1F1E1F"/>
<path transform="translate(562,1260)" d="m0 0 3 3 5 14v3l-14 1-1-4 6-16z" fill="#FDFDFD"/>
<path transform="translate(1460,1260)" d="m0 0h2l7 18v2h-16l3-9z" fill="#FDFDFD"/>
<path transform="translate(883,1264)" d="m0 0 5 1v32h-5l-1-13v-13z" fill="#1F1E1F"/>
<path transform="translate(381,1267)" d="m0 0h6l5 4 2 6-2 1h-18l1-5 5-5z" fill="#FDFDFD"/>
<path transform="translate(626,1279)" d="m0 0 2 1-1 9-5 4h-7l-4-4 1-5 9-3z" fill="#FDFDFD"/>
<path transform="translate(844,1280)" d="m0 0 3 1-1 8-6 4h-7l-3-4 1-5 5-2z" fill="#FDFDFD"/>
<path transform="translate(1745,1267)" d="m0 0 7 1 4 5 1 4-1 1h-18l1-6z" fill="#FDFDFD"/>
<path transform="translate(1039,1263)" d="m0 0 5 2v32h-5z" fill="#1F1E1F"/>
<path transform="translate(1823,1264)" d="m0 0h4v33h-4z" fill="#1F1E1F"/>
<path transform="translate(1117,1264)" d="m0 0h4v33h-4z" fill="#1F1E1F"/>
<path transform="translate(1400,1256)" d="m0 0 7 1 2 3-1 6-5 4-4-1-3-5 1-5z" fill="#FDFDFD"/>
<path transform="translate(1688,1264)" d="m0 0h4v33h-3l-1-12z" fill="#1F1E1F"/>
<path transform="translate(1040,1251)" d="m0 0 4 1-1 7-4-1-1-6z" fill="#1F1E1F"/>
<path transform="translate(883,1252)" d="m0 0h5l-1 6-4-1-1-4z" fill="#1F1E1F"/>
</svg>
