<?xml version="1.0" encoding="UTF-8"?>
<svg version="1.1" xmlns="http://www.w3.org/2000/svg" width="400" height="200">
<path d="M0 0 C132 0 264 0 400 0 C400 66 400 132 400 200 C268 200 136 200 0 200 C0 134 0 68 0 0 Z " fill="#FEFEFE" transform="translate(0,0)"/>
<path d="M0 0 C2.05156625 -0.00217353 4.10258214 -0.02033664 6.15405273 -0.03930664 C17.76742967 -0.09158596 28.38378453 1.16230804 39.26147461 5.31030273 C40.07165039 5.61597168 40.88182617 5.92164063 41.71655273 6.23657227 C53.83431559 10.95886541 64.17611157 17.47999319 73.88647461 26.18530273 C74.59288086 26.79760742 75.29928711 27.40991211 76.02709961 28.04077148 C80.97259499 32.60659301 84.44464539 37.81113457 87.91821289 43.52587891 C89.83776421 46.92141108 89.83776421 46.92141108 92.88647461 49.18530273 C88.43615818 40.85705784 83.55424988 33.87583492 76.88647461 27.18530273 C76.23420898 26.50983398 75.58194336 25.83436523 74.90991211 25.13842773 C68.35088887 18.80732422 60.44874171 14.59614676 52.53125 10.20336914 C50.88647461 9.18530273 50.88647461 9.18530273 48.88647461 7.18530273 C63.05847074 9.53084216 77.08001407 22.06593621 85.57397461 33.18530273 C86.04641602 33.78858398 86.51885742 34.39186523 87.00561523 35.01342773 C93.88647461 43.89195596 93.88647461 43.89195596 93.88647461 47.18530273 C95.00795898 46.55301758 95.00795898 46.55301758 96.15209961 45.90795898 C97.13694336 45.36010742 98.12178711 44.81225586 99.13647461 44.24780273 C100.11100586 43.7025293 101.08553711 43.15725586 102.08959961 42.59545898 C104.4367095 41.41206978 106.2983214 40.5460409 108.88647461 40.18530273 C109.54647461 40.51530273 110.20647461 40.84530273 110.88647461 41.18530273 C109.05740154 45.75298794 105.81988923 47.59122001 101.88256836 50.30639648 C99.44303781 52.60270606 99.09613293 53.87679216 98.88647461 57.18530273 C99.04325684 57.80260254 99.20003906 58.41990234 99.36157227 59.0559082 C101.92460468 69.45347506 101.23558085 83.87317253 95.88647461 93.18530273 C95.22647461 93.84530273 94.56647461 94.50530273 93.88647461 95.18530273 C94.17388403 93.80940657 94.46665203 92.43462951 94.76147461 91.06030273 C95.00510742 89.91174805 95.00510742 89.91174805 95.25366211 88.73999023 C95.88647461 86.18530273 95.88647461 86.18530273 96.94116211 83.30639648 C97.98908832 79.84650786 98.15267928 76.98239208 98.13647461 73.37280273 C98.14163086 72.23198242 98.14678711 71.09116211 98.15209961 69.91577148 C97.83989728 65.53116522 96.94955454 61.44064945 95.88647461 57.18530273 C95.91265869 57.91007812 95.93884277 58.63485352 95.96582031 59.3815918 C96.07110571 62.73259946 96.13521288 66.08325768 96.19897461 69.43530273 C96.24086914 70.57483398 96.28276367 71.71436523 96.32592773 72.88842773 C96.53089343 87.31801289 89.90209778 100.13526116 80.01147461 110.49780273 C76.0114897 114.30170995 71.58669421 117.31294631 66.88647461 120.18530273 C77.92886786 114.75547343 85.29553739 107.52735214 91.88647461 97.18530273 C92.21647461 97.84530273 92.54647461 98.50530273 92.88647461 99.18530273 C83.27279026 115.06878122 67.98150107 125.62915203 50.06225586 130.15014648 C27.80629755 134.93099725 2.80373401 133.18304448 -18.11352539 124.18530273 C-18.84313477 123.8875293 -19.57274414 123.58975586 -20.32446289 123.28295898 C-31.46168499 118.59889265 -41.08017863 112.17026426 -50.11352539 104.18530273 C-50.7490332 103.63358398 -51.38454102 103.08186523 -52.03930664 102.51342773 C-62.25608789 93.02473894 -71.43175975 79.27512595 -72.11352539 65.18530273 C-71.78352539 65.18530273 -71.45352539 65.18530273 -71.11352539 65.18530273 C-71.0993457 63.89237305 -71.08516602 62.59944336 -71.07055664 61.26733398 C-70.73543422 46.40307942 -68.77543697 34.41074029 -58.11352539 23.18530273 C-55.84971979 21.0582963 -53.54744754 19.12250608 -51.11352539 17.18530273 C-48.59736389 25.85728261 -46.45949726 34.11315149 -46.11352539 43.18530273 C-46.0271582 44.18045898 -45.94079102 45.17561523 -45.85180664 46.20092773 C-45.1843223 58.71996728 -48.50350081 72.58308019 -54.37915039 83.66186523 C-56.55326741 87.0372258 -56.55326741 87.0372258 -55.11352539 90.18530273 C-53.16976585 92.00159049 -53.16976585 92.00159049 -50.73852539 93.81030273 C-45.9260341 97.54413219 -41.23018972 101.39380809 -36.55883789 105.30249023 C-34.45134862 106.92518964 -32.5352188 108.11525216 -30.11352539 109.18530273 C-30.02071289 108.04061523 -30.02071289 108.04061523 -29.92602539 106.87280273 C-28.76074985 101.58424453 -26.50055941 97.02739505 -24.11352539 92.18530273 C-23.59532227 91.1244043 -23.07711914 90.06350586 -22.54321289 88.97045898 C-15.51075059 75.2162711 -6.55786255 64.22215357 7.88647461 58.18530273 C8.56194336 57.83081055 9.23741211 57.47631836 9.93334961 57.11108398 C12.58891484 56.04013523 14.03352655 55.7521097 16.88647461 56.18530273 C21.76567048 59.29303176 25.76759891 63.15053774 29.88647461 67.18530273 C30.82491211 68.05928711 31.76334961 68.93327148 32.73022461 69.83374023 C45.19405059 81.73444155 51.10985784 95.23213858 53.88647461 112.18530273 C53.88647461 113.17530273 53.88647461 114.16530273 53.88647461 115.18530273 C66.52797167 108.95452089 66.52797167 108.95452089 78.88647461 102.18530273 C78.81428711 101.48147461 78.74209961 100.77764648 78.66772461 100.05249023 C77.21564594 84.60398667 76.26658413 72.87678603 86.38647461 60.37280273 C87.88168123 58.63948957 89.38152621 56.91016437 90.88647461 55.18530273 C92.22763492 53.5249279 93.56343408 51.86015177 94.88647461 50.18530273 C94.05623779 50.65371582 94.05623779 50.65371582 93.20922852 51.1315918 C90.64682332 52.57251143 88.0792194 54.0039216 85.51147461 55.43530273 C84.20629883 56.17200195 84.20629883 56.17200195 82.87475586 56.92358398 C69.79723192 64.18887506 57.04138755 68.65722156 41.87084961 65.57202148 C32.40519532 62.63663416 22.54092972 57.99479968 14.30053711 52.44311523 C11.22631509 50.84133612 9.14214619 50.95085385 5.69897461 51.12280273 C-0.18937485 51.27705335 -5.41602783 50.62575359 -11.11352539 49.18530273 C-11.11352539 48.52530273 -11.11352539 47.86530273 -11.11352539 47.18530273 C-12.41290039 46.97905273 -13.71227539 46.77280273 -15.05102539 46.56030273 C-27.89664638 43.70796799 -37.02295214 32.03802559 -43.85571289 21.49780273 C-45.11352539 19.18530273 -45.11352539 19.18530273 -45.11352539 17.18530273 C-45.77352539 17.18530273 -46.43352539 17.18530273 -47.11352539 17.18530273 C-48.3135807 15.08745043 -49.49855522 12.98327783 -50.67602539 10.87280273 C-51.18939453 9.98044922 -51.18939453 9.98044922 -51.71313477 9.07006836 C-52.59118801 7.48247714 -53.35938807 5.83536342 -54.11352539 4.18530273 C-53.78352539 3.19530273 -53.45352539 2.20530273 -53.11352539 1.18530273 C-52.77579102 1.75120117 -52.43805664 2.31709961 -52.09008789 2.90014648 C-51.64407227 3.63362305 -51.19805664 4.36709961 -50.73852539 5.12280273 C-50.29766602 5.85370117 -49.85680664 6.58459961 -49.40258789 7.33764648 C-48.23612699 9.32302546 -48.23612699 9.32302546 -46.11352539 10.18530273 C-46.11352539 10.84530273 -46.11352539 11.50530273 -46.11352539 12.18530273 C-45.07454102 11.64260742 -44.03555664 11.09991211 -42.96508789 10.54077148 C-28.49823638 3.08067697 -16.3981068 -0.001939 0 0 Z " fill="#B22215" transform="translate(176.113525390625,41.814697265625)"/>
<path d="M0 0 C5.71527291 5.71527291 5.61355729 18.20673861 6 26 C6.08765625 26.99773437 6.1753125 27.99546875 6.265625 29.0234375 C6.91987579 41.54341859 3.61084299 55.3962343 -2.265625 66.4765625 C-4.43974201 69.85192306 -4.43974201 69.85192306 -3 73 C-1.05624046 74.81628776 -1.05624046 74.81628776 1.375 76.625 C6.18749129 80.35882945 10.88333567 84.20850535 15.5546875 88.1171875 C17.66217677 89.73988691 19.5783066 90.92994943 22 92 C22.0928125 90.8553125 22.0928125 90.8553125 22.1875 89.6875 C23.35277554 84.39894179 25.61296598 79.84209232 28 75 C28.51820313 73.93910156 29.03640625 72.87820312 29.5703125 71.78515625 C36.6027748 58.03096836 45.55566284 47.03685083 60 41 C60.67546875 40.64550781 61.3509375 40.29101562 62.046875 39.92578125 C64.70244023 38.8548325 66.14705194 38.56680697 69 39 C73.87919587 42.10772903 77.8811243 45.965235 82 50 C82.9384375 50.87398437 83.876875 51.74796875 84.84375 52.6484375 C97.30757598 64.54913881 103.22338323 78.04683585 106 95 C106 95.99 106 96.98 106 98 C107.09699219 97.44570312 108.19398438 96.89140625 109.32421875 96.3203125 C110.77859187 95.58843442 112.23302196 94.85666955 113.6875 94.125 C114.40873047 93.76019531 115.12996094 93.39539063 115.87304688 93.01953125 C119.53125364 91.1820758 123.1611695 89.43861498 127 88 C127 88.66 127 89.32 127 90 C128.98 89.34 130.96 88.68 133 88 C129.89425417 96.02771728 119.44574113 101.01690754 112 104.5 C108.6944997 105.95830896 105.53863543 107.2514425 102 108 C107.32170428 107.01449921 111.3690853 105.87867671 116 103 C117.38832031 102.81824219 117.38832031 102.81824219 118.8046875 102.6328125 C128.89174241 100.6351317 136.91586502 90.66741841 142.4375 82.5 C142.953125 81.675 143.46875 80.85 144 80 C144.33 80.66 144.66 81.32 145 82 C135.38631566 97.88347848 120.09502646 108.4438493 102.17578125 112.96484375 C79.91982294 117.74569452 54.9172594 115.99774174 34 107 C33.27039063 106.70222656 32.54078125 106.40445313 31.7890625 106.09765625 C20.6518404 101.41358992 11.03334676 94.98496153 2 87 C1.36449219 86.44828125 0.72898437 85.8965625 0.07421875 85.328125 C-10.1425625 75.8394362 -19.31823436 62.08982322 -20 48 C-19.67 48 -19.34 48 -19 48 C-18.98582031 46.70707031 -18.97164063 45.41414063 -18.95703125 44.08203125 C-18.56692374 26.7789292 -14.97246307 15.02307575 -2.5625 2.4375 C-1.716875 1.633125 -0.87125 0.82875 0 0 Z " fill="#AE2113" transform="translate(124,59)"/>
<path d="M0 0 C3.89585853 0.87424595 5.59613918 1.42562017 7.93359375 4.75 C8.42988281 5.8225 8.92617187 6.895 9.4375 8 C9.95183594 9.0725 10.46617188 10.145 10.99609375 11.25 C11.32738281 12.1575 11.65867187 13.065 12 14 C11.67 14.66 11.34 15.32 11 16 C10.34 14.68 9.68 13.36 9 12 C10.03001479 15.51921721 11.26556594 18.60478707 13.125 21.75 C15 25 15 25 15 27 C15.66 27 16.32 27 17 27 C18.515625 29.125 18.515625 29.125 20.25 32 C28.36247302 44.99328328 35.9773102 52.40180027 51 57 C51 57.66 51 58.32 51 59 C56.58505763 59.7060118 61.87182792 59.97458351 67.5 59.6875 C73.40340614 59.63922448 76.60257796 60.97871831 81.40625 64.27734375 C94.35740679 72.87894035 109.13075339 77.29055636 124.5625 74.3125 C125.696875 73.879375 126.83125 73.44625 128 73 C128.90492188 72.69320312 129.80984375 72.38640625 130.7421875 72.0703125 C138.26770065 69.40234329 144.96105828 65.96436975 151.79467773 61.85913086 C153.49842376 60.85109346 155.2461844 59.91816161 157 59 C157.66 59.33 158.32 59.66 159 60 C158.50371094 60.46148437 158.00742187 60.92296875 157.49609375 61.3984375 C149.58834333 68.99107832 141.53227563 77.80496396 140.79296875 89.1875 C140.70083901 96.82589277 141.22101769 104.40492245 142 112 C141.48091064 112.28721924 140.96182129 112.57443848 140.42700195 112.87036133 C138.05499613 114.1834974 135.68374289 115.49798679 133.3125 116.8125 C132.49587891 117.26431641 131.67925781 117.71613281 130.83789062 118.18164062 C130.04189453 118.62314453 129.24589844 119.06464844 128.42578125 119.51953125 C127.65443848 119.9470166 126.8830957 120.37450195 126.08837891 120.81494141 C124.40078848 121.77257105 122.74702517 122.7896616 121.10546875 123.82421875 C119 125 119 125 116 125 C115.72027344 123.71867187 115.44054687 122.43734375 115.15234375 121.1171875 C111.27645239 104.08044765 105.65733294 91.23570293 93 79 C92.50854492 78.51950195 92.01708984 78.03900391 91.51074219 77.54394531 C85.10518525 70.91836718 85.10518525 70.91836718 77 67 C64.18219679 69.47159434 53.55407529 78.12076312 46.40942383 88.63427734 C40.1578964 98.06191022 35.52788303 108.26296468 32 119 C27.67053902 118.50849114 25.00093135 115.7069453 21.875 112.9375 C20.72362451 111.93898658 19.57126906 110.9416021 18.41796875 109.9453125 C17.8461084 109.4493457 17.27424805 108.95337891 16.68505859 108.44238281 C12.88002309 105.18533417 8.93382106 102.09910508 5 99 C5.29511475 98.28070313 5.59022949 97.56140625 5.89428711 96.8203125 C7.67201546 92.28590801 9.08953013 87.64061437 10.5625 83 C10.87896484 82.01515625 11.19542969 81.0303125 11.52148438 80.015625 C11.82505859 79.06171875 12.12863281 78.1078125 12.44140625 77.125 C12.71670166 76.26132813 12.99199707 75.39765625 13.27563477 74.5078125 C17.51178809 59.84189846 14.57156859 43.54138639 11 29 C8.26557472 29 7.68615122 29.98245579 5.75 31.875 C-4.05739444 42.00930759 -7.25767209 52.90734649 -7.59375 66.64453125 C-8.01416775 70.11702021 -8.63271627 71.50050095 -11 74 C-13.97043536 63.30160274 -11.35289173 51.56777097 -6.38671875 41.83984375 C1.8387338 28.5806331 1.8387338 28.5806331 7 26 C6.38632697 20.67220234 5.16223783 15.84119702 3.5 10.75 C3.16162109 9.69039062 3.16162109 9.69039062 2.81640625 8.609375 C1.89587441 5.73339387 0.95491332 2.86473997 0 0 Z " fill="#FDF9F9" transform="translate(114,32)"/>
<path d="M0 0 C0.99 0.495 0.99 0.495 2 1 C1.50371094 1.46148437 1.00742187 1.92296875 0.49609375 2.3984375 C-7.41165667 9.99107832 -15.46772437 18.80496396 -16.20703125 30.1875 C-16.29916099 37.82589277 -15.77898231 45.40492245 -15 53 C-15.51908936 53.28721924 -16.03817871 53.57443848 -16.57299805 53.87036133 C-18.94500387 55.1834974 -21.31625711 56.49798679 -23.6875 57.8125 C-24.50412109 58.26431641 -25.32074219 58.71613281 -26.16210938 59.18164062 C-27.35610352 59.84389648 -27.35610352 59.84389648 -28.57421875 60.51953125 C-29.34556152 60.9470166 -30.1169043 61.37450195 -30.91162109 61.81494141 C-32.59921152 62.77257105 -34.25297483 63.7896616 -35.89453125 64.82421875 C-38 66 -38 66 -41 66 C-41.27972656 64.71867187 -41.55945313 63.43734375 -41.84765625 62.1171875 C-45.72354761 45.08044765 -51.34266706 32.23570293 -64 20 C-64.49145508 19.51950195 -64.98291016 19.03900391 -65.48925781 18.54394531 C-72.00894844 12.15092909 -72.00894844 12.15092909 -80 8 C-81.6825613 6.68678142 -83.34997172 5.35386936 -85 4 C-86.31138904 3.29114106 -87.63777017 2.60543548 -89 2 C-86.625 1.125 -86.625 1.125 -83 1 C-80.47528828 2.23278717 -78.1989107 3.71677579 -75.83984375 5.2421875 C-62.41921107 13.54931914 -48.24076304 18.36225252 -32.4375 15.3125 C-31.303125 14.879375 -30.16875 14.44625 -29 14 C-28.09507812 13.69320312 -27.19015625 13.38640625 -26.2578125 13.0703125 C-18.73229935 10.40234329 -12.03894172 6.96436975 -5.20532227 2.85913086 C-3.50157624 1.85109346 -1.7538156 0.91816161 0 0 Z " fill="#FCF8F7" transform="translate(271,91)"/>
<path d="M0 0 C5.71527291 5.71527291 5.61355729 18.20673861 6 26 C6.08765625 26.99773437 6.1753125 27.99546875 6.265625 29.0234375 C6.91987579 41.54341859 3.61084299 55.3962343 -2.265625 66.4765625 C-4.43974201 69.85192306 -4.43974201 69.85192306 -3 73 C-1.05624046 74.81628776 -1.05624046 74.81628776 1.375 76.625 C6.18749129 80.35882945 10.88333567 84.20850535 15.5546875 88.1171875 C17.66217677 89.73988691 19.5783066 90.92994943 22 92 C22.0928125 90.8553125 22.0928125 90.8553125 22.1875 89.6875 C23.35277554 84.39894179 25.61296598 79.84209232 28 75 C28.51820313 73.93910156 29.03640625 72.87820312 29.5703125 71.78515625 C35.54482839 60.1001147 43.44241562 48.27078493 56 43 C57.32 43 58.64 43 60 43 C59.67 43.99 59.34 44.98 59 46 C57.06911462 46.89886044 55.1377578 47.79673382 53.203125 48.6875 C49.91773648 50.64475274 47.80962713 53.32932785 45.4453125 56.29296875 C44 58 44 58 42 59 C41.32686302 60.66406395 40.66135024 62.33121659 40 64 C38.89959805 65.69700541 37.75134693 67.36373756 36.5625 69 C32.03504016 75.25825982 29.43409779 80.28500519 27.8125 87.8125 C27.63525391 88.60076172 27.45800781 89.38902344 27.27539062 90.20117188 C26.84233745 92.13235497 26.42007432 94.06595223 26 96 C25.34 96 24.68 96 24 96 C24.33 96.99 24.66 97.98 25 99 C12.23984551 94.31075595 0.28914624 83.34093424 -7 72 C-7.58523437 71.10667969 -8.17046875 70.21335937 -8.7734375 69.29296875 C-17.39705786 55.41148703 -20.86546974 40.29869754 -17.1171875 24.2109375 C-13.62393216 14.33265917 -7.48767641 7.1224239 0 0 Z " fill="#B22012" transform="translate(124,59)"/>
<path d="M0 0 C4.9308654 2.20195134 8.58363506 5.29936909 10.671875 10.3515625 C11.74100721 16.1513682 11.02546944 21.41286158 8.0546875 26.5234375 C4.88664769 30.71169352 1.40873168 33.84051365 -3.859375 34.82421875 C-10.13720028 35.04167354 -14.29530052 33.76052695 -19.24609375 29.828125 C-23.52925752 25.77579042 -24.83328967 22.64233105 -25.015625 16.7265625 C-24.71537035 11.53215707 -24.00749057 8.2298127 -20.328125 4.3515625 C-14.13734126 -1.10222317 -8.09365076 -2.25427186 0 0 Z " fill="#FCF8F8" transform="translate(174.328125,49.6484375)"/>
<path d="M0 0 C3.49263798 2.70025536 5.6324902 5.23857803 6.546875 9.62109375 C6.8305151 15.30177458 5.99150114 19.71317119 2.609375 24.33984375 C-1.38650788 28.46181031 -5.87347499 30.18986576 -11.5625 30.5 C-16.14407988 30.25512245 -19.5293223 29.02110805 -23 26 C-26.99726069 20.97780067 -27.57261228 16.95524475 -27.328125 10.58984375 C-26.79829002 6.40793192 -25.15165422 3.61231591 -22.75 0.25 C-15.81004314 -4.70711204 -7.08183627 -3.99158044 0 0 Z " fill="#FDFAFA" transform="translate(244,72)"/>
<path d="M0 0 C0 0.99 0 1.98 0 3 C-0.66 3 -1.32 3 -2 3 C-1.84273438 3.94488281 -1.68546875 4.88976562 -1.5234375 5.86328125 C0.27030643 18.56949939 0.64236202 31.69456565 -6 43 C-6.53109375 43.95132813 -7.0621875 44.90265625 -7.609375 45.8828125 C-15.66917872 59.45138114 -28.59616498 69.89231066 -44 74 C-46.875 74.125 -46.875 74.125 -49 74 C-46.68959038 71.68959038 -44.49018052 71.06503856 -41.46875 69.96484375 C-33.00126478 66.6555576 -20.29731852 61.59463704 -16 53 C-17.98 53.66 -19.96 54.32 -22 55 C-22 54.01 -22 53.02 -22 52 C-20.68 51.34 -19.36 50.68 -18 50 C-18.0721875 49.29617187 -18.144375 48.59234375 -18.21875 47.8671875 C-19.6801421 32.31959928 -20.56543189 20.66468235 -10.4375 8.0625 C-8.98096326 6.35542912 -7.50437654 4.66506501 -6 3 C-5.47535156 2.40058594 -4.95070313 1.80117187 -4.41015625 1.18359375 C-3 0 -3 0 0 0 Z " fill="#673933" transform="translate(273,94)"/>
<path d="M0 0 C1.73438275 3.25687259 2.95102529 6.58939869 4.1875 10.0625 C12.73602216 32.30356783 31.02850658 46.89563036 52.265625 56.47265625 C74.55651452 65.10905539 102.89634113 68.41109458 125.765625 59.98046875 C127.22808357 59.31639318 128.67715328 58.62135902 130.10546875 57.88671875 C132 57 132 57 135.875 56.25 C146.38557536 53.85837207 154.64688191 44.06528925 160.4375 35.5 C160.953125 34.675 161.46875 33.85 162 33 C162.33 33.66 162.66 34.32 163 35 C153.38631566 50.88347848 138.09502646 61.4438493 120.17578125 65.96484375 C97.91982294 70.74569452 72.9172594 68.99774174 52 60 C51.27039063 59.70222656 50.54078125 59.40445313 49.7890625 59.09765625 C38.6518404 54.41358992 29.03334676 47.98496153 20 40 C19.36449219 39.44828125 18.72898437 38.8965625 18.07421875 38.328125 C7.8574375 28.8394362 -1.31823436 15.08982322 -2 1 C-1.34 0.67 -0.68 0.34 0 0 Z " fill="#C39793" transform="translate(106,106)"/>
<path d="M0 0 C3.3834812 14.19952764 0.69689609 26.72573498 -6.3125 39.3125 C-6.869375 40.199375 -7.42625 41.08625 -8 42 C-8.66 42 -9.32 42 -10 42 C-13.48580419 33.24365987 -13.6652681 21.26867862 -10.4375 12.375 C-8.85717545 9.10065848 -4.08473236 0 0 0 Z " fill="#AE1D0F" transform="translate(270,101)"/>
<path d="M0 0 C14.17199613 2.34553943 28.19353946 14.88063348 36.6875 26 C37.15994141 26.60328125 37.63238281 27.2065625 38.11914062 27.828125 C45 36.70665323 45 36.70665323 45 40 C45.74765625 39.57847656 46.4953125 39.15695313 47.265625 38.72265625 C48.25046875 38.17480469 49.2353125 37.62695312 50.25 37.0625 C51.22453125 36.51722656 52.1990625 35.97195312 53.203125 35.41015625 C55.55023489 34.22676705 57.41184679 33.36073817 60 33 C60.99 33.495 60.99 33.495 62 34 C60.17092693 38.56768521 56.93341462 40.40591728 52.99609375 43.12109375 C50.5565632 45.41740333 50.20965832 46.69148942 50 50 C50.23517334 50.92594971 50.23517334 50.92594971 50.47509766 51.87060547 C53.03813007 62.26817233 52.34910624 76.68786979 47 86 C46.34 86.66 45.68 87.32 45 88 C45.28740942 86.62410383 45.58017742 85.24932678 45.875 83.875 C46.03742188 83.10929687 46.19984375 82.34359375 46.3671875 81.5546875 C47 79 47 79 48.0546875 76.12109375 C50.61773933 67.65878627 49.99941029 55.99882058 46 48 C46.66 48 47.32 48 48 48 C48 47.01 48 46.02 48 45 C46.0745356 43.8509288 46.0745356 43.8509288 44 44 C43.01 43.67 42.02 43.34 41 43 C41.495 42.01 41.495 42.01 42 41 C42.99 41.495 42.99 41.495 44 42 C39.54968357 33.67175511 34.66777527 26.69053218 28 20 C27.34773438 19.32453125 26.69546875 18.6490625 26.0234375 17.953125 C19.46441426 11.62202149 11.5622671 7.41084403 3.64477539 3.01806641 C2 2 2 2 0 0 Z " fill="#B18480" transform="translate(225,49)"/>
<path d="M0 0 C0.96309082 -0.00064453 1.92618164 -0.00128906 2.91845703 -0.00195312 C10.91975301 0.05665467 18.61945368 0.81270064 26.5 2.1875 C26.5 2.8475 26.5 3.5075 26.5 4.1875 C17.72266655 5.43587488 8.9997267 5.23713205 0.15551758 5.09155273 C-12.56304833 4.89640257 -23.52465272 5.66588171 -35.0625 11.25 C-36.60507737 11.97089017 -38.14803021 12.69097758 -39.69140625 13.41015625 C-40.68442749 13.88594116 -40.68442749 13.88594116 -41.69750977 14.37133789 C-43.5 15.1875 -43.5 15.1875 -46.5 16.1875 C-46.5 15.5275 -46.5 14.8675 -46.5 14.1875 C-47.82 13.5275 -49.14 12.8675 -50.5 12.1875 C-50.17 11.5275 -49.84 10.8675 -49.5 10.1875 C-48.68402344 10.76564453 -48.68402344 10.76564453 -47.8515625 11.35546875 C-45.44090388 12.49352041 -45.44090388 12.49352041 -42.8359375 11.17578125 C-41.85882813 10.62277344 -40.88171875 10.06976563 -39.875 9.5 C-34.49363825 6.61900267 -29.36731596 4.76756713 -23.5 3.1875 C-22.448125 2.81625 -21.39625 2.445 -20.3125 2.0625 C-13.64792349 -0.0109238 -6.92121597 -0.00479226 0 0 Z " fill="#E4BBB7" transform="translate(176.5,37.8125)"/>
<path d="M0 0 C-0.33 0.99 -0.66 1.98 -1 3 C-2.93088538 3.89886044 -4.8622422 4.79673382 -6.796875 5.6875 C-10.08226352 7.64475274 -12.19037287 10.32932785 -14.5546875 13.29296875 C-16 15 -16 15 -18 16 C-18.67313698 17.66406395 -19.33864976 19.33121659 -20 21 C-21.10040195 22.69700541 -22.24865307 24.36373756 -23.4375 26 C-27.96495984 32.25825982 -30.56590221 37.28500519 -32.1875 44.8125 C-32.36474609 45.60076172 -32.54199219 46.38902344 -32.72460938 47.20117188 C-33.15766255 49.13235497 -33.57992568 51.06595223 -34 53 C-34.66 53 -35.32 53 -36 53 C-35.67 53.99 -35.34 54.98 -35 56 C-39.875 54.25 -39.875 54.25 -41 52 C-40.01 52 -39.02 52 -38 52 C-38 51.34 -38 50.68 -38 50 C-38.66 49.67 -39.32 49.34 -40 49 C-39.34 49 -38.68 49 -38 49 C-37.938125 48.236875 -37.87625 47.47375 -37.8125 46.6875 C-36.64722446 41.39894179 -34.38703402 36.84209232 -32 32 C-31.48179687 30.93910156 -30.96359375 29.87820312 -30.4296875 28.78515625 C-24.68360232 17.54688268 -14.47632044 0 0 0 Z " fill="#59160E" transform="translate(184,102)"/>
<path d="M0 0 C3.89585853 0.87424595 5.59613918 1.42562017 7.93359375 4.75 C8.42988281 5.8225 8.92617187 6.895 9.4375 8 C9.95183594 9.0725 10.46617188 10.145 10.99609375 11.25 C11.32738281 12.1575 11.65867187 13.065 12 14 C11.67 14.66 11.34 15.32 11 16 C10.34 14.68 9.68 13.36 9 12 C8.01 12.495 8.01 12.495 7 13 C7.20496094 13.59167969 7.40992187 14.18335938 7.62109375 14.79296875 C7.89050781 15.58316406 8.15992187 16.37335937 8.4375 17.1875 C8.70433594 17.96480469 8.97117187 18.74210937 9.24609375 19.54296875 C9.49488281 20.35378906 9.74367188 21.16460937 10 22 C10.28101562 22.83789062 10.56203125 23.67578125 10.8515625 24.5390625 C11 27 11 27 9.33984375 29.10546875 C8.54707031 29.79253906 7.75429687 30.47960937 6.9375 31.1875 C-2.49069133 40.02917865 -6.92651044 50.01584151 -7.5 62.8125 C-7.5309375 64.07707031 -7.561875 65.34164062 -7.59375 66.64453125 C-8.01416775 70.11702021 -8.63271627 71.50050095 -11 74 C-13.97043536 63.30160274 -11.35289173 51.56777097 -6.38671875 41.83984375 C1.8387338 28.5806331 1.8387338 28.5806331 7 26 C6.38632697 20.67220234 5.16223783 15.84119702 3.5 10.75 C3.16162109 9.69039062 3.16162109 9.69039062 2.81640625 8.609375 C1.89587441 5.73339387 0.95491332 2.86473997 0 0 Z " fill="#DDA6A0" transform="translate(114,32)"/>
<path d="M0 0 C4.29 0 8.58 0 13 0 C13.66 1.98 14.32 3.96 15 6 C15.33 4.35 15.66 2.7 16 1 C16.99 1 17.98 1 19 1 C19 6.28 19 11.56 19 17 C17.68 17 16.36 17 15 17 C14.34 14.69 13.68 12.38 13 10 C12.67 12.31 12.34 14.62 12 17 C11.01 17 10.02 17 9 17 C9 12.38 9 7.76 9 3 C8.01 3.495 8.01 3.495 7 4 C6.53045739 7.04581269 6.53045739 7.04581269 6.375 10.5625 C6.26285156 12.35880859 6.26285156 12.35880859 6.1484375 14.19140625 C6.09945312 15.11824219 6.05046875 16.04507813 6 17 C4.68 17 3.36 17 2 17 C2 12.71 2 8.42 2 4 C1.01 4 0.02 4 -1 4 C-0.67 2.68 -0.34 1.36 0 0 Z " fill="#FEFDFD" transform="translate(201,134)"/>
<path d="M0 0 C3.3 0 6.6 0 10 0 C10 2.64 10 5.28 10 8 C12.64 7.67 15.28 7.34 18 7 C17.34 8.65 16.68 10.3 16 12 C14.35 12 12.7 12 11 12 C11 13.65 11 15.3 11 17 C7.37 17 3.74 17 0 17 C0 11.39 0 5.78 0 0 Z " fill="#D07E76" transform="translate(183,134)"/>
<path d="M0 0 C7.03171776 0.46109625 13.68074384 1.72752806 20 5 C20.33 5.99 20.66 6.98 21 8 C22.98761791 8.7027229 24.99062692 9.36214087 27 10 C29.32063552 11.30054574 31.5294642 12.61214586 33.75 14.0625 C34.36125732 14.46025635 34.97251465 14.8580127 35.60229492 15.26782227 C47.32716105 23.07364151 59.35219726 33.83125391 65 47 C65 47.66 65 48.32 65 49 C61.18902234 47.72967411 60.85992125 46.48097549 58.875 43.0625 C46.99529188 23.85117286 28.24166617 11.20586534 6.81640625 4.97265625 C4 4 4 4 3 2 C2.01 1.34 1.02 0.68 0 0 Z " fill="#E6C1BD" transform="translate(204,42)"/>
<path d="M0 0 C3.38018638 1.12672879 4.5572011 2.48086363 7 5 C7.99 5.66 8.98 6.32 10 7 C10.99 8.485 10.99 8.485 12 10 C9.36 10.33 6.72 10.66 4 11 C8.29 11.33 12.58 11.66 17 12 C17 12.33 17 12.66 17 13 C4.06153915 13.68903046 -5.67857331 11.09615283 -17 5 C-13.5897354 2.72649027 -11.40427391 2.46907827 -7.375 1.9375 C-3.36509915 1.72626521 -3.36509915 1.72626521 0 0 Z " fill="#B1291D" transform="translate(218,95)"/>
<path d="M0 0 C1.73438275 3.25687259 2.95102529 6.58939869 4.1875 10.0625 C10.15027086 25.57610441 20.7707948 37.17661146 34 47 C27.2240438 47 23.35431146 43.0165035 18.625 38.625 C9.20827352 29.20827352 -1.33518005 16.85872587 -2.1875 2.9375 C-2.125625 2.298125 -2.06375 1.65875 -2 1 C-1.34 0.67 -0.68 0.34 0 0 Z " fill="#D2A7A3" transform="translate(106,106)"/>
<path d="M0 0 C0.66 0.33 1.32 0.66 2 1 C5.34679187 11.97004001 5.1300766 22.72644018 0.875 33.37890625 C-0.02945633 36.08823748 -0.16400944 38.16571179 0 41 C-1.485 41.495 -1.485 41.495 -3 42 C-4.27324013 43.63908062 -5.47152644 45.33703646 -6.625 47.0625 C-12.04543024 54.72072253 -18.44395494 60.98389722 -27 65 C-27.66 64.67 -28.32 64.34 -29 64 C-28.2265625 63.45472656 -27.453125 62.90945312 -26.65625 62.34765625 C-13.69781823 52.96562335 -5.12451868 42.37355604 0 27 C0.08315752 24.93501108 0.10735878 22.8674211 0.09765625 20.80078125 C0.09443359 19.59228516 0.09121094 18.38378906 0.08789062 17.13867188 C0.07951172 15.87603516 0.07113281 14.61339844 0.0625 13.3125 C0.05798828 12.03826172 0.05347656 10.76402344 0.04882812 9.45117188 C0.03702873 6.30073436 0.02056597 3.15039051 0 0 Z " fill="#D4CFCE" transform="translate(271,98)"/>
<path d="M0 0 C2.64 0 5.28 0 8 0 C10 2 10 2 10.265625 4.96875 C10.26046875 6.1340625 10.2553125 7.299375 10.25 8.5 C10.25515625 9.6653125 10.2603125 10.830625 10.265625 12.03125 C10 15 10 15 8 17 C5.36 17 2.72 17 0 17 C0 11.39 0 5.78 0 0 Z " fill="#DFA5A0" transform="translate(172,134)"/>
<path d="M0 0 C4.60063529 1.80739243 6.89734044 5.01521279 9.25 9.25 C11.06627981 15.90969263 10.41986961 21.21817384 7.16796875 27.2734375 C4.10170119 31.80618085 0.26681042 33.69687165 -5 35 C-8.02153087 35.22451003 -10.97767163 35.18889552 -14 35 C-14 34.67 -14 34.34 -14 34 C-13.34773437 33.84144531 -12.69546875 33.68289062 -12.0234375 33.51953125 C-4.65553663 31.55258426 -0.12941542 29.62000622 3.875 22.8125 C5.44525514 17.49107982 6.58366617 11.99136942 3.875 6.875 C2.64743561 5.20104856 1.32890744 3.59468893 0 2 C0 1.34 0 0.68 0 0 Z " fill="#751E15" transform="translate(179,51)"/>
<path d="M0 0 C0 0.66 0 1.32 0 2 C1.98 1.34 3.96 0.68 6 0 C4.46884297 4.13697706 1.49527938 6.27771285 -1.9375 8.8125 C-2.47568359 9.23208984 -3.01386719 9.65167969 -3.56835938 10.08398438 C-5.15234375 11.26953125 -5.15234375 11.26953125 -8 13 C-8.99 12.67 -9.98 12.34 -11 12 C-14.11227195 12 -16.94152152 12.45627049 -20 13 C-18.64579084 9.75639549 -17.44600841 8.33059726 -14.375 6.640625 C-13.66859375 6.24746094 -12.9621875 5.85429687 -12.234375 5.44921875 C-11.49703125 5.05347656 -10.7596875 4.65773437 -10 4.25 C-9.26265625 3.83878906 -8.5253125 3.42757812 -7.765625 3.00390625 C-2.29671927 0 -2.29671927 0 0 0 Z " fill="#AB1D10" transform="translate(251,147)"/>
<path d="M0 0 C2 0 2 0 4.234375 2.1640625 C5.14703125 3.09992188 6.0596875 4.03578125 7 5 C9.04334166 6.83954734 11.14384573 8.60798287 13.25 10.375 C13.81557617 10.85324219 14.38115234 11.33148438 14.96386719 11.82421875 C18.99979039 15.21759554 23.13056562 18.45296761 27.390625 21.5625 C29 23 29 23 30 26 C24.02981849 24.85263613 20.13039674 23.16641969 15.5625 19.0625 C15.01118408 18.58176025 14.45986816 18.10102051 13.8918457 17.60571289 C8.67237142 12.93509836 3.95650775 7.79674391 0 2 C0 1.34 0 0.68 0 0 Z " fill="#A53228" transform="translate(117,129)"/>
<path d="M0 0 C2.54563057 0.96558401 3.94635204 1.93868805 5.75 4 C7.89033861 9.13681267 7.62278885 14.45222742 6.3125 19.8125 C3.31502516 24.8082914 -0.58139815 27.9409313 -6 30 C-9.875 30.1875 -9.875 30.1875 -13 30 C-10.85601302 27.62224496 -9.01191882 26.45014739 -6.0625 25.25 C-2.55768765 23.52663923 -0.38832527 21.75738762 1.3828125 18.12890625 C3.18096675 11.92641215 2.6302637 5.82866435 0 0 Z " fill="#681B11" transform="translate(247,74)"/>
<path d="M0 0 C14.17199613 2.34553943 28.19353946 14.88063348 36.6875 26 C37.15994141 26.60328125 37.63238281 27.2065625 38.11914062 27.828125 C45 36.70665323 45 36.70665323 45 40 C47.31 39.01 49.62 38.02 52 37 C52 37.99 52 38.98 52 40 C48.9919792 43.0080208 46.14536674 43.5289356 42 44 C42 43.01 42 42.02 42 41 C42.99 41.495 42.99 41.495 44 42 C39.54968357 33.67175511 34.66777527 26.69053218 28 20 C27.34773438 19.32453125 26.69546875 18.6490625 26.0234375 17.953125 C19.46441426 11.62202149 11.5622671 7.41084403 3.64477539 3.01806641 C2 2 2 2 0 0 Z " fill="#D1877F" transform="translate(225,49)"/>
<path d="M0 0 C2.85815651 1.42907825 3.5496533 3.6415266 5 6.40625 C5.91759769 8.17544341 5.91759769 8.17544341 8 9 C8 9.66 8 10.32 8 11 C9.32 11.33 10.64 11.66 12 12 C11.34 12 10.68 12 10 12 C15.16536494 22.00511949 21.05350884 30.0242938 29 38 C27.515 38.495 27.515 38.495 26 39 C21.54050573 36.16214001 18.78134089 32.32487519 15.8125 28.0625 C15.37486328 27.45470703 14.93722656 26.84691406 14.48632812 26.22070312 C12.15921375 22.92721454 10.30862529 19.85276831 9 16 C8.34 16 7.68 16 7 16 C5.82558465 13.89983377 4.66035988 11.79541245 3.5 9.6875 C3.16613281 9.09259766 2.83226563 8.49769531 2.48828125 7.88476562 C0.93174886 5.04171156 0 3.29339012 0 0 Z " fill="#6F150F" transform="translate(122,43)"/>
<path d="M0 0 C2.64 0 5.28 0 8 0 C8 1.32 8 2.64 8 4 C6.68 4 5.36 4 4 4 C4 4.99 4 5.98 4 7 C5.32 7 6.64 7 8 7 C8 7.99 8 8.98 8 10 C6.68 10 5.36 10 4 10 C4 11.32 4 12.64 4 14 C5.32 14 6.64 14 8 14 C8 14.99 8 15.98 8 17 C5.36 17 2.72 17 0 17 C0 11.39 0 5.78 0 0 Z " fill="#F2DEDC" transform="translate(162,134)"/>
<path d="M0 0 C1.98 0 3.96 0 6 0 C6 5.61 6 11.22 6 17 C4.02 17 2.04 17 0 17 C0 11.39 0 5.78 0 0 Z " fill="#C55C52" transform="translate(183,134)"/>
<path d="M0 0 C0 0.99 0 1.98 0 3 C-0.99 3.495 -0.99 3.495 -2 4 C-2.96247742 5.69263271 -3.92208421 7.3870414 -4.859375 9.09375 C-6.60757754 12.01540356 -8.77074684 14.42778482 -11 17 C-12.0111222 18.32491874 -13.01663902 19.65434813 -14 21 C-14.99 20.67 -15.98 20.34 -17 20 C-15.68511433 15.18822919 -13.7815643 12.10243284 -10.5625 8.3125 C-9.38880859 6.91451172 -9.38880859 6.91451172 -8.19140625 5.48828125 C-7.46824219 4.66714844 -6.74507813 3.84601563 -6 3 C-5.47277344 2.39542969 -4.94554687 1.79085937 -4.40234375 1.16796875 C-3 0 -3 0 0 0 Z " fill="#641C14" transform="translate(273,94)"/>
<path d="M0 0 C1.28488954 2.14850383 2.03605301 3.48169093 1.85986328 6.01464844 C1.68181152 6.7059082 1.50375977 7.39716797 1.3203125 8.109375 C1.13339844 8.86347656 0.94648438 9.61757812 0.75390625 10.39453125 C0.44259766 11.56048828 0.44259766 11.56048828 0.125 12.75 C-0.07480469 13.54277344 -0.27460938 14.33554688 -0.48046875 15.15234375 C-0.97445701 17.10477355 -1.48557931 19.05285391 -2 21 C-2.66 21 -3.32 21 -4 21 C-3.67 21.99 -3.34 22.98 -3 24 C-7.875 22.25 -7.875 22.25 -9 20 C-8.01 20 -7.02 20 -6 20 C-6 19.34 -6 18.68 -6 18 C-6.66 17.67 -7.32 17.34 -8 17 C-7.34 17 -6.68 17 -6 17 C-5.938125 16.236875 -5.87625 15.47375 -5.8125 14.6875 C-4.65512209 9.43478486 -2.32802005 4.8278497 0 0 Z " fill="#81332B" transform="translate(152,134)"/>
<path d="M0 0 C10.24426111 -0.2615556 19.87937028 0.39218365 30 2 C30 2.66 30 3.32 30 4 C22.5548685 5.06584597 15.43765127 4.93902231 7.9375 4.5625 C6.20983398 4.48418945 6.20983398 4.48418945 4.44726562 4.40429688 C1.63115865 4.27576087 -1.18448692 4.1408555 -4 4 C-4 3.67 -4 3.34 -4 3 C0.95 2.67 5.9 2.34 11 2 C7.37 1.67 3.74 1.34 0 1 C0 0.67 0 0.34 0 0 Z " fill="#DA9D97" transform="translate(173,38)"/>
<path d="M0 0 C-0.99 0.33 -1.98 0.66 -3 1 C-3 1.66 -3 2.32 -3 3 C-5.93648329 4.31478326 -8.87435739 5.6264295 -11.8125 6.9375 C-12.64587891 7.31068359 -13.47925781 7.68386719 -14.33789062 8.06835938 C-15.14033203 8.42607422 -15.94277344 8.78378906 -16.76953125 9.15234375 C-17.50792236 9.48226318 -18.24631348 9.81218262 -19.00708008 10.15209961 C-21 11 -21 11 -24 12 C-24 11.34 -24 10.68 -24 10 C-25.32 9.34 -26.64 8.68 -28 8 C-27.67 7.34 -27.34 6.68 -27 6 C-26.46117188 6.38671875 -25.92234375 6.7734375 -25.3671875 7.171875 C-22.92062579 8.31092254 -22.92062579 8.31092254 -20.1953125 6.953125 C-19.18210938 6.39109375 -18.16890625 5.8290625 -17.125 5.25 C-11.49740588 2.1699357 -6.54108608 -0.38476977 0 0 Z " fill="#D9ACA8" transform="translate(154,42)"/>
<path d="M0 0 C2.64 0 5.28 0 8 0 C7.67 5.28 7.34 10.56 7 16 C5.68 16 4.36 16 3 16 C3 11.71 3 7.42 3 3 C2.01 3 1.02 3 0 3 C0 2.01 0 1.02 0 0 Z " fill="#F1DDDB" transform="translate(200,135)"/>
<path d="M0 0 C10.24482805 4.39399735 17.0363199 15.46086058 22 25 C22 25.66 22 26.32 22 27 C18.18902234 25.72967411 17.85992125 24.48097549 15.875 21.0625 C11.81035313 14.42934224 6.90819928 8.66609844 1.234375 3.34375 C0 2 0 2 0 0 Z " fill="#F3EAE9" transform="translate(247,64)"/>
<path d="M0 0 C4.60063529 1.80739243 6.89734044 5.01521279 9.25 9.25 C10.80708678 14.95931821 10.74908861 20.67364082 8 26 C7.34 25.34 6.68 24.68 6 24 C6.01160699 21.97748249 6.10841481 19.95508902 6.25 17.9375 C6.3874845 11.73694894 5.15441355 8.50052987 1.3125 3.70703125 C0 2 0 2 0 0 Z " fill="#4F0B03" transform="translate(179,51)"/>
<path d="M0 0 C-1 3 -1 3 -4.2734375 4.82421875 C-5.63566713 5.45611238 -7.00314123 6.07679335 -8.375 6.6875 C-9.06078125 7.00783203 -9.7465625 7.32816406 -10.453125 7.65820312 C-13.45700982 9.02865252 -15.66226916 10 -19 10 C-17.51494841 5.97288951 -15.3591919 4.75968585 -11.625 2.8125 C-10.19027344 2.04873047 -10.19027344 2.04873047 -8.7265625 1.26953125 C-2.89317507 -1.44658754 -2.89317507 -1.44658754 0 0 Z " fill="#6E1D15" transform="translate(250,150)"/>
<path d="M0 0 C8.2023596 1.51895548 15.09753369 5.06399694 21 11 C23.59915538 12.19027984 23.59915538 12.19027984 26 13 C21.93701031 14.3543299 20.43321116 13.14702977 16.6875 11.37890625 C2.85419735 4.28129602 2.85419735 4.28129602 0 0 Z " fill="#C3A3A0" transform="translate(135,152)"/>
<path d="M0 0 C0.99 0 1.98 0 3 0 C3 5.28 3 10.56 3 16 C1.68 16 0.36 16 -1 16 C-1.38909985 14.54536519 -1.76088029 13.08608793 -2.125 11.625 C-2.33382812 10.81289062 -2.54265625 10.00078125 -2.7578125 9.1640625 C-2.83773437 8.44992188 -2.91765625 7.73578125 -3 7 C-2.34 6.34 -1.68 5.68 -1 5 C-0.35232207 2.42938689 -0.35232207 2.42938689 0 0 Z " fill="#F8EFED" transform="translate(217,135)"/>
<path d="M0 0 C1.65 0 3.3 0 5 0 C4.01 0.495 4.01 0.495 3 1 C3 4.96 3 8.92 3 13 C3.99 13 4.98 13 6 13 C6 9.7 6 6.4 6 3 C6.33 3 6.66 3 7 3 C7 6.96 7 10.92 7 15 C4.69 15 2.38 15 0 15 C0 10.05 0 5.1 0 0 Z " fill="#F9F0EF" transform="translate(173,135)"/>
<path d="M0 0 C0.66 0.33 1.32 0.66 2 1 C-3.62548725 6.35950677 -9.09801564 10.4612135 -16 14 C-16.886875 14.556875 -17.77375 15.11375 -18.6875 15.6875 C-23.04417678 18.16020845 -26.99207341 19.29458392 -32 19 C-29.68959038 16.68959038 -27.49018052 16.06503856 -24.46875 14.96484375 C-15.19044874 11.33867221 -7.49797136 6.53584229 0 0 Z " fill="#4D4443" transform="translate(256,149)"/>
<path d="M0 0 C0.66 0 1.32 0 2 0 C2 5.61 2 11.22 2 17 C1.34 17 0.68 17 0 17 C0 16.01 0 15.02 0 14 C-1.32 14 -2.64 14 -4 14 C-4 12.68 -4 11.36 -4 10 C-2.68 10 -1.36 10 0 10 C0 9.01 0 8.02 0 7 C-1.32 7 -2.64 7 -4 7 C-4 6.01 -4 5.02 -4 4 C-2.68 4 -1.36 4 0 4 C0 2.68 0 1.36 0 0 Z " fill="#B73229" transform="translate(170,134)"/>
<path d="M0 0 C-1 3 -1 3 -2.63671875 3.9921875 C-3.65185547 4.42917969 -3.65185547 4.42917969 -4.6875 4.875 C-7.60823706 6.22787282 -9.95030454 7.63063656 -12.375 9.75 C-15 12 -15 12 -17 12 C-17.33 12.66 -17.66 13.32 -18 14 C-18.66 13.67 -19.32 13.34 -20 13 C-15.39872807 6.48153144 -8.25799583 0 0 0 Z " fill="#6B231C" transform="translate(184,102)"/>
<path d="M0 0 C0.54269531 0.40992187 1.08539063 0.81984375 1.64453125 1.2421875 C2.35996094 1.78101562 3.07539063 2.31984375 3.8125 2.875 C4.52019531 3.40867187 5.22789062 3.94234375 5.95703125 4.4921875 C7.60456297 5.70814781 9.29624211 6.86416141 11 8 C10.01 8.33 9.02 8.66 8 9 C8.66 9.33 9.32 9.66 10 10 C8.296875 11.1484375 8.296875 11.1484375 6 12 C3.640625 11.1015625 3.640625 11.1015625 1.25 9.625 C0.45078125 9.14289063 -0.3484375 8.66078125 -1.171875 8.1640625 C-1.77515625 7.77992187 -2.3784375 7.39578125 -3 7 C-2.01 6.34 -1.02 5.68 0 5 C0.25030977 2.41619823 0.25030977 2.41619823 0 0 Z " fill="#B42B1E" transform="translate(152,76)"/>
<path d="M0 0 C3.89585853 0.87424595 5.59613918 1.42562017 7.93359375 4.75 C8.42988281 5.8225 8.92617187 6.895 9.4375 8 C9.95183594 9.0725 10.46617188 10.145 10.99609375 11.25 C11.32738281 12.1575 11.65867187 13.065 12 14 C11.67 14.66 11.34 15.32 11 16 C10.34 14.68 9.68 13.36 9 12 C8.01 12.495 8.01 12.495 7 13 C3.79132231 8.77037941 1.58660981 5.09981724 0 0 Z " fill="#A47C78" transform="translate(114,32)"/>
<path d="M0 0 C0.99 0.495 0.99 0.495 2 1 C4.33431004 8.65134958 4.20349525 16.05237979 4 24 C3.34 24.33 2.68 24.66 2 25 C1.93941406 24.03320312 1.87882812 23.06640625 1.81640625 22.0703125 C1.34184845 14.69641438 0.8123926 7.34610334 0 0 Z " fill="#F1E9E7" transform="translate(271,98)"/>
<path d="M0 0 C0.99 0 1.98 0 3 0 C3 5.28 3 10.56 3 16 C2.01 16 1.02 16 0 16 C0 10.72 0 5.44 0 0 Z " fill="#F9EFED" transform="translate(184,135)"/>
<path d="M0 0 C0.99 0 1.98 0 3 0 C3 5.28 3 10.56 3 16 C2.01 16 1.02 16 0 16 C0 10.72 0 5.44 0 0 Z " fill="#F9F1F1" transform="translate(189,135)"/>
<path d="M0 0 C3.75376152 1.25125384 4.24073289 2.5652404 6 6 C6 6.66 6 7.32 6 8 C8.31 7.01 10.62 6.02 13 5 C13 5.99 13 6.98 13 8 C9.9919792 11.0080208 7.14536674 11.5289356 3 12 C3 11.01 3 10.02 3 9 C3.66 9.33 4.32 9.66 5 10 C3.35 6.7 1.7 3.4 0 0 Z " fill="#D4928B" transform="translate(264,81)"/>
<path d="M0 0 C0.33 0.66 0.66 1.32 1 2 C1.66 2 2.32 2 3 2 C4.2077558 5.62326739 3.54311128 6.64146369 2 10 C1.34 10 0.68 10 0 10 C0 9.34 0 8.68 0 8 C-1.98 8.66 -3.96 9.32 -6 10 C-6 9.01 -6 8.02 -6 7 C-4.02 6.67 -2.04 6.34 0 6 C0 4.02 0 2.04 0 0 Z " fill="#551912" transform="translate(257,139)"/>
<path d="M0 0 C-0.33 0.99 -0.66 1.98 -1 3 C-6.61 3.66 -12.22 4.32 -18 5 C-18.33 4.34 -18.66 3.68 -19 3 C-16.11723731 1.55861866 -13.24853869 1.38137536 -10.0625 0.9375 C-8.81597656 0.76089844 -7.56945312 0.58429688 -6.28515625 0.40234375 C-3 0 -3 0 0 0 Z " fill="#70130A" transform="translate(218,94)"/>
<path d="M0 0 C1.875 0.5625 1.875 0.5625 4 2 C5.84651872 6.70862273 6.39497732 10.96403922 6 16 C5.34 16.66 4.68 17.32 4 18 C3.96261719 17.26394531 3.92523438 16.52789062 3.88671875 15.76953125 C3.41024006 8.42439383 3.41024006 8.42439383 0 2 C0 1.34 0 0.68 0 0 Z " fill="#490B05" transform="translate(247,74)"/>
<path d="M0 0 C-3.67922867 2.45281911 -5.62259351 2.26823919 -10 2.25 C-11.2375 2.25515625 -12.475 2.2603125 -13.75 2.265625 C-17 2 -17 2 -20 0 C-13.09811029 -0.83854735 -6.88577812 -1.01593448 0 0 Z " fill="#AD180A" transform="translate(239,105)"/>
<path d="M0 0 C4.29 0 8.58 0 13 0 C12.01 0.33 11.02 0.66 10 1 C10 5.95 10 10.9 10 16 C10.66 16.33 11.32 16.66 12 17 C11.01 17 10.02 17 9 17 C9 12.38 9 7.76 9 3 C8.34 3 7.68 3 7 3 C7 2.34 7 1.68 7 1 C4.69 1 2.38 1 0 1 C0 0.67 0 0.34 0 0 Z " fill="#E5B7B3" transform="translate(201,134)"/>
<path d="M0 0 C0.66 0 1.32 0 2 0 C2.81756238 2.06049855 3.62884734 4.12348853 4.4375 6.1875 C5.11619141 7.91033203 5.11619141 7.91033203 5.80859375 9.66796875 C6.81093301 12.47123233 7.52012795 15.07112576 8 18 C5.17921085 15.54318365 3.8440981 12.95225315 2.3125 9.5625 C1.87550781 8.61503906 1.43851562 7.66757813 0.98828125 6.69140625 C0 4 0 4 0 0 Z " fill="#E4DFDE" transform="translate(106,110)"/>
<path d="M0 0 C0.66 0.33 1.32 0.66 2 1 C-6.27906977 10.58139535 -6.27906977 10.58139535 -9 13 C-9.66 13 -10.32 13 -11 13 C-9.74615087 9.23845262 -7.85799698 7.72808802 -5 5 C-4.071875 4.071875 -3.14375 3.14375 -2.1875 2.1875 C-1.1046875 1.1046875 -1.1046875 1.1046875 0 0 Z " fill="#9B190D" transform="translate(176,107)"/>
<path d="M0 0 C0.99 0.33 1.98 0.66 3 1 C0.64046906 3.35953094 -0.77895617 3.49141413 -4 4 C-4 4.66 -4 5.32 -4 6 C-5.65 6.66 -7.3 7.32 -9 8 C-9.66 7.01 -10.32 6.02 -11 5 C-10.37351563 4.72285156 -9.74703125 4.44570312 -9.1015625 4.16015625 C-8.28429687 3.79792969 -7.46703125 3.43570313 -6.625 3.0625 C-5.81289062 2.70285156 -5.00078125 2.34320313 -4.1640625 1.97265625 C-2.76316215 1.3430097 -1.37374716 0.68687358 0 0 Z " fill="#C2AFAD" transform="translate(240,162)"/>
<path d="M0 0 C0.33 0 0.66 0 1 0 C0.63495936 5.66442374 -0.0554321 10.00703705 -3 15 C-3.66 15 -4.32 15 -5 15 C-4.43644253 11.61865517 -3.56137699 9.03090827 -2 6 C-1.31039038 4.00779443 -0.63920943 2.00894394 0 0 Z " fill="#4B0C02" transform="translate(152,138)"/>
<path d="M0 0 C-2.05233685 2.2477975 -3.00667261 3.0022242 -6 4 C-8.33299825 4.03954234 -10.66708189 4.04401732 -13 4 C-9.23751581 -0.35656064 -5.53870938 -1.58248839 0 0 Z " fill="#782017" transform="translate(247,100)"/>
<path d="M0 0 C1.2065625 0.2475 1.2065625 0.2475 2.4375 0.5 C6.65887352 1.09247348 10.74664545 1.08506709 15 1 C15 1.33 15 1.66 15 2 C13.02 2.66 11.04 3.32 9 4 C9.66 4.66 10.32 5.32 11 6 C6.94047157 5.54894129 4.59773557 5.24716947 2 2 C1.34 1.34 0.68 0.68 0 0 Z " fill="#A0180D" transform="translate(155,83)"/>
<path d="M0 0 C2.79330042 1.39665021 3.52539945 3.62334094 4.98046875 6.27734375 C6.09359109 8.15813666 7.3349211 9.58468294 9 11 C8.01 11.495 8.01 11.495 7 12 C6.67 12.66 6.34 13.32 6 14 C4.9923048 12.2335343 3.99408286 10.46166177 3 8.6875 C2.443125 7.70136719 1.88625 6.71523438 1.3125 5.69921875 C0 3 0 3 0 0 Z " fill="#804B46" transform="translate(122,43)"/>
<path d="M0 0 C1.81495662 0.44850658 3.62693134 0.90909571 5.4375 1.375 C6.44683594 1.63023437 7.45617187 1.88546875 8.49609375 2.1484375 C11 3 11 3 12 5 C13.64363134 5.72159424 15.31050386 6.39351421 17 7 C12.84459845 8.38513385 11.05286401 6.92316917 7.23046875 5.12109375 C4.73066652 3.86462573 2.31793597 2.57021469 0 1 C0 0.67 0 0.34 0 0 Z " fill="#D08E88" transform="translate(144,158)"/>
<path d="M0 0 C2 0 2 0 4.5 2.375 C5.325 3.24125 6.15 4.1075 7 5 C7.66 5.66 8.32 6.32 9 7 C8.67 7.99 8.34 8.98 8 10 C6.84481082 9.09515208 5.70114594 8.1755794 4.5625 7.25 C3.60537109 6.48429688 3.60537109 6.48429688 2.62890625 5.703125 C0.81189446 3.80332371 0.39576803 2.56413092 0 0 Z " fill="#AC2B20" transform="translate(117,129)"/>
<path d="M0 0 C3.63 1.65 7.26 3.3 11 5 C9.02 5.99 9.02 5.99 7 7 C4.640625 6.1015625 4.640625 6.1015625 2.25 4.625 C1.45078125 4.14289063 0.6515625 3.66078125 -0.171875 3.1640625 C-0.77515625 2.77992187 -1.3784375 2.39578125 -2 2 C-1.34 1.34 -0.68 0.68 0 0 Z " fill="#992A21" transform="translate(151,81)"/>
<path d="M0 0 C-1 3 -1 3 -3.06640625 4.16796875 C-3.89011719 4.50441406 -4.71382812 4.84085937 -5.5625 5.1875 C-6.38878906 5.53167969 -7.21507812 5.87585938 -8.06640625 6.23046875 C-8.70449219 6.48441406 -9.34257812 6.73835938 -10 7 C-8.54054054 2.37837838 -8.54054054 2.37837838 -6.125 0.6875 C-4 0 -4 0 0 0 Z " fill="#56140D" transform="translate(184,102)"/>
<path d="M0 0 C3.7952131 1.49097658 5.61042731 3.75700849 8 7 C7.67 7.66 7.34 8.32 7 9 C6.34 9 5.68 9 5 9 C3.7109375 7.5390625 3.7109375 7.5390625 2.375 5.625 C1.92898437 4.99851562 1.48296875 4.37203125 1.0234375 3.7265625 C0 2 0 2 0 0 Z " fill="#6A1109" transform="translate(179,51)"/>
<path d="M0 0 C0 0.66 0 1.32 0 2 C1.98 1.34 3.96 0.68 6 0 C4.25 3.875 4.25 3.875 2 5 C2 4.34 2 3.68 2 3 C1.1028125 3.309375 1.1028125 3.309375 0.1875 3.625 C-2 4 -2 4 -5 2 C-2 0 -2 0 0 0 Z " fill="#8A251B" transform="translate(251,147)"/>
<path d="M0 0 C0.99 0 1.98 0 3 0 C3.33 1.98 3.66 3.96 4 6 C3.67 6 3.34 6 3 6 C2.67 8.97 2.34 11.94 2 15 C1.67 15 1.34 15 1 15 C0.67 10.05 0.34 5.1 0 0 Z " fill="#AF1608" transform="translate(221,136)"/>
<path d="M0 0 C-1.38081223 4.1424367 -3.59825558 5.32203099 -7 8 C-7.66 7.67 -8.32 7.34 -9 7 C-7.16766277 2.5718517 -4.96404317 0 0 0 Z " fill="#BC655D" transform="translate(285,82)"/>
<path d="M0 0 C-2.58926331 2.58926331 -4.02705279 2.37398043 -7.625 2.625 C-8.62789062 2.69976562 -9.63078125 2.77453125 -10.6640625 2.8515625 C-11.82035156 2.92503906 -11.82035156 2.92503906 -13 3 C-12 1 -12 1 -10.0390625 0.33203125 C-9.24242187 0.16058594 -8.44578125 -0.01085937 -7.625 -0.1875 C-6.43777344 -0.45626953 -6.43777344 -0.45626953 -5.2265625 -0.73046875 C-3 -1 -3 -1 0 0 Z " fill="#D79892" transform="translate(232,169)"/>
<path d="M0 0 C1.60332791 -0.08121924 3.20784026 -0.13929134 4.8125 -0.1875 C6.15248047 -0.23970703 6.15248047 -0.23970703 7.51953125 -0.29296875 C10.41647515 0.04918998 11.22555028 0.75393573 13 3 C8.17639811 3.19294408 4.50353262 2.75747614 0 1 C0 0.67 0 0.34 0 0 Z " fill="#9C2317" transform="translate(226,102)"/>
<path d="M0 0 C-2 3 -2 3 -5.125 3.6875 C-6.07375 3.790625 -7.0225 3.89375 -8 4 C-7.25 2.0625 -7.25 2.0625 -6 0 C-3.40292416 -1.05506206 -2.5386068 -1.2693034 0 0 Z " fill="#641109" transform="translate(239,156)"/>
<path d="M0 0 C2.875 1.75 2.875 1.75 3.875 4.75 C-0.03711733 3.59414715 -2.9995041 2.39465038 -6.125 -0.25 C-3.125 -1.25 -3.125 -1.25 0 0 Z " fill="#A73C32" transform="translate(207.125,99.25)"/>
<path d="M0 0 C2.40072955 2.88087546 4.47291037 5.56404834 6 9 C5.01 9 4.02 9 3 9 C0.50022457 5.66696609 0 4.26696398 0 0 Z " fill="#5E0F08" transform="translate(136,64)"/>
<path d="M0 0 C-1.11575573 3.34726719 -1.51344622 3.62079748 -4.4375 5.25 C-6.2009375 6.11625 -6.2009375 6.11625 -8 7 C-8.66 6.67 -9.32 6.34 -10 6 C-8.71283353 4.99421411 -7.42011342 3.99553202 -6.125 3 C-5.40570313 2.443125 -4.68640625 1.88625 -3.9453125 1.3125 C-2 0 -2 0 0 0 Z " fill="#C8C5C5" transform="translate(252,156)"/>
<path d="M0 0 C0.66 0.66 1.32 1.32 2 2 C1.6875 3.875 1.6875 3.875 1 6 C0.7215625 7.11375 0.7215625 7.11375 0.4375 8.25 C0.293125 8.8275 0.14875 9.405 0 10 C-0.66 9.67 -1.32 9.34 -2 9 C-2 6.36 -2 3.72 -2 1 C-1.34 0.67 -0.68 0.34 0 0 Z " fill="#712017" transform="translate(257,135)"/>
<path d="M0 0 C1.95803507 -0.05389087 3.91648909 -0.09274217 5.875 -0.125 C7.51082031 -0.15980469 7.51082031 -0.15980469 9.1796875 -0.1953125 C12 0 12 0 14 2 C10.52487282 3.15837573 8.86329714 2.77265943 5.3125 2.0625 C4.31863281 1.86785156 3.32476562 1.67320313 2.30078125 1.47265625 C1.54152344 1.31667969 0.78226563 1.16070312 0 1 C0 0.67 0 0.34 0 0 Z " fill="#B6483D" transform="translate(164,48)"/>
<path d="M0 0 C3.65316671 1.24976756 4.78065836 1.67098753 7 5 C5.68 5 4.36 5 3 5 C1.25 2.5 1.25 2.5 0 0 Z " fill="#B21D11" transform="translate(131,142)"/>
<path d="M0 0 C-1.29474635 2.58949269 -2.32663393 2.96035764 -5 4 C-7.75 4.125 -7.75 4.125 -10 4 C-9.01 3.67 -8.02 3.34 -7 3 C-7 2.34 -7 1.68 -7 1 C-4.53721199 -0.231394 -2.7204945 -0.07159196 0 0 Z " fill="#B52F24" transform="translate(246,103)"/>
<path d="M0 0 C-1.36983503 3.16115776 -1.9890638 3.9927092 -5 6 C-5.66 5.34 -6.32 4.68 -7 4 C-2.25 0 -2.25 0 0 0 Z " fill="#53160E" transform="translate(185,76)"/>
<path d="M0 0 C1.125 1.6875 1.125 1.6875 2 4 C1.125 6.75 1.125 6.75 0 9 C-0.66 9 -1.32 9 -2 9 C-1.51421457 5.87709365 -1.0013988 3.00419641 0 0 Z " fill="#DFDADA" transform="translate(270,128)"/>
<path d="M0 0 C0.33 0.66 0.66 1.32 1 2 C0.67 2.66 0.34 3.32 0 4 C-1.65 4 -3.3 4 -5 4 C-5 3.01 -5 2.02 -5 1 C-3.35 0.67 -1.7 0.34 0 0 Z " fill="#E4B4AF" transform="translate(200,141)"/>
<path d="M0 0 C0.66 0 1.32 0 2 0 C2.66 2.64 3.32 5.28 4 8 C3.34 8 2.68 8 2 8 C0.23537317 4.91190305 0 3.76687864 0 0 Z " fill="#E4CFCD" transform="translate(106,110)"/>
<path d="M0 0 C0 0.99 0 1.98 0 3 C-2.64 3.33 -5.28 3.66 -8 4 C-7.01 3.67 -6.02 3.34 -5 3 C-5 2.34 -5 1.68 -5 1 C-2 0 -2 0 0 0 Z " fill="#621008" transform="translate(193,98)"/>
<path d="M0 0 C0.99 0 1.98 0 3 0 C3 0.99 3 1.98 3 3 C2.01 3.495 2.01 3.495 1 4 C0.34 4.99 -0.32 5.98 -1 7 C-1.625 4.625 -1.625 4.625 -2 2 C-1.34 1.34 -0.68 0.68 0 0 Z " fill="#643B36" transform="translate(270,94)"/>
<path d="M0 0 C1.32 0.33 2.64 0.66 4 1 C3.67 1.66 3.34 2.32 3 3 C-0.3 3 -3.6 3 -7 3 C-7 2.67 -7 2.34 -7 2 C-4.69 2 -2.38 2 0 2 C0 1.34 0 0.68 0 0 Z " fill="#BE544B" transform="translate(182,90)"/>
<path d="M0 0 C4.42857143 5.14285714 4.42857143 5.14285714 5 9 C4.01 9.495 4.01 9.495 3 10 C0 3.375 0 3.375 0 0 Z " fill="#F2D6D3" transform="translate(119,41)"/>
</svg>
