<?xml version="1.0" encoding="UTF-8"?>
<svg version="1.1" xmlns="http://www.w3.org/2000/svg" width="400" height="200">
<path d="M0 0 C132 0 264 0 400 0 C400 66 400 132 400 200 C268 200 136 200 0 200 C0 134 0 68 0 0 Z " fill="#FDFDFE" transform="translate(0,0)"/>
<path d="M0 0 C8.03276074 4.70506013 13.7363801 11.12762295 16.81640625 19.95703125 C19.11531067 29.60086302 17.02252542 38.14994597 12.25 46.625 C11.651875 47.594375 11.05375 48.56375 10.4375 49.5625 C11.4275 50.2225 12.4175 50.8825 13.4375 51.5625 C13.4375 52.5525 13.4375 53.5425 13.4375 54.5625 C12.468125 54.830625 11.49875 55.09875 10.5 55.375 C8.9840625 55.9628125 8.9840625 55.9628125 7.4375 56.5625 C7.1075 57.5525 6.7775 58.5425 6.4375 59.5625 C4.29296875 60.9140625 4.29296875 60.9140625 1.625 62.1875 C0.75230469 62.61289063 -0.12039062 63.03828125 -1.01953125 63.4765625 C-3.21151917 64.41261879 -5.23692231 65.07461657 -7.5625 65.5625 C-8.2225 64.5725 -8.8825 63.5825 -9.5625 62.5625 C-10.0575 64.5425 -10.0575 64.5425 -10.5625 66.5625 C-12.48000286 66.47506669 -14.39656665 66.3668811 -16.3125 66.25 C-17.37984375 66.19199219 -18.4471875 66.13398438 -19.546875 66.07421875 C-22.77728929 65.52605259 -24.28227656 64.89253415 -26.5625 62.5625 C-26.5625 61.5725 -26.5625 60.5825 -26.5625 59.5625 C-28.59052611 57.8837024 -28.59052611 57.8837024 -31.1875 56.3125 C-39.66423584 50.56556045 -44.18656481 44.68024648 -46.5625 34.5625 C-47.72756498 25.36086434 -46.1692458 17.79864625 -40.90234375 10.15234375 C-30.5197533 -2.61802931 -15.17930047 -6.85950667 0 0 Z " fill="#FED86A" transform="translate(51.5625,68.4375)"/>
<path d="M0 0 C4.29 0 8.58 0 13 0 C16.15858314 7.55803822 18.66111075 15.14801466 21 23 C21.33 15.41 21.66 7.82 22 0 C26.29 0 30.58 0 35 0 C35 20.13 35 40.26 35 61 C30.38 61 25.76 61 21 61 C18.22679095 53.09635422 16.1165207 45.10116544 14 37 C13.67 44.92 13.34 52.84 13 61 C8.71 61 4.42 61 0 61 C0 40.87 0 20.74 0 0 Z " fill="#283E82" transform="translate(351,70)"/>
<path d="M0 0 C3.58552881 1.63687185 4.79315055 2.68972583 7 6 C7.20796378 8.67598554 7.30403386 11.24524625 7.30078125 13.921875 C7.30506638 14.70008606 7.3093515 15.47829712 7.31376648 16.28009033 C7.31950834 17.92760242 7.32001109 19.57513986 7.31567383 21.22265625 C7.31252887 23.72701128 7.33592097 26.23016731 7.36132812 28.734375 C7.36360284 30.33854019 7.36430381 31.94270853 7.36328125 33.546875 C7.372491 34.28879089 7.38170074 35.03070679 7.39118958 35.79510498 C7.34645472 40.89813376 6.42847476 44.48280191 4 49 C0.91479997 51.05680002 0.08726496 51.29466814 -3.4375 51.3125 C-4.19933594 51.32925781 -4.96117187 51.34601563 -5.74609375 51.36328125 C-8 51 -8 51 -12 48 C-12.33 51.3 -12.66 54.6 -13 58 C-17.95 58 -22.9 58 -28 58 C-28 39.19 -28 20.38 -28 1 C-23.05 1 -18.1 1 -13 1 C-12.67 1.66 -12.34 2.32 -12 3 C-11.505 2.505 -11.01 2.01 -10.5 1.5 C-7.04893808 -0.57063715 -3.88206186 -0.57883626 0 0 Z " fill="#293F82" transform="translate(303,80)"/>
<path d="M0 0 C0.69029297 -0.01160156 1.38058594 -0.02320312 2.09179688 -0.03515625 C8.00463316 -0.00152875 11.95416721 1.59956186 16.4375 5.375 C18.9608469 10.03348658 18.31543452 14.12660878 18.0625 19.375 C13.1125 19.375 8.1625 19.375 3.0625 19.375 C3.0625 16.405 3.0625 13.435 3.0625 10.375 C1.7425 10.705 0.4225 11.035 -0.9375 11.375 C-1.33687548 15.44862994 -1.5175665 17.60781527 1 20.9375 C3.47412343 22.90670028 5.91264871 24.60491636 8.5625 26.3125 C13.14906486 29.27083433 16.58210968 32.41421936 19.0625 37.375 C19.21394564 39.97287529 19.29386981 42.52608821 19.3125 45.125 C19.333125 45.82882813 19.35375 46.53265625 19.375 47.2578125 C19.41042455 52.02241382 18.71084115 55.2621384 16.0625 59.375 C11.11538177 63.93219759 4.51520349 63.97620475 -1.875 63.76171875 C-7.28479771 63.07859378 -10.25305554 61.07461963 -14.10546875 57.1875 C-17.45614189 52.04360947 -16.16053005 46.34105381 -15.9375 40.375 C-11.3175 40.375 -6.6975 40.375 -1.9375 40.375 C-1.6075 44.005 -1.2775 47.635 -0.9375 51.375 C0.3825 51.375 1.7025 51.375 3.0625 51.375 C3.0625 47.745 3.0625 44.115 3.0625 40.375 C1.7425 39.715 0.4225 39.055 -0.9375 38.375 C-14.44470659 29.85338023 -14.44470659 29.85338023 -16.9375 22.375 C-17.41747857 16.48149263 -17.77500671 11.17408849 -15.25 5.75 C-10.54928502 0.92223867 -6.62643238 -0.11074817 0 0 Z " fill="#2A3F83" transform="translate(96.9375,68.625)"/>
<path d="M0 0 C4.95 0 9.9 0 15 0 C15.33 13.53 15.66 27.06 16 41 C17.32 41.33 18.64 41.66 20 42 C20 28.14 20 14.28 20 0 C24.95 0 29.9 0 35 0 C35 16.83 35 33.66 35 51 C30.05 51 25.1 51 20 51 C20 50.01 20 49.02 20 48 C19.18015625 48.72703125 19.18015625 48.72703125 18.34375 49.46875 C14.25025617 52.14316597 9.71112563 51.78757419 5 51 C2.24575249 48.50806178 0.11934391 45.89644916 -0.12025452 42.08908081 C-0.11803391 41.31186676 -0.11581329 40.53465271 -0.11352539 39.73388672 C-0.11344986 38.85312469 -0.11337433 37.97236267 -0.11329651 37.06491089 C-0.10813522 36.11278717 -0.10297394 35.16066345 -0.09765625 34.1796875 C-0.0962413 33.20589142 -0.09482635 32.23209534 -0.09336853 31.22879028 C-0.08775973 28.11082927 -0.07520573 24.9929394 -0.0625 21.875 C-0.05748613 19.76432395 -0.05292303 17.65364678 -0.04882812 15.54296875 C-0.03778744 10.36195165 -0.02051689 5.1809879 0 0 Z " fill="#2C4184" transform="translate(234,80)"/>
<path d="M0 0 C8.03276074 4.70506013 13.7363801 11.12762295 16.81640625 19.95703125 C19.11531067 29.60086302 17.02252542 38.14994597 12.25 46.625 C11.651875 47.594375 11.05375 48.56375 10.4375 49.5625 C11.4275 50.2225 12.4175 50.8825 13.4375 51.5625 C13.4375 52.5525 13.4375 53.5425 13.4375 54.5625 C12.468125 54.830625 11.49875 55.09875 10.5 55.375 C8.9840625 55.9628125 8.9840625 55.9628125 7.4375 56.5625 C7.1075 57.5525 6.7775 58.5425 6.4375 59.5625 C4.29296875 60.9140625 4.29296875 60.9140625 1.625 62.1875 C0.75230469 62.61289063 -0.12039062 63.03828125 -1.01953125 63.4765625 C-3.21151917 64.41261879 -5.23692231 65.07461657 -7.5625 65.5625 C-8.2225 64.5725 -8.8825 63.5825 -9.5625 62.5625 C-10.0575 64.5425 -10.0575 64.5425 -10.5625 66.5625 C-12.48000286 66.47506669 -14.39656665 66.3668811 -16.3125 66.25 C-17.37984375 66.19199219 -18.4471875 66.13398438 -19.546875 66.07421875 C-22.77728929 65.52605259 -24.28227656 64.89253415 -26.5625 62.5625 C-26.5625 61.5725 -26.5625 60.5825 -26.5625 59.5625 C-28.59052611 57.8837024 -28.59052611 57.8837024 -31.1875 56.3125 C-39.66423584 50.56556045 -44.18656481 44.68024648 -46.5625 34.5625 C-47.72756498 25.36086434 -46.1692458 17.79864625 -40.90234375 10.15234375 C-30.5197533 -2.61802931 -15.17930047 -6.85950667 0 0 Z M-18.5625 -1.4375 C-18.8925 -0.4475 -19.2225 0.5425 -19.5625 1.5625 C-19.8925 0.9025 -20.2225 0.2425 -20.5625 -0.4375 C-21.5525 -0.1075 -22.5425 0.2225 -23.5625 0.5625 C-22.9025 1.8825 -22.2425 3.2025 -21.5625 4.5625 C-22.2225 4.5625 -22.8825 4.5625 -23.5625 4.5625 C-23.5625 5.2225 -23.5625 5.8825 -23.5625 6.5625 C-24.5525 6.8925 -25.5425 7.2225 -26.5625 7.5625 C-26.5625 8.2225 -26.5625 8.8825 -26.5625 9.5625 C-27.89583333 10.89583333 -29.22916667 12.22916667 -30.5625 13.5625 C-30.5625 14.2225 -30.5625 14.8825 -30.5625 15.5625 C-31.2225 15.5625 -31.8825 15.5625 -32.5625 15.5625 C-33.45464652 18.23893957 -33.69790211 19.81634378 -33.6875 22.5625 C-33.69007812 23.243125 -33.69265625 23.92375 -33.6953125 24.625 C-33.62881126 26.78124781 -33.62881126 26.78124781 -32.5625 29.5625 C-33.5525 29.8925 -34.5425 30.2225 -35.5625 30.5625 C-35.2325 31.2225 -34.9025 31.8825 -34.5625 32.5625 C-33.9025 32.5625 -33.2425 32.5625 -32.5625 32.5625 C-32.7275 33.696875 -32.8925 34.83125 -33.0625 36 C-33.6399391 40.5463163 -33.63404982 44.98331169 -33.5625 49.5625 C-29.2725 49.5625 -24.9825 49.5625 -20.5625 49.5625 C-20.5625 48.9025 -20.5625 48.2425 -20.5625 47.5625 C-16.5625 47.5625 -16.5625 47.5625 -13.5625 48.5625 C-13.5625 47.5725 -13.5625 46.5825 -13.5625 45.5625 C-12.9025 45.5625 -12.2425 45.5625 -11.5625 45.5625 C-11.5625 46.5525 -11.5625 47.5425 -11.5625 48.5625 C-8.27730525 49.65756492 -5.82586585 49.66210608 -2.375 49.625 C-1.28832031 49.61597656 -0.20164063 49.60695312 0.91796875 49.59765625 C2.16513672 49.58025391 2.16513672 49.58025391 3.4375 49.5625 C3.4375 50.5525 3.4375 51.5425 3.4375 52.5625 C2.28121094 52.52769531 2.28121094 52.52769531 1.1015625 52.4921875 C0.09867188 52.47414062 -0.90421875 52.45609375 -1.9375 52.4375 C-3.43410156 52.40269531 -3.43410156 52.40269531 -4.9609375 52.3671875 C-7.72512173 52.29033152 -7.72512173 52.29033152 -9.5625 54.5625 C-12.1640625 54.7578125 -12.1640625 54.7578125 -15.1875 54.6875 C-16.19039062 54.66945312 -17.19328125 54.65140625 -18.2265625 54.6328125 C-19.38285156 54.59800781 -19.38285156 54.59800781 -20.5625 54.5625 C-20.8925 53.9025 -21.2225 53.2425 -21.5625 52.5625 C-24.3784849 52.09351037 -24.3784849 52.09351037 -27.625 51.9375 C-28.72972656 51.86273438 -29.83445312 51.78796875 -30.97265625 51.7109375 C-31.82730469 51.66195312 -32.68195312 51.61296875 -33.5625 51.5625 C-32.89366985 54.59500536 -32.89366985 54.59500536 -30.85546875 55.6953125 C-30.16066406 56.02273437 -29.46585938 56.35015625 -28.75 56.6875 C-28.06292969 57.02007812 -27.37585937 57.35265625 -26.66796875 57.6953125 C-17.96883784 61.27825696 -9.42129101 59.98673485 -0.875 56.6328125 C1.62947667 55.54567274 1.62947667 55.54567274 4.4375 53.5625 C4.60681288 50.58021696 4.62460108 47.78411826 4.5 44.8125 C4.28932582 39.25428766 4.26076674 34.81376313 6.4375 29.5625 C5.4475 29.2325 4.4575 28.9025 3.4375 28.5625 C3.7675 25.5925 4.0975 22.6225 4.4375 19.5625 C3.7775 19.5625 3.1175 19.5625 2.4375 19.5625 C1.9425 16.5925 1.9425 16.5925 1.4375 13.5625 C0.7775 13.5625 0.1175 13.5625 -0.5625 13.5625 C-1.2225 12.2425 -1.8825 10.9225 -2.5625 9.5625 C1.7117558 11.1455577 3.70281794 14.06818404 6.4375 17.5625 C6.7675 16.9025 7.0975 16.2425 7.4375 15.5625 C6.9425 14.5725 6.9425 14.5725 6.4375 13.5625 C8.9125 14.0575 8.9125 14.0575 11.4375 14.5625 C10.07306634 8.93421114 5.91812708 5.8499166 1.4375 2.5625 C-2.44820078 0.29318704 -6.01577631 -0.85083852 -10.5625 -0.4375 C-10.5625 0.8825 -10.5625 2.2025 -10.5625 3.5625 C-11.8825 3.5625 -13.2025 3.5625 -14.5625 3.5625 C-13.5625 0.5625 -13.5625 0.5625 -11.5625 -1.4375 C-13.8725 -1.4375 -16.1825 -1.4375 -18.5625 -1.4375 Z " fill="#5E8868" transform="translate(51.5625,68.4375)"/>
<path d="M0 0 C6.35348241 2.68309769 11.66590999 10.58940339 14.36328125 16.80078125 C14.61851562 17.49429688 14.87375 18.1878125 15.13671875 18.90234375 C15.58144531 20.09730469 15.58144531 20.09730469 16.03515625 21.31640625 C18.5732092 29.20998379 18.43572566 36.69626524 18.13671875 44.90234375 C17.40066406 44.60585937 16.66460937 44.309375 15.90625 44.00390625 C6.58813498 40.29768843 -0.78044903 38.66171437 -10.86328125 40.90234375 C-12.90377547 42.17284015 -14.9134559 43.49665571 -16.86328125 44.90234375 C-17.52328125 44.90234375 -18.18328125 44.90234375 -18.86328125 44.90234375 C-19.65046672 30.45311712 -18.45972514 18.23593373 -8.5625 6.75 C-8.00175781 6.14027344 -7.44101563 5.53054687 -6.86328125 4.90234375 C-6.39535156 4.34417969 -5.92742187 3.78601563 -5.4453125 3.2109375 C-2.48643645 -0.13031638 -2.48643645 -0.13031638 0 0 Z " fill="#2C4284" transform="translate(159.86328125,74.09765625)"/>
<path d="M0 0 C11.22 0 22.44 0 34 0 C34 3.96 34 7.92 34 12 C30.7 12 27.4 12 24 12 C24 27.84 24 43.68 24 60 C19.05 60 14.1 60 9 60 C9 43.83 9 27.66 9 11 C6.03 11 3.06 11 0 11 C0 7.37 0 3.74 0 0 Z " fill="#263C80" transform="translate(313,70)"/>
<path d="M0 0 C5.28 0 10.56 0 16 0 C16 2.64 16 5.28 16 8 C17.32 8 18.64 8 20 8 C20 10.64 20 13.28 20 16 C18.68 16 17.36 16 16 16 C16.33 26.56 16.66 37.12 17 48 C18.32 48.33 19.64 48.66 21 49 C21 51.64 21 54.28 21 57 C18.60225255 57.13572155 16.21224755 57.23436868 13.8125 57.3125 C12.80219727 57.3753418 12.80219727 57.3753418 11.77148438 57.43945312 C8.10983304 57.52876169 6.25582036 57.18987966 3.29492188 54.9921875 C0.37457092 51.18454694 0.35583948 48.23733179 0.51171875 43.63671875 C0.51879349 42.84473587 0.52586823 42.05275299 0.53315735 41.23677063 C0.56103756 38.71936611 0.623758 36.20422644 0.6875 33.6875 C0.71259139 31.9759437 0.73540309 30.26435235 0.75585938 28.55273438 C0.81084253 24.36762346 0.89706582 20.18419504 1 16 C-0.32 16 -1.64 16 -3 16 C-3 13.36 -3 10.72 -3 8 C-2.01 8 -1.02 8 0 8 C0 5.36 0 2.72 0 0 Z " fill="#2C4184" transform="translate(121,74)"/>
<path d="M0 0 C4.95 0 9.9 0 15 0 C15 2.64 15 5.28 15 8 C16.32 8 17.64 8 19 8 C19 10.64 19 13.28 19 16 C17.68 16 16.36 16 15 16 C15 26.56 15 37.12 15 48 C16.65 48 18.3 48 20 48 C20 50.97 20 53.94 20 57 C17.77191841 57.10853983 15.54230068 57.18583307 13.3125 57.25 C12.07113281 57.29640625 10.82976562 57.3428125 9.55078125 57.390625 C5.4303313 56.93733018 3.89212108 55.89748679 1 53 C-0.58645357 49.82709287 -0.12078213 46.41174616 -0.09765625 42.9296875 C-0.09553383 41.73534592 -0.09553383 41.73534592 -0.09336853 40.51687622 C-0.08776345 37.9695462 -0.07521014 35.42230353 -0.0625 32.875 C-0.05748565 31.14974085 -0.05292263 29.42448033 -0.04882812 27.69921875 C-0.03779237 23.46611209 -0.02052436 19.23307086 0 15 C-0.99 15 -1.98 15 -3 15 C-3 12.69 -3 10.38 -3 8 C-2.01 8 -1.02 8 0 8 C0 5.36 0 2.72 0 0 Z " fill="#293F82" transform="translate(212,74)"/>
<path d="M0 0 C0 5.61 0 11.22 0 17 C-2.31 17.99 -4.62 18.98 -7 20 C-8.88631543 21.88631543 -8.24265292 25.14200693 -8.31640625 27.66015625 C-8.33718735 28.32462265 -8.35796844 28.98908905 -8.37937927 29.6736908 C-8.44493658 31.80318543 -8.50378785 33.93280668 -8.5625 36.0625 C-8.60567939 37.50326847 -8.64929349 38.94402399 -8.69335938 40.38476562 C-8.80144527 43.92304903 -8.90047093 47.46142397 -9 51 C-13.95 51 -18.9 51 -24 51 C-24 34.5 -24 18 -24 1 C-19.05 1 -14.1 1 -9 1 C-8.67 1.99 -8.34 2.98 -8 4 C-7.13375 3.01 -7.13375 3.01 -6.25 2 C-4 0 -4 0 0 0 Z " fill="#293E82" transform="translate(206,80)"/>
<path d="M0 0 C5.29158974 1.40071493 7.77478044 4.85487245 11 9 C11 8.01 11 7.02 11 6 C11.99 5.67 12.98 5.34 14 5 C14 5.66 14 6.32 14 7 C14.66 7.33 15.32 7.66 16 8 C15.34 8.99 14.68 9.98 14 11 C14.99 11 15.98 11 17 11 C17.5625 12.9375 17.5625 12.9375 18 15 C17.67 15.33 17.34 15.66 17 16 C17.66 16.33 18.32 16.66 19 17 C18.505 18.485 18.505 18.485 18 20 C17.01 19.67 16.02 19.34 15 19 C14.81824219 19.99580078 14.81824219 19.99580078 14.6328125 21.01171875 C13.77452292 25.53424459 12.96028689 29.79938524 11 34 C13.31 34 15.62 34 18 34 C18.66 32.68 19.32 31.36 20 30 C19.42365861 34.75481646 17.44931479 37.97048212 15 42 C15.99 42.66 16.98 43.32 18 44 C18 44.99 18 45.98 18 47 C17.030625 47.268125 16.06125 47.53625 15.0625 47.8125 C13.5465625 48.4003125 13.5465625 48.4003125 12 49 C11.67 49.99 11.34 50.98 11 52 C8.85546875 53.3515625 8.85546875 53.3515625 6.1875 54.625 C4.87845703 55.26308594 4.87845703 55.26308594 3.54296875 55.9140625 C1.35098083 56.85011879 -0.67442231 57.51211657 -3 58 C-3.66 57.01 -4.32 56.02 -5 55 C-5.33 56.32 -5.66 57.64 -6 59 C-7.91750286 58.91256669 -9.83406665 58.8043811 -11.75 58.6875 C-12.81734375 58.62949219 -13.8846875 58.57148438 -14.984375 58.51171875 C-18.21478929 57.96355259 -19.71977656 57.33003415 -22 55 C-22 54.01 -22 53.02 -22 52 C-24.94236782 49.78831775 -24.94236782 49.78831775 -28 48 C-27.01 47.505 -27.01 47.505 -26 47 C-24.49600962 47.58570271 -23.02028771 48.24475928 -21.5625 48.9375 C-12.54337478 52.6565933 -5.11103519 51.53368554 3.78515625 47.97265625 C5.20544523 47.34893146 6.61255533 46.69372234 8 46 C8 39.73 8 33.46 8 27 C8.66 27 9.32 27 10 27 C9.505 25.515 9.505 25.515 9 24 C9.33 23.34 9.66 22.68 10 22 C9.34 21.67 8.68 21.34 8 21 C8.04125 19.824375 8.0825 18.64875 8.125 17.4375 C8.13983635 13.27590326 7.31170778 9.93512333 6 6 C5.34 6 4.68 6 4 6 C2.61061923 4.03852126 1.2739589 2.03833424 0 0 Z " fill="#4D7A56" transform="translate(47,76)"/>
<path d="M0 0 C0.66 0.33 1.32 0.66 2 1 C1.31164062 1.70962891 1.31164062 1.70962891 0.609375 2.43359375 C-7.62847384 11.31177958 -9.56276353 18.44758323 -9.23828125 30.42578125 C-9.05693288 33.14600682 -8.81530757 35.42150694 -8 38 C-5.69 38 -3.38 38 -1 38 C-1.495 36.88625 -1.99 35.7725 -2.5 34.625 C-5.05318319 27.6528459 -5.02818028 21.54337645 -1.9375 14.75 C0.64561141 10.04398668 3.71921989 7.18960087 8 4 C8.66 4.33 9.32 4.66 10 5 C9.04882866 6.1725131 8.08882991 7.33787015 7.125 8.5 C6.59132813 9.1496875 6.05765625 9.799375 5.5078125 10.46875 C5.01023437 10.9740625 4.51265625 11.479375 4 12 C3.34 12 2.68 12 2 12 C2 16.62 2 21.24 2 26 C1.34 26.33 0.68 26.66 0 27 C0 27.66 0 28.32 0 29 C0.66 29 1.32 29 2 29 C1.67 34.61 1.34 40.22 1 46 C5.29 46 9.58 46 14 46 C14 45.34 14 44.68 14 44 C16 42.375 16 42.375 18 41 C18.33 41.99 18.66 42.98 19 44 C19.66 44.33 20.32 44.66 21 45 C21 44.01 21 43.02 21 42 C21.66 42 22.32 42 23 42 C23 42.99 23 43.98 23 45 C27.95 45.33 32.9 45.66 38 46 C38 46.99 38 47.98 38 49 C37.22914062 49.04898438 36.45828125 49.09796875 35.6640625 49.1484375 C34.66117188 49.22320312 33.65828125 49.29796875 32.625 49.375 C31.62726562 49.44460937 30.62953125 49.51421875 29.6015625 49.5859375 C26.84491121 49.76363964 26.84491121 49.76363964 25 52 C22.3984375 52.1953125 22.3984375 52.1953125 19.375 52.125 C18.37210938 52.10695312 17.36921875 52.08890625 16.3359375 52.0703125 C15.17964844 52.03550781 15.17964844 52.03550781 14 52 C13.67 51.01 13.34 50.02 13 49 C9.37 49 5.74 49 2 49 C2 49.66 2 50.32 2 51 C-4.37693484 48.12763064 -7.77483794 43.19303951 -10.375 36.8125 C-13.19984377 28.14806322 -13.16381425 19.76747606 -9.421875 11.40234375 C-6.87010023 7.09096605 -3.52045557 3.53754516 0 0 Z " fill="#447450" transform="translate(17,72)"/>
<path d="M0 0 C4.29 0 8.58 0 13 0 C13 0.33 13 0.66 13 1 C9.04 1 5.08 1 1 1 C1 1.99 1 2.98 1 4 C5.29 4 9.58 4 14 4 C14.33 3.01 14.66 2.02 15 1 C17.97 1.33 20.94 1.66 24 2 C24 2.66 24 3.32 24 4 C28.29 4 32.58 4 37 4 C37 3.01 37 2.02 37 1 C33.04 1 29.08 1 25 1 C25 0.67 25 0.34 25 0 C29.29 0 33.58 0 38 0 C38 3.96 38 7.92 38 12 C28.69912488 16.7728175 20.7513553 20.25280436 10.1640625 17.17578125 C6.48637815 15.72519901 3.29619576 14.19746384 0 12 C0.33 11.34 0.66 10.68 1 10 C2.81325551 10.11351517 4.62563357 10.24112961 6.4375 10.375 C7.44683594 10.44460937 8.45617187 10.51421875 9.49609375 10.5859375 C10.73552734 10.79089844 10.73552734 10.79089844 12 11 C12.33 11.66 12.66 12.32 13 13 C14.79133978 13.05391993 16.58313899 13.09275571 18.375 13.125 C19.37273438 13.14820312 20.37046875 13.17140625 21.3984375 13.1953125 C24.16262173 13.27216848 24.16262173 13.27216848 26 11 C28.6015625 10.8046875 28.6015625 10.8046875 31.625 10.875 C33.12933594 10.90207031 33.12933594 10.90207031 34.6640625 10.9296875 C35.43492188 10.95289062 36.20578125 10.97609375 37 11 C37 10.01 37 9.02 37 8 C36.16855469 8.01160156 35.33710937 8.02320312 34.48046875 8.03515625 C33.39378906 8.04417969 32.30710938 8.05320312 31.1875 8.0625 C30.10855469 8.07410156 29.02960937 8.08570312 27.91796875 8.09765625 C25 8 25 8 22 7 C22 6.01 22 5.02 22 4 C21.34 4 20.68 4 20 4 C20 4.99 20 5.98 20 7 C19.401875 6.649375 18.80375 6.29875 18.1875 5.9375 C15.89186786 4.66695302 15.89186786 4.66695302 13 6 C13 6.66 13 7.32 13 8 C8.71 8 4.42 8 0 8 C0 5.36 0 2.72 0 0 Z " fill="#F4F5F1" transform="translate(18,110)"/>
<path d="M0 0 C2.31 0 4.62 0 7 0 C5.515 2.475 5.515 2.475 4 5 C5.32 5 6.64 5 8 5 C8 3.68 8 2.36 8 1 C15.81335055 1.28412184 21.12006403 4.16517956 26.6796875 9.66015625 C30 13.47757768 30 13.47757768 30 16 C27.525 15.505 27.525 15.505 25 15 C25.33 16.32 25.66 17.64 26 19 C25.29875 18.2575 24.5975 17.515 23.875 16.75 C21.02281994 14.02182777 18.3236937 12.08697046 15 10 C15.495 10.45375 15.99 10.9075 16.5 11.375 C18 13 18 13 18 15 C18.66 15 19.32 15 20 15 C20.12375 15.969375 20.2475 16.93875 20.375 17.9375 C20.58125 18.948125 20.7875 19.95875 21 21 C21.66 21.33 22.32 21.66 23 22 C22.67 24.64 22.34 27.28 22 30 C22.99 30.33 23.98 30.66 25 31 C23.68 31 22.36 31 21 31 C20.67 31.99 20.34 32.98 20 34 C12 16.16600791 12 16.16600791 12 7 C11.01 7.185625 10.02 7.37125 9 7.5625 C4.82912322 8.17661683 1.14965731 7.65520905 -3 7 C-3.66 5.02 -4.32 3.04 -5 1 C-4.01 1 -3.02 1 -2 1 C-1.67 1.66 -1.34 2.32 -1 3 C-0.67 2.01 -0.34 1.02 0 0 Z " fill="#EBEDE2" transform="translate(33,67)"/>
<path d="M0 0 C2.6875 0.3125 2.6875 0.3125 5 1 C5 1.99 5 2.98 5 4 C4.030625 4.268125 3.06125 4.53625 2.0625 4.8125 C1.051875 5.204375 0.04125 5.59625 -1 6 C-1.33 6.99 -1.66 7.98 -2 9 C-4.14453125 10.3515625 -4.14453125 10.3515625 -6.8125 11.625 C-7.68519531 12.05039063 -8.55789062 12.47578125 -9.45703125 12.9140625 C-11.64901917 13.85011879 -13.67442231 14.51211657 -16 15 C-16.66 14.01 -17.32 13.02 -18 12 C-18.33 13.32 -18.66 14.64 -19 16 C-20.91750286 15.91256669 -22.83406665 15.8043811 -24.75 15.6875 C-25.81734375 15.62949219 -26.8846875 15.57148438 -27.984375 15.51171875 C-31.21478929 14.96355259 -32.71977656 14.33003415 -35 12 C-35 11.01 -35 10.02 -35 9 C-37.94236782 6.78831775 -37.94236782 6.78831775 -41 5 C-40.34 4.67 -39.68 4.34 -39 4 C-37.49600962 4.58570271 -36.02028771 5.24475928 -34.5625 5.9375 C-24.50130397 10.04821723 -16.03461169 7.87951433 -6.1875 4.38671875 C-3.29682503 3.12913344 -2.07828969 2.21684234 0 0 Z " fill="#9EB7A4" transform="translate(60,119)"/>
<path d="M0 0 C0.66 0.33 1.32 0.66 2 1 C1.01 2.485 1.01 2.485 0 4 C-0.66 3.67 -1.32 3.34 -2 3 C-2 4.32 -2 5.64 -2 7 C-0.68 6.67 0.64 6.34 2 6 C1.60167969 6.49628906 1.20335937 6.99257812 0.79296875 7.50390625 C-5.12958094 15.09802714 -7.92104117 21.29132017 -7 31 C-6.48130217 33.74422185 -5.79508856 36.31657612 -5 39 C-7.31 39 -9.62 39 -12 39 C-15.57866016 33.43160478 -14.64225166 25.38145191 -14 19 C-12.15260089 11.1568505 -6.63067349 4.42044899 0 0 Z " fill="#789A80" transform="translate(21,71)"/>
<path d="M0 0 C4.44870215 -0.39253254 7.14243493 0.84694043 11 3 C10.67 5.64 10.34 8.28 10 11 C15.445 11.495 15.445 11.495 21 12 C21 12.99 21 13.98 21 15 C16.71 15 12.42 15 8 15 C8 14.34 8 13.68 8 13 C5.03 13 2.06 13 -1 13 C-1.33 13.66 -1.66 14.32 -2 15 C-6.29 15 -10.58 15 -15 15 C-15 14.01 -15 13.02 -15 12 C-11.04 12 -7.08 12 -3 12 C-3.66 9.03 -4.32 6.06 -5 3 C-3.35 2.67 -1.7 2.34 0 2 C0 1.34 0 0.68 0 0 Z " fill="#F58B5A" transform="translate(34,99)"/>
<path d="M0 0 C2.64212539 0.26693638 3.71709846 0.66524589 5.44921875 2.71484375 C8.6650769 8.48715697 9.84847494 13.40177218 10 20 C9.319375 19.67 8.63875 19.34 7.9375 19 C2.58461513 17.17774132 -1.93867683 17.54602513 -7 20 C-6.83023462 12.60748939 -5.45399648 5.45399648 0 0 Z " fill="#F0F1F6" transform="translate(158,91)"/>
<path d="M0 0 C1.98 0.66 3.96 1.32 6 2 C6.33 1.34 6.66 0.68 7 0 C6.67 2.97 6.34 5.94 6 9 C5.34 9 4.68 9 4 9 C3.67 10.32 3.34 11.64 3 13 C4.32 12.67 5.64 12.34 7 12 C7 12.66 7 13.32 7 14 C5.68 14.33 4.36 14.66 3 15 C3.33 17.64 3.66 20.28 4 23 C-0.29 23 -4.58 23 -9 23 C-8.505 18.545 -8.505 18.545 -8 14 C-8.66 14 -9.32 14 -10 14 C-10.33 13.01 -10.66 12.02 -11 11 C-9.0625 11.75 -9.0625 11.75 -7 13 C-6.37109375 15.078125 -6.37109375 15.078125 -6 17 C-5.81824219 16.443125 -5.63648438 15.88625 -5.44921875 15.3125 C-3.75137815 10.15803009 -1.93577765 5.06989385 0 0 Z " fill="#FEDA76" transform="translate(27,87)"/>
<path d="M0 0 C0.33 0 0.66 0 1 0 C1.96405732 9.10498578 -0.91479482 16.58580407 -4 25 C-4.34289062 26.11890625 -4.68578125 27.2378125 -5.0390625 28.390625 C-6 31 -6 31 -8 32 C-10.38836006 25.28273733 -11.28795532 17.86386596 -9 11 C-8.34 11 -7.68 11 -7 11 C-6.731875 10.401875 -6.46375 9.80375 -6.1875 9.1875 C-5.01506533 7.02775192 -3.80630718 5.64209744 -2 4 C-2.33 3.34 -2.66 2.68 -3 2 C-2.01 2 -1.02 2 0 2 C0 1.34 0 0.68 0 0 Z " fill="#F8F8F4" transform="translate(28,73)"/>
<path d="M0 0 C1.65 0 3.3 0 5 0 C5 10.89 5 21.78 5 33 C3.35 33 1.7 33 0 33 C0 22.11 0 11.22 0 0 Z " fill="#E2E5EE" transform="translate(290,89)"/>
<path d="M0 0 C4.29 0 8.58 0 13 0 C13 0.33 13 0.66 13 1 C9.04 1 5.08 1 1 1 C1 1.99 1 2.98 1 4 C5.29 4 9.58 4 14 4 C14.33 3.01 14.66 2.02 15 1 C17.97 1.33 20.94 1.66 24 2 C24 2.66 24 3.32 24 4 C28.29 4 32.58 4 37 4 C37 4.33 37 4.66 37 5 C35.02 5 33.04 5 31 5 C31 5.66 31 6.32 31 7 C32.98 7 34.96 7 37 7 C37 7.33 37 7.66 37 8 C35.06257659 8.02703381 33.12504521 8.04641125 31.1875 8.0625 C30.10855469 8.07410156 29.02960937 8.08570312 27.91796875 8.09765625 C25 8 25 8 22 7 C22 6.01 22 5.02 22 4 C21.34 4 20.68 4 20 4 C20 4.99 20 5.98 20 7 C19.401875 6.649375 18.80375 6.29875 18.1875 5.9375 C15.89186786 4.66695302 15.89186786 4.66695302 13 6 C13 6.66 13 7.32 13 8 C8.71 8 4.42 8 0 8 C0 5.36 0 2.72 0 0 Z " fill="#E8E2D5" transform="translate(18,110)"/>
<path d="M0 0 C1.32 1.32 2.64 2.64 4 4 C4 3.01 4 2.02 4 1 C4.66 1 5.32 1 6 1 C6 1.99 6 2.98 6 4 C10.95 4.33 15.9 4.66 21 5 C21 5.99 21 6.98 21 8 C19.84371094 8.07347656 19.84371094 8.07347656 18.6640625 8.1484375 C17.66117188 8.22320312 16.65828125 8.29796875 15.625 8.375 C14.62726562 8.44460937 13.62953125 8.51421875 12.6015625 8.5859375 C9.84491121 8.76363964 9.84491121 8.76363964 8 11 C5.46875 11.30078125 5.46875 11.30078125 2.5 11.3125 C1.5203125 11.32925781 0.540625 11.34601563 -0.46875 11.36328125 C-1.72171875 11.18345703 -1.72171875 11.18345703 -3 11 C-5 8 -5 8 -5 5 C-4.34 5 -3.68 5 -3 5 C-3 4.34 -3 3.68 -3 3 C-1.5 1.375 -1.5 1.375 0 0 Z " fill="#F6A3A0" transform="translate(34,113)"/>
<path d="M0 0 C1.32 0 2.64 0 4 0 C4 10.56 4 21.12 4 32 C2.68 32 1.36 32 0 32 C0 21.44 0 10.88 0 0 Z " fill="#FCBB40" transform="translate(161,117)"/>
<path d="M0 0 C3.87328734 4.88371013 4.18205375 8.85404206 4.1875 14.9375 C4.19974609 15.65357422 4.21199219 16.36964844 4.22460938 17.10742188 C4.23515333 20.89973108 4.12309215 23.78599094 2 27 C-0.31 27 -2.62 27 -5 27 C-4.690625 26.071875 -4.38125 25.14375 -4.0625 24.1875 C-2.6216844 19.22128454 -2.35305964 14.13794694 -2 9 C-1.01 10.485 -1.01 10.485 0 12 C0.66 12 1.32 12 2 12 C2.33 11.34 2.66 10.68 3 10 C2.01 9.67 1.02 9.34 0 9 C0.33 7.35 0.66 5.7 1 4 C0.01 4 -0.98 4 -2 4 C-1.34 2.68 -0.68 1.36 0 0 Z " fill="#ADC1B1" transform="translate(63,83)"/>
<path d="M0 0 C1.9375 0.8125 1.9375 0.8125 4 2 C4.33 2.99 4.66 3.98 5 5 C5.66 5 6.32 5 7 5 C7.12375 5.969375 7.2475 6.93875 7.375 7.9375 C7.684375 9.4534375 7.684375 9.4534375 8 11 C8.66 11.33 9.32 11.66 10 12 C9.67 14.64 9.34 17.28 9 20 C9.99 20.33 10.98 20.66 12 21 C10.68 21 9.36 21 8 21 C7.67 21.99 7.34 22.98 7 24 C6.20558928 22.12616097 5.41460026 20.25087114 4.625 18.375 C4.18414062 17.33085938 3.74328125 16.28671875 3.2890625 15.2109375 C1.16864059 9.92915929 -0.27318716 5.73693045 0 0 Z " fill="#F6F6F0" transform="translate(46,77)"/>
<path d="M0 0 C0.66 0.33 1.32 0.66 2 1 C1.01 2.485 1.01 2.485 0 4 C-0.66 3.67 -1.32 3.34 -2 3 C-2 4.32 -2 5.64 -2 7 C-0.68 6.67 0.64 6.34 2 6 C1.60167969 6.49628906 1.20335937 6.99257812 0.79296875 7.50390625 C-2.59884975 11.85302633 -5.06315984 15.8350929 -7 21 C-8.65 20.67 -10.3 20.34 -12 20 C-11.20676271 12.1000041 -8.89274278 7.35465268 -3 2 C-2.01 1.34 -1.02 0.68 0 0 Z " fill="#789A7F" transform="translate(21,71)"/>
<path d="M0 0 C4.04015231 0.52974025 6.21717871 1.60958484 9.25 4.3125 C9.93578125 4.90675781 10.6215625 5.50101562 11.328125 6.11328125 C13.10450969 8.11793968 13.60727845 9.38378142 14 12 C11.525 11.505 11.525 11.505 9 11 C9.33 12.32 9.66 13.64 10 15 C9.278125 14.2575 8.55625 13.515 7.8125 12.75 C2.788288 7.41657023 2.788288 7.41657023 -4 6 C-3.67 5.01 -3.34 4.02 -3 3 C-2.34 3.33 -1.68 3.66 -1 4 C-0.67 2.68 -0.34 1.36 0 0 Z " fill="#BCCDBF" transform="translate(49,71)"/>
<path d="M0 0 C1.32 0.33 2.64 0.66 4 1 C3.67 2.0725 3.34 3.145 3 4.25 C1.8282249 7.99731601 1.8282249 7.99731601 2 12 C-1.96 12 -5.92 12 -10 12 C-9.67 9.36 -9.34 6.72 -9 4 C-9.99 3.67 -10.98 3.34 -12 3 C-11.67 2.34 -11.34 1.68 -11 1 C-9.02 1 -7.04 1 -5 1 C-5.99 1.495 -5.99 1.495 -7 2 C-7 3.32 -7 4.64 -7 6 C-4.69 6.33 -2.38 6.66 0 7 C-0.185625 6.401875 -0.37125 5.80375 -0.5625 5.1875 C-1 3 -1 3 0 0 Z " fill="#F7DB87" transform="translate(54,98)"/>
<path d="M0 0 C0.99 0 1.98 0 3 0 C3 0.66 3 1.32 3 2 C4.65 2.33 6.3 2.66 8 3 C8.33 3.99 8.66 4.98 9 6 C8.34 6 7.68 6 7 6 C7 7.98 7 9.96 7 12 C7.99 12.33 8.98 12.66 10 13 C10 9.7 10 6.4 10 3 C10.99 3.33 11.98 3.66 13 4 C12.98839844 4.59167969 12.97679687 5.18335937 12.96484375 5.79296875 C12.91677614 10.00231785 12.93993117 13.8922333 14 18 C13.01 17.67 12.02 17.34 11 17 C9.43881572 16.93259135 7.8749748 16.91485544 6.3125 16.9375 C5.50425781 16.94652344 4.69601563 16.95554687 3.86328125 16.96484375 C3.24839844 16.97644531 2.63351563 16.98804687 2 17 C2.33 15.68 2.66 14.36 3 13 C3.66 13 4.32 13 5 13 C5 10.69 5 8.38 5 6 C3.7934375 5.814375 3.7934375 5.814375 2.5625 5.625 C1.716875 5.41875 0.87125 5.2125 0 5 C-0.33 4.34 -0.66 3.68 -1 3 C-0.67 2.01 -0.34 1.02 0 0 Z " fill="#FED96D" transform="translate(28,83)"/>
<path d="M0 0 C1.98 0.495 1.98 0.495 4 1 C4 1.99 4 2.98 4 4 C7.07322544 4.91058531 9.80097361 5.08886184 13 5 C13.33 5.99 13.66 6.98 14 8 C13.34 8 12.68 8 12 8 C12.0721875 8.68707031 12.144375 9.37414062 12.21875 10.08203125 C12.3115625 10.98308594 12.404375 11.88414063 12.5 12.8125 C12.5928125 13.70582031 12.685625 14.59914063 12.78125 15.51953125 C13 18 13 18 13 21 C12.34 21 11.68 21 11 21 C10.1276588 18.00519083 9.89170234 15.36424089 9.9375 12.25 C9.94652344 11.45078125 9.95554687 10.6515625 9.96484375 9.828125 C9.97644531 9.22484375 9.98804688 8.6215625 10 8 C9.34 7.67 8.68 7.34 8 7 C8.33 10.3 8.66 13.6 9 17 C7.68 17 6.36 17 5 17 C3.72648692 14.45297384 4.19808075 13.5717055 4.9375 10.875 C5.13214844 10.15054688 5.32679687 9.42609375 5.52734375 8.6796875 C5.76130859 7.84824219 5.76130859 7.84824219 6 7 C4.35 6.67 2.7 6.34 1 6 C1 5.34 1 4.68 1 4 C0.34 4 -0.32 4 -1 4 C-0.67 2.68 -0.34 1.36 0 0 Z " fill="#FFD24F" transform="translate(30,79)"/>
<path d="M0 0 C0.99 0 1.98 0 3 0 C3 9.9 3 19.8 3 30 C2.01 30 1.02 30 0 30 C0 20.1 0 10.2 0 0 Z " fill="#FCB228" transform="translate(154,117)"/>
<path d="M0 0 C4.44870215 -0.39253254 7.14243493 0.84694043 11 3 C10.67 5.64 10.34 8.28 10 11 C9.67 11 9.34 11 9 11 C9 9.35 9 7.7 9 6 C8.01 6.33 7.02 6.66 6 7 C6 6.34 6 5.68 6 5 C5.34 5 4.68 5 4 5 C4 4.34 4 3.68 4 3 C0.67098753 5.21934164 0.24976756 6.34683329 -1 10 C-3.0625 8.25 -3.0625 8.25 -5 6 C-4.75 3.75 -4.75 3.75 -4 2 C-2.68 2 -1.36 2 0 2 C0 1.34 0 0.68 0 0 Z " fill="#F69E98" transform="translate(34,99)"/>
<path d="M0 0 C1.32 0 2.64 0 4 0 C4 0.99 4 1.98 4 3 C3.030625 3.268125 2.06125 3.53625 1.0625 3.8125 C0.051875 4.204375 -0.95875 4.59625 -2 5 C-2.33 5.99 -2.66 6.98 -3 8 C-5.14453125 9.3515625 -5.14453125 9.3515625 -7.8125 10.625 C-8.68519531 11.05039063 -9.55789062 11.47578125 -10.45703125 11.9140625 C-12.64901917 12.85011879 -14.67442231 13.51211657 -17 14 C-17.33 12.68 -17.66 11.36 -18 10 C-16.56445975 9.49440092 -15.1264798 8.9957251 -13.6875 8.5 C-12.88699219 8.2215625 -12.08648437 7.943125 -11.26171875 7.65625 C-9 7 -9 7 -6 7 C-5.67 6.01 -5.34 5.02 -5 4 C-3.66666667 3.66666667 -2.33333333 3.33333333 -1 3 C-0.67 2.01 -0.34 1.02 0 0 Z " fill="#719579" transform="translate(61,120)"/>
<path d="M0 0 C1.65 0 3.3 0 5 0 C6.20272819 2.40545638 6.10071472 3.94996953 6.0625 6.625 C6.05347656 7.44226563 6.04445313 8.25953125 6.03515625 9.1015625 C6.02355469 9.72804688 6.01195313 10.35453125 6 11 C4.34385343 11.38218767 2.67542976 11.71395102 1 12 C0 11 0 11 -0.09765625 8.49609375 C-0.08605469 7.48675781 -0.07445313 6.47742188 -0.0625 5.4375 C-0.05347656 4.42558594 -0.04445313 3.41367188 -0.03515625 2.37109375 C-0.02355469 1.58863281 -0.01195313 0.80617188 0 0 Z " fill="#EEEFF5" transform="translate(95,109)"/>
<path d="M0 0 C1.98 0 3.96 0 6 0 C6 0.66 6 1.32 6 2 C10.29 2 14.58 2 19 2 C19 2.33 19 2.66 19 3 C17.02 3 15.04 3 13 3 C13 3.66 13 4.32 13 5 C14.98 5 16.96 5 19 5 C19 5.33 19 5.66 19 6 C17.06257659 6.02703381 15.12504521 6.04641125 13.1875 6.0625 C12.10855469 6.07410156 11.02960937 6.08570312 9.91796875 6.09765625 C7 6 7 6 4 5 C4 4.01 4 3.02 4 2 C3.34 2 2.68 2 2 2 C2 2.99 2 3.98 2 5 C1.01 4.67 0.02 4.34 -1 4 C-0.67 2.68 -0.34 1.36 0 0 Z " fill="#E2CEC2" transform="translate(36,112)"/>
<path d="M0 0 C2.4375 1.375 2.4375 1.375 4 3 C4 3.66 4 4.32 4 5 C-0.95 5.33 -5.9 5.66 -11 6 C-11.33 5.01 -11.66 4.02 -12 3 C-7.90914193 0.0248305 -5.02638169 -0.54833255 0 0 Z " fill="#3B4F8D" transform="translate(163,108)"/>
<path d="M0 0 C2.1519437 3.22791555 2.20086443 4.28400809 2 8 C5.05263664 8.98120464 6.94736336 8.98120464 10 8 C9.01 9.485 9.01 9.485 8 11 C5.46875 11.3984375 5.46875 11.3984375 2.5 11.375 C1.5203125 11.38273437 0.540625 11.39046875 -0.46875 11.3984375 C-1.3040625 11.26695313 -2.139375 11.13546875 -3 11 C-5 8 -5 8 -5 5 C-4.34 5 -3.68 5 -3 5 C-3 4.34 -3 3.68 -3 3 C-1.5 1.375 -1.5 1.375 0 0 Z " fill="#EE8582" transform="translate(34,113)"/>
<path d="M0 0 C0.33 0.66 0.66 1.32 1 2 C1.66 2.33 2.32 2.66 3 3 C2.01 4.485 2.01 4.485 1 6 C1.99 6 2.98 6 4 6 C4.5625 7.9375 4.5625 7.9375 5 10 C4.67 10.33 4.34 10.66 4 11 C4.66 11.33 5.32 11.66 6 12 C5.67 12.99 5.34 13.98 5 15 C4.01 14.67 3.02 14.34 2 14 C1.67 16.64 1.34 19.28 1 22 C0.67 22 0.34 22 0 22 C-0.06058594 21.07058594 -0.12117188 20.14117187 -0.18359375 19.18359375 C-0.79571552 10.05853115 -0.79571552 10.05853115 -2 1 C-1.34 0.67 -0.68 0.34 0 0 Z " fill="#73977B" transform="translate(60,81)"/>
<path d="M0 0 C0 0.99 0 1.98 0 3 C-0.66 3 -1.32 3 -2 3 C-2 3.66 -2 4.32 -2 5 C-2.99 5 -3.98 5 -5 5 C-5.33 5.99 -5.66 6.98 -6 8 C-7.65 8 -9.3 8 -11 8 C-11.33 8.66 -11.66 9.32 -12 10 C-12.33 8.68 -12.66 7.36 -13 6 C-12.38125 5.7525 -11.7625 5.505 -11.125 5.25 C-8.62181694 3.77753937 -8.16954719 2.58971163 -7 0 C-4.3333581 -1.33332095 -2.83319697 -0.67102033 0 0 Z " fill="#85A48C" transform="translate(30,70)"/>
<path d="M0 0 C0.33 0 0.66 0 1 0 C1 2.97 1 5.94 1 9 C4.63 9 8.26 9 12 9 C12 9.99 12 10.98 12 12 C10.02090602 12.02686553 8.04171029 12.04633375 6.0625 12.0625 C4.96035156 12.07410156 3.85820312 12.08570312 2.72265625 12.09765625 C0 12 0 12 -1 11 C-1.09823996 9.52351124 -1.12973519 8.04224583 -1.125 6.5625 C-1.12757812 5.75941406 -1.13015625 4.95632812 -1.1328125 4.12890625 C-1 2 -1 2 0 0 Z " fill="#168F48" transform="translate(17,109)"/>
<path d="M0 0 C0.66 0.33 1.32 0.66 2 1 C1.04882866 2.1725131 0.08882991 3.33787015 -0.875 4.5 C-1.67550781 5.47453125 -1.67550781 5.47453125 -2.4921875 6.46875 C-2.98976563 6.9740625 -3.48734375 7.479375 -4 8 C-4.66 8 -5.32 8 -6 8 C-6.185625 9.2684375 -6.185625 9.2684375 -6.375 10.5625 C-7.02770327 14.15236798 -7.95247463 17.50824875 -9 21 C-9.33 21 -9.66 21 -10 21 C-11.13463064 16.11236031 -11.56442841 13.20465737 -8.9375 8.8125 C-6.3994738 5.19795145 -3.53120419 2.62787288 0 0 Z " fill="#3A6C45" transform="translate(25,76)"/>
<path d="M0 0 C3.16115776 1.36983503 3.9927092 1.9890638 6 5 C7.65204456 5.70211894 9.31923769 6.36971413 11 7 C11.66 7.66 12.32 8.32 13 9 C12.67 9.66 12.34 10.32 12 11 C7.39163524 9.68332435 3.77237287 7.98280646 0 5 C-0.9375 2.8125 -0.9375 2.8125 -1 1 C-0.67 0.67 -0.34 0.34 0 0 Z " fill="#84A28A" transform="translate(11,120)"/>
<path d="M0 0 C0.33 0 0.66 0 1 0 C1.33 2.64 1.66 5.28 2 8 C1.01 8.495 1.01 8.495 0 9 C0 9.66 0 10.32 0 11 C0.66 11 1.32 11 2 11 C2 13.64 2 16.28 2 19 C0.47700477 16.06279492 -0.80100302 13.0831351 -2 10 C-2.66 10.66 -3.32 11.32 -4 12 C-4 8.7 -4 5.4 -4 2 C-3.34 2 -2.68 2 -2 2 C-1.67 2.99 -1.34 3.98 -1 5 C-0.67 3.35 -0.34 1.7 0 0 Z " fill="#628966" transform="translate(17,90)"/>
<path d="M0 0 C5.85864704 1.55081833 8.96595597 5.91151842 12.16796875 10.7734375 C13.36344555 13.97260077 13.18795248 16.85056583 13.125 20.25 C13.10695313 21.51328125 13.08890625 22.7765625 13.0703125 24.078125 C13.04710937 25.04234375 13.02390625 26.0065625 13 27 C12.67 27 12.34 27 12 27 C11.87882812 26.03578125 11.75765625 25.0715625 11.6328125 24.078125 C11.46523438 22.81484375 11.29765625 21.5515625 11.125 20.25 C10.88136719 18.37054688 10.88136719 18.37054688 10.6328125 16.453125 C10.0918518 13.50121598 9.62835474 11.48474871 8 9 C7.34 8.67 6.68 8.34 6 8 C6 7.34 6 6.68 6 6 C5.34 6 4.68 6 4 6 C2.61061923 4.03852126 1.2739589 2.03833424 0 0 Z " fill="#195629" transform="translate(47,76)"/>
<path d="M0 0 C2.31 0.33 4.62 0.66 7 1 C7 1.33 7 1.66 7 2 C5.02 2 3.04 2 1 2 C1 2.99 1 3.98 1 5 C2.65 5 4.3 5 6 5 C6 5.66 6 6.32 6 7 C6.5775 7.103125 7.155 7.20625 7.75 7.3125 C10.32049158 8.09792798 11.93657284 9.30504197 14 11 C12.54364629 11.22174933 11.08477044 11.42698698 9.625 11.625 C8.81289063 11.74101563 8.00078125 11.85703125 7.1640625 11.9765625 C6.44992188 11.98429687 5.73578125 11.99203125 5 12 C4.34 11.34 3.68 10.68 3 10 C3.66 9.67 4.32 9.34 5 9 C3.68 8.01 2.36 7.02 1 6 C0.67 6.66 0.34 7.32 0 8 C0 5.36 0 2.72 0 0 Z " fill="#FEDC7B" transform="translate(29,73)"/>
<path d="M0 0 C2.64 0.33 5.28 0.66 8 1 C7.34 2.65 6.68 4.3 6 6 C5.34 6 4.68 6 4 6 C3.71125 6.639375 3.4225 7.27875 3.125 7.9375 C2 10 2 10 0 11 C0 7.37 0 3.74 0 0 Z " fill="#70967A" transform="translate(56,110)"/>
<path d="M0 0 C0.66 0.33 1.32 0.66 2 1 C1.01 2.485 1.01 2.485 0 4 C-0.66 3.67 -1.32 3.34 -2 3 C-2 4.32 -2 5.64 -2 7 C-0.68 6.67 0.64 6.34 2 6 C1.60167969 6.50789063 1.20335937 7.01578125 0.79296875 7.5390625 C-2.28566175 11.53903498 -4.91595614 15.36879143 -7 20 C-7.33 19.01 -7.66 18.02 -8 17 C-7.484375 16.05125 -6.96875 15.1025 -6.4375 14.125 C-4.63599887 11.09931911 -4.63599887 11.09931911 -5.8125 8.125 C-6.204375 7.42375 -6.59625 6.7225 -7 6 C-4.69 4.02 -2.38 2.04 0 0 Z " fill="#DCE4DD" transform="translate(21,71)"/>
<path d="M0 0 C0.99 0 1.98 0 3 0 C3 5.28 3 10.56 3 16 C2.01 16 1.02 16 0 16 C0 10.72 0 5.44 0 0 Z " fill="#FBB126" transform="translate(148,121)"/>
<path d="M0 0 C1.98 0.66 3.96 1.32 6 2 C6.33 1.34 6.66 0.68 7 0 C6.67 2.97 6.34 5.94 6 9 C4.68 9.33 3.36 9.66 2 10 C0.39644899 6.49223216 -0.22036864 3.85645121 0 0 Z " fill="#FFD459" transform="translate(27,87)"/>
<path d="M0 0 C0 1.32 0 2.64 0 4 C-4.95 4 -9.9 4 -15 4 C-15 3.01 -15 2.02 -15 1 C-9.94997778 -0.03590199 -5.12583611 -0.10251672 0 0 Z " fill="#FFD14D" transform="translate(45,74)"/>
<path d="M0 0 C0.33 0.99 0.66 1.98 1 3 C-2.96 3 -6.92 3 -11 3 C-11 1.68 -11 0.36 -11 -1 C-6.65621014 -2.01018369 -3.941316 -2.25218057 0 0 Z " fill="#FDCE38" transform="translate(55,107)"/>
<path d="M0 0 C3.7874305 4.77545584 4.11799367 8.13869036 4.0625 14.1875 C4.05347656 15.45980469 4.04445313 16.73210937 4.03515625 18.04296875 C4.02355469 19.01878906 4.01195313 19.99460937 4 21 C2 18 2 18 2.375 15.8125 C2.58125 15.214375 2.7875 14.61625 3 14 C2.34 13.67 1.68 13.34 1 13 C1.66 12.01 2.32 11.02 3 10 C2.01 9.67 1.02 9.34 0 9 C0.33 7.35 0.66 5.7 1 4 C0.01 4 -0.98 4 -2 4 C-1.34 2.68 -0.68 1.36 0 0 Z " fill="#F0F3F0" transform="translate(63,83)"/>
<path d="M0 0 C0.33 1.32 0.66 2.64 1 4 C0.01 4.495 0.01 4.495 -1 5 C-1 5.99 -1 6.98 -1 8 C0.32 8.33 1.64 8.66 3 9 C3 12.63 3 16.26 3 20 C2.34 18.68 1.68 17.36 1 16 C0.34 15.67 -0.32 15.34 -1 15 C-0.34 15 0.32 15 1 15 C1.33 13.35 1.66 11.7 2 10 C-1.0745356 10.7763932 -1.0745356 10.7763932 -3 13 C-2.88490339 11.58249437 -2.75746342 10.16598831 -2.625 8.75 C-2.55539063 7.96109375 -2.48578125 7.1721875 -2.4140625 6.359375 C-1.98492887 3.914123 -1.21399362 2.15163097 0 0 Z " fill="#DDE5DF" transform="translate(10,83)"/>
<path d="M0 0 C1.010625 0.33 2.02125 0.66 3.0625 1 C6.75479911 2.07001321 10.15248207 2.15704155 14 2 C14 2.99 14 3.98 14 5 C12.2507786 5.08142927 10.50045458 5.13938541 8.75 5.1875 C7.77546875 5.22230469 6.8009375 5.25710937 5.796875 5.29296875 C2.62531258 4.96075202 1.32959693 4.11327721 -1 2 C-0.67 1.34 -0.34 0.68 0 0 Z " fill="#6F9377" transform="translate(26,129)"/>
<path d="M0 0 C3.69201633 0.62532991 6.0558684 2.25621825 9.0625 4.4375 C9.91972656 5.05496094 10.77695312 5.67242187 11.66015625 6.30859375 C12.81837891 7.14583984 12.81837891 7.14583984 14 8 C14.99 8.66 15.98 9.32 17 10 C16.34 10 15.68 10 15 10 C15.33 11.32 15.66 12.64 16 14 C15.01 14 14.02 14 13 14 C12.773125 13.21625 12.54625 12.4325 12.3125 11.625 C10.64331808 8.28663616 9.39365605 8.29282135 6 7 C3.8125 4.5 3.8125 4.5 2 2 C1.34 1.34 0.68 0.68 0 0 Z " fill="#DCE4DE" transform="translate(11,119)"/>
<path d="M0 0 C0.99 0 1.98 0 3 0 C3 4.29 3 8.58 3 13 C2.01 13 1.02 13 0 13 C0 8.71 0 4.42 0 0 Z " fill="#FBB227" transform="translate(168,121)"/>
<path d="M0 0 C3.96 0 7.92 0 12 0 C12 0.99 12 1.98 12 3 C7.71 3 3.42 3 -1 3 C-0.67 2.01 -0.34 1.02 0 0 Z " fill="#FBA734" transform="translate(43,111)"/>
<path d="M0 0 C3.00617269 3.00617269 2.59585316 5.82381598 3 10 C1.68 10 0.36 10 -1 10 C-1.66 8.02 -2.32 6.04 -3 4 C-2.34 3.67 -1.68 3.34 -1 3 C-1.99 2.67 -2.98 2.34 -4 2 C-2.68 1.34 -1.36 0.68 0 0 Z " fill="#FFD55C" transform="translate(47,87)"/>
<path d="M0 0 C1.9375 0.75 1.9375 0.75 4 2 C4.75 4.125 4.75 4.125 5 6 C5.66 5.34 6.32 4.68 7 4 C9.625 4.375 9.625 4.375 12 5 C11.67 6.32 11.34 7.64 11 9 C8.36 8.67 5.72 8.34 3 8 C3 6.35 3 4.7 3 3 C2.34 3 1.68 3 1 3 C0.67 2.01 0.34 1.02 0 0 Z " fill="#E3D07F" transform="translate(16,98)"/>
<path d="M0 0 C1.65 0.33 3.3 0.66 5 1 C5 2.65 5 4.3 5 6 C2.03 6 -0.94 6 -4 6 C-3.67 5.01 -3.34 4.02 -3 3 C-2.34 3.33 -1.68 3.66 -1 4 C-0.67 2.68 -0.34 1.36 0 0 Z " fill="#98B199" transform="translate(49,71)"/>
<path d="M0 0 C3.63 0 7.26 0 11 0 C11 0.99 11 1.98 11 3 C7.37 3 3.74 3 0 3 C0 2.01 0 1.02 0 0 Z " fill="#1E914C" transform="translate(44,118)"/>
<path d="M0 0 C0 2.31 0 4.62 0 7 C-1.65 6.67 -3.3 6.34 -5 6 C-5 4.68 -5 3.36 -5 2 C-5.66 1.34 -6.32 0.68 -7 0 C-4.3333581 -1.33332095 -2.83319697 -0.67102033 0 0 Z " fill="#F16F6F" transform="translate(43,105)"/>
<path d="M0 0 C0.33 0.66 0.66 1.32 1 2 C1.66 2.33 2.32 2.66 3 3 C-4.42857143 6.28571429 -4.42857143 6.28571429 -8 7 C-8.33 5.68 -8.66 4.36 -9 3 C-6.03 2.01 -3.06 1.02 0 0 Z " fill="#789A7F" transform="translate(52,127)"/>
<path d="M0 0 C2.64 0.33 5.28 0.66 8 1 C8.33 1.99 8.66 2.98 9 4 C5.7 4 2.4 4 -1 4 C-0.67 2.68 -0.34 1.36 0 0 Z " fill="#FDC81B" transform="translate(19,106)"/>
<path d="M0 0 C3 3.75 3 3.75 3 6 C0.69 6 -1.62 6 -4 6 C-4.33 4.35 -4.66 2.7 -5 1 C-3.35 0.67 -1.7 0.34 0 0 Z " fill="#E3EAE4" transform="translate(13,104)"/>
<path d="M0 0 C1.65 0 3.3 0 5 0 C5 2.31 5 4.62 5 7 C3.125 6.75 3.125 6.75 1 6 C-0.3125 4.0625 -0.3125 4.0625 -1 2 C-0.67 1.34 -0.34 0.68 0 0 Z " fill="#71967A" transform="translate(10,111)"/>
<path d="M0 0 C2.5 1.8125 2.5 1.8125 5 4 C5 4.99 5 5.98 5 7 C2.69 7 0.38 7 -2 7 C-1.34 4.69 -0.68 2.38 0 0 Z " fill="#DAE3DC" transform="translate(60,103)"/>
<path d="M0 0 C1.32 0.66 2.64 1.32 4 2 C3.34 3.98 2.68 5.96 2 8 C1.67 7.34 1.34 6.68 1 6 C0.01 6 -0.98 6 -2 6 C-1.125 1.125 -1.125 1.125 0 0 Z " fill="#95B09A" transform="translate(13,78)"/>
<path d="M0 0 C1.98 0.495 1.98 0.495 4 1 C3.67 2.32 3.34 3.64 3 5 C2.01 5 1.02 5 0 5 C0 6.32 0 7.64 0 9 C0.66 9 1.32 9 2 9 C1 11 1 11 -1 12 C-1.14285714 3.42857143 -1.14285714 3.42857143 0 0 Z " fill="#A5BCAA" transform="translate(8,92)"/>
<path d="M0 0 C1.65 0.33 3.3 0.66 5 1 C4.01 1.495 4.01 1.495 3 2 C2.34786708 4.02463255 2.34786708 4.02463255 2 6 C0.35 5.67 -1.3 5.34 -3 5 C-3 4.34 -3 3.68 -3 3 C-2.34 3 -1.68 3 -1 3 C-0.67 2.01 -0.34 1.02 0 0 Z " fill="#EFF2ED" transform="translate(46,69)"/>
<path d="M0 0 C3 1 3 1 4.1875 2.8125 C5 5 5 5 5 9 C4.01 9 3.02 9 2 9 C1.34 6.03 0.68 3.06 0 0 Z " fill="#FDD483" transform="translate(26,101)"/>
<path d="M0 0 C1.32 0 2.64 0 4 0 C4.625 1.875 4.625 1.875 5 4 C4.34 4.66 3.68 5.32 3 6 C1.68 5.01 0.36 4.02 -1 3 C-0.67 2.01 -0.34 1.02 0 0 Z " fill="#92AD98" transform="translate(62,102)"/>
<path d="M0 0 C0.33 0 0.66 0 1 0 C1.33 3.63 1.66 7.26 2 11 C1.01 11 0.02 11 -1 11 C-1.0270043 9.54176788 -1.04639787 8.08339325 -1.0625 6.625 C-1.07410156 5.81289062 -1.08570313 5.00078125 -1.09765625 4.1640625 C-1 2 -1 2 0 0 Z " fill="#6F987B" transform="translate(17,109)"/>
<path d="M0 0 C0.99 0.33 1.98 0.66 3 1 C3 4.63 3 8.26 3 12 C2.34 12 1.68 12 1 12 C-0.3271261 8.0186217 -0.06915913 4.14954773 0 0 Z " fill="#FFDB79" transform="translate(38,86)"/>
<path d="M0 0 C4.41889613 1.35021826 6.34345343 3.26115668 9 7 C8.01 7.33 7.02 7.66 6 8 C6 7.34 6 6.68 6 6 C5.34 6 4.68 6 4 6 C2.61061923 4.03852126 1.2739589 2.03833424 0 0 Z " fill="#336840" transform="translate(47,76)"/>
<path d="M0 0 C0.66 0 1.32 0 2 0 C2 0.99 2 1.98 2 3 C3.32 3.33 4.64 3.66 6 4 C6 4.66 6 5.32 6 6 C4.68 5.67 3.36 5.34 2 5 C1.67 5.66 1.34 6.32 1 7 C0.67 4.69 0.34 2.38 0 0 Z " fill="#F27A79" transform="translate(38,114)"/>
<path d="M0 0 C2.50298434 2.93828597 3.46930939 5.17902761 4 9 C2.68 8.01 1.36 7.02 0 6 C0.33 5.34 0.66 4.68 1 4 C0.01 4 -0.98 4 -2 4 C-1.34 2.68 -0.68 1.36 0 0 Z " fill="#DBE4DD" transform="translate(63,83)"/>
<path d="M0 0 C1.65 0 3.3 0 5 0 C4.67 1.32 4.34 2.64 4 4 C2.68 4.33 1.36 4.66 0 5 C0 3.35 0 1.7 0 0 Z " fill="#A5BBA9" transform="translate(41,68)"/>
<path d="M0 0 C1.98 0.495 1.98 0.495 4 1 C3.6875 2.9375 3.6875 2.9375 3 5 C2.01 5.33 1.02 5.66 0 6 C-1 3 -1 3 0 0 Z " fill="#98B19D" transform="translate(54,98)"/>
<path d="M0 0 C0.33 1.32 0.66 2.64 1 4 C-1.31 4 -3.62 4 -6 4 C-5.67 3.01 -5.34 2.02 -5 1 C-2 0 -2 0 0 0 Z " fill="#FFD766" transform="translate(29,98)"/>
</svg>
