<?xml version="1.0" encoding="UTF-8"?>
<svg version="1.1" xmlns="http://www.w3.org/2000/svg" width="400" height="200">
<path d="M0 0 C132 0 264 0 400 0 C400 66 400 132 400 200 C268 200 136 200 0 200 C0 134 0 68 0 0 Z " fill="#FEFDFD" transform="translate(0,0)"/>
<path d="M0 0 C6.62813529 2.09232946 12.85743604 4.96172097 19.16015625 7.85766602 C20.55729819 8.49600972 21.95774341 9.12717084 23.36132812 9.7512207 C25.39968917 10.65787266 27.42694693 11.58602567 29.453125 12.51953125 C30.08019348 12.79368362 30.70726196 13.067836 31.35333252 13.35029602 C34.23479701 14.70626022 35.79896555 15.63259096 37.34667969 18.46118164 C37.56227539 19.2989917 37.77787109 20.13680176 38 21 C38.185625 21.68658691 38.37125 22.37317383 38.5625 23.08056641 C38.706875 23.74749512 38.85125 24.41442383 39 25.1015625 C39.2475 26.20757812 39.2475 26.20757812 39.5 27.3359375 C39.8349623 28.86943676 40.16828023 30.40329607 40.5 31.9375 C41.2899109 35.45507197 41.97936633 37.9690495 44 41 C47.63 34.07 51.26 27.14 55 20 C55.66 20 56.32 20 57 20 C60.63 26.93 64.26 33.86 68 41 C70.89349799 38.10650201 71.16553886 34.62894047 72 30.75 C72.33060657 29.24419041 72.66389568 27.73896701 73 26.234375 C73.144375 25.56631836 73.28875 24.89826172 73.4375 24.20996094 C73.7159375 23.11603027 73.7159375 23.11603027 74 22 C74.19464844 21.00766357 74.38929688 20.01532715 74.58984375 18.99291992 C76.55301841 14.82627205 79.53841574 13.66179294 83.5625 11.87890625 C84.30959229 11.52988754 85.05668457 11.18086884 85.82641602 10.8212738 C87.40223807 10.08990516 88.98271741 9.36849892 90.56738281 8.65649414 C93.00107349 7.56201723 95.4188897 6.43732989 97.8359375 5.30664062 C99.36896117 4.59975861 100.90278958 3.89461866 102.4375 3.19140625 C103.16461182 2.85508682 103.89172363 2.5187674 104.64086914 2.17225647 C106.40088512 1.38626272 108.19811899 0.68459275 110 0 C110.99 0.495 110.99 0.495 112 1 C87.90949884 39.28017136 87.90949884 39.28017136 77.59643555 54.5871582 C73.18140794 61.16723845 68.97645048 67.88041546 64.76171875 74.58984375 C64.30200684 75.31929199 63.84229492 76.04874023 63.36865234 76.80029297 C62.4320171 78.30565929 61.51114373 79.82091603 60.60400391 81.34423828 C60.16362793 82.07755371 59.72325195 82.81086914 59.26953125 83.56640625 C58.87999268 84.22713135 58.4904541 84.88785645 58.08911133 85.56860352 C57.72970459 86.04096436 57.37029785 86.5133252 57 87 C56.34 87 55.68 87 55 87 C53.5307395 84.884391 52.19476511 82.77037371 50.875 80.5625 C49.97031853 79.08237348 49.06395427 77.60327469 48.15625 76.125 C47.65480469 75.30644531 47.15335938 74.48789063 46.63671875 73.64453125 C43.60612382 68.74784206 40.48606622 63.90830127 37.375 59.0625 C35.99083943 56.90367532 34.60672554 54.7448207 33.22265625 52.5859375 C32.52543457 51.49893555 31.82821289 50.41193359 31.10986328 49.29199219 C29.02744167 46.04281688 26.94860582 42.79137876 24.87109375 39.5390625 C23.51830345 37.42182753 22.1654397 35.3046395 20.8125 33.1875 C20.15685059 32.16148682 19.50120117 31.13547363 18.82568359 30.07836914 C13.86732185 22.3299265 8.86189077 14.61292608 3.80786133 6.92651367 C3.05218872 5.77179565 3.05218872 5.77179565 2.28125 4.59375 C1.83845703 3.92021484 1.39566406 3.24667969 0.93945312 2.55273438 C0 1 0 1 0 0 Z " fill="#BF2227" transform="translate(137,18)"/>
<path d="M0 0 C4.76528551 0.52887741 9.53005722 1.06211531 14.29443359 1.59912109 C15.90986442 1.78061213 17.52542168 1.96098202 19.14111328 2.14013672 C27.65680777 3.08515179 36.11903929 4.06603513 44.54663086 5.64331055 C47.01970894 6.00286544 49.31892386 6.01641064 51.8125 5.9375 C59.00603665 6.61225145 64.43500152 12.04413484 69.89794922 16.36474609 C73.54395422 19.20109238 77.30760474 21.87303786 81.0625 24.5625 C82.59393628 25.66640829 84.12518879 26.77057157 85.65625 27.875 C94.57359854 34.2936169 103.52089301 40.6680638 112.5 47 C124.11185572 55.19092474 135.67584117 63.4135499 147 72 C146.01 72.495 146.01 72.495 145 73 C142.6487189 71.97972747 140.42539648 70.89612041 138.16015625 69.70703125 C136.69822178 68.95756731 135.23613777 68.20839502 133.77392578 67.45947266 C132.99639954 67.05794983 132.21887329 66.656427 131.41778564 66.24273682 C127.31423498 64.13352027 123.18510586 62.07554204 119.05859375 60.01171875 C117.31422872 59.13708582 115.56992628 58.26232805 113.82568359 57.38745117 C98.81024389 49.86188399 83.78568076 42.38012635 68.60546875 35.19140625 C62.4682116 32.28322473 56.40201899 29.2385749 50.33886719 26.1796875 C45.33332937 23.65497365 40.32379599 21.13826284 35.3125 18.625 C34.20680664 18.06981689 33.10111328 17.51463379 31.96191406 16.94262695 C23.78143032 12.85059374 15.54606215 8.88813405 7.23364258 5.07080078 C6.42306396 4.69294434 5.61248535 4.31508789 4.77734375 3.92578125 C4.06827881 3.60005127 3.35921387 3.27432129 2.62866211 2.9387207 C1 2 1 2 0 0 Z " fill="#F38925" transform="translate(39,30)"/>
<path d="M0 0 C-1.37092978 2.74185956 -3.28350559 3.06360771 -6.01611328 4.17431641 C-9.23768115 5.51511662 -12.32593392 7.1116436 -15.4375 8.6875 C-16.13286865 9.03707764 -16.8282373 9.38665527 -17.54467773 9.74682617 C-20.34040123 11.15240743 -23.1339107 12.56234616 -25.92675781 13.97363281 C-35.30121738 18.70756284 -44.73709297 23.29734572 -54.22875977 27.79223633 C-59.65143927 30.36804533 -65.04131665 33.00409216 -70.40869141 35.69311523 C-71.10566698 36.04195487 -71.80264256 36.39079451 -72.5207386 36.75020504 C-78.52642904 39.75821257 -84.52374622 42.78269533 -90.51925659 45.81092834 C-95.42470105 48.28820605 -100.33423901 50.75733643 -105.24416924 53.22570896 C-108.95964776 55.09400047 -112.67352124 56.96536174 -116.38427734 58.84301758 C-120.01725519 60.68114799 -123.65402541 62.51155631 -127.29361343 64.3365612 C-128.6721823 65.02954076 -130.04933991 65.72533517 -131.42504501 66.42398262 C-133.33036554 67.39105256 -135.2403693 68.34816769 -137.15185547 69.30297852 C-138.23610809 69.84954605 -139.32036072 70.39611359 -140.43746948 70.95924377 C-141.28310455 71.30269333 -142.12873962 71.64614288 -143 72 C-143.66 71.67 -144.32 71.34 -145 71 C-140.73099418 67.50260231 -136.29331349 64.27909778 -131.8125 61.0625 C-130.19398572 59.89716972 -128.57549684 58.73180415 -126.95703125 57.56640625 C-126.13283691 56.97359863 -125.30864258 56.38079102 -124.45947266 55.77001953 C-120.63601471 53.01837469 -116.81814108 50.25901501 -113 47.5 C-111.50003009 46.41662501 -110.00003 45.33329179 -108.5 44.25 C-107.7575 43.71375 -107.015 43.1775 -106.25 42.625 C-99.5 37.75 -99.5 37.75 -97.24829102 36.1237793 C-95.75397045 35.04453876 -94.25966696 33.96527458 -92.76538086 32.88598633 C-88.9286279 30.11483531 -85.09154488 27.34414313 -81.25390625 24.57421875 C-80.08674072 23.72996338 -80.08674072 23.72996338 -78.89599609 22.86865234 C-77.34992416 21.7547947 -75.7994985 20.64695354 -74.24462891 19.54541016 C-71.10167468 17.30967211 -68.12448021 15.11343905 -65.26953125 12.51171875 C-56.9681836 5.10415404 -46.76569357 5.23378872 -36.14648438 4.30322266 C-31.19821594 3.82636439 -26.29121889 3.10512719 -21.375 2.375 C-20.08843506 2.18973755 -20.08843506 2.18973755 -18.77587891 2.00073242 C-15.38374691 1.51095391 -12.00271875 1.00046886 -8.625 0.41796875 C-5.7155371 -0.04529394 -2.94119986 -0.07002857 0 0 Z " fill="#F38823" transform="translate(347,30)"/>
<path d="M0 0 C-14.45254144 12.5498259 -28.97846836 25.00738625 -43.60449219 37.35449219 C-45.21584484 38.71508114 -46.82680129 40.07613696 -48.4375 41.4375 C-48.96980225 41.88730225 -49.50210449 42.33710449 -50.05053711 42.80053711 C-54.6894734 46.7258981 -59.29486533 50.68972261 -63.90112305 54.65332031 C-67.47492143 57.71928679 -71.090425 60.72375968 -74.75 63.6875 C-79.99913631 67.94608607 -85.02041553 72.43088019 -90 77 C-90.66 76.67 -91.32 76.34 -92 76 C-91.6690332 75.54375244 -91.33806641 75.08750488 -90.99707031 74.61743164 C-84.95113845 66.27774896 -78.92499197 57.92616866 -73 49.5 C-67.73574765 42.01908238 -62.42556082 34.57352273 -57.0234375 27.19140625 C-55.14347182 24.61509191 -53.33493127 22.01673848 -51.6015625 19.33984375 C-46.35272331 11.54238048 -42.13070189 8.91131871 -33 7 C-31.6358009 6.68098316 -30.27256044 6.35784724 -28.91015625 6.03125 C-26.7358439 5.51239678 -24.5612292 4.99971408 -22.38037109 4.5090332 C-16.63814116 3.21104324 -11.11476091 1.53527935 -5.5390625 -0.36328125 C-3 -1 -3 -1 0 0 Z " fill="#F06A2D" transform="translate(290,25)"/>
<path d="M0 0 C11.13824731 2.38676728 22.17140575 5.23180124 33.1875 8.125 C34.37730469 8.43695313 35.56710938 8.74890625 36.79296875 9.0703125 C42.95508634 10.8566511 45.60815504 12.22201848 49.5 17.5 C49.9223291 18.06750977 50.3446582 18.63501953 50.77978516 19.21972656 C52.19968115 21.13717542 53.60060493 23.0675465 55 25 C56.03899617 26.42192347 57.07806071 27.84379698 58.1171875 29.265625 C64.02472098 37.38067288 69.83491866 45.56390434 75.59423828 53.78466797 C78.08115438 57.32422057 80.60260324 60.82997394 83.1953125 64.29296875 C83.70819824 64.97979736 84.22108398 65.66662598 84.74951172 66.37426758 C85.72656812 67.67706244 86.70968241 68.97534306 87.69970703 70.26831055 C91 74.67012987 91 74.67012987 91 78 C90.11699219 77.23816406 89.23398438 76.47632812 88.32421875 75.69140625 C82.78444107 70.92184013 77.24440145 66.16295193 71.5625 61.5625 C65.21723119 56.40813208 59.07490552 51.02637235 52.90966797 45.65966797 C44.98028406 38.76834199 36.99554673 31.9626099 28.83984375 25.33984375 C24.94185724 22.12816023 21.1169828 18.83445599 17.29248047 15.53588867 C12.30023591 11.23620584 7.23110911 7.03643004 2.1328125 2.86328125 C1.42898437 2.24839844 0.72515625 1.63351563 0 1 C0 0.67 0 0.34 0 0 Z " fill="#F0692D" transform="translate(96,24)"/>
<path d="M0 0 C2.97 0 5.94 0 9 0 C10.65 4.29 12.3 8.58 14 13 C16.31 8.71 18.62 4.42 21 0 C22.98 0 24.96 0 27 0 C29.18326108 4.27113698 31.31326082 8.50202887 33 13 C35.18326108 8.72886302 37.31326082 4.49797113 39 0 C41.97 0 44.94 0 48 0 C45.97713776 6.36120202 43.6230975 12.41996011 40.875 18.5 C40.51535156 19.30953125 40.15570313 20.1190625 39.78515625 20.953125 C37.1381079 26.8618921 37.1381079 26.8618921 36 28 C34.35 28 32.7 28 31 28 C28.69 23.38 26.38 18.76 24 14 C21.69 18.62 19.38 23.24 17 28 C15.02 28 13.04 28 11 28 C9.42885366 24.3357646 7.86239884 20.66956379 6.30029297 17.00146484 C5.76805615 15.75351727 5.23453322 14.5061174 4.69970703 13.25927734 C3.93185131 11.46856372 3.16897715 9.67571657 2.40625 7.8828125 C1.94541016 6.80402832 1.48457031 5.72524414 1.00976562 4.61376953 C0 2 0 2 0 0 Z " fill="#BF252A" transform="translate(206,111)"/>
<path d="M0 0 C2.64 0 5.28 0 8 0 C8.84026396 1.76755526 9.67198722 3.53917263 10.5 5.3125 C10.9640625 6.29863281 11.428125 7.28476563 11.90625 8.30078125 C13 11 13 11 13 14 C13.66 14 14.32 14 15 14 C15.0825 13.360625 15.165 12.72125 15.25 12.0625 C16.29520372 7.79458483 18.14091826 3.96892333 20 0 C22.31 0 24.62 0 27 0 C27.83764268 1.95649397 28.66999059 3.91525556 29.5 5.875 C29.9640625 6.96554688 30.428125 8.05609375 30.90625 9.1796875 C32 12 32 12 32 14 C32.66 14 33.32 14 34 14 C34.0825 13.360625 34.165 12.72125 34.25 12.0625 C35.29520372 7.79458483 37.14091826 3.96892333 39 0 C41.64 0 44.28 0 47 0 C46.37165495 3.79111532 45.26471197 7.00780452 43.71484375 10.51953125 C43.26689453 11.54111328 42.81894531 12.56269531 42.35742188 13.61523438 C41.88884766 14.67033203 41.42027344 15.72542969 40.9375 16.8125 C40.46505859 17.88693359 39.99261719 18.96136719 39.50585938 20.06835938 C38.34167464 22.71423376 37.17292168 25.35798995 36 28 C34.02 28 32.04 28 30 28 C28.02 23.38 26.04 18.76 24 14 C21.64662777 17.13782964 20.00315795 19.77729719 18.3125 23.25 C17.65701172 24.58804688 17.65701172 24.58804688 16.98828125 25.953125 C16.66214844 26.62859375 16.33601563 27.3040625 16 28 C14.35 28 12.7 28 11 28 C8.16832301 21.86052335 5.39377943 15.69574217 2.6875 9.5 C2.17574219 8.3346875 1.66398437 7.169375 1.13671875 5.96875 C0 3 0 3 0 0 Z " fill="#BF252A" transform="translate(39,111)"/>
<path d="M0 0 C2.825625 -0.0825 5.65125 -0.165 8.5625 -0.25 C9.43849854 -0.28641602 10.31449707 -0.32283203 11.21704102 -0.36035156 C17.0005789 -0.44134069 20.24948806 0.68198779 25 4 C28.43562182 7.76810135 28.5154745 11.65928838 28.34765625 16.5625 C27.82190495 20.24866644 26.51185609 22.28983949 24 25 C18.82858079 28.32673614 14.54805826 28.3702705 8.625 28.1875 C4.355625 28.0946875 4.355625 28.0946875 0 28 C0 18.76 0 9.52 0 0 Z " fill="#BF252A" transform="translate(131,111)"/>
<path d="M0 0 C8 0 8 0 10.1015625 1.28515625 C10.60429687 1.87167969 11.10703125 2.45820312 11.625 3.0625 C12.18574219 3.69414063 12.74648438 4.32578125 13.32421875 4.9765625 C13.87722656 5.64429687 14.43023437 6.31203125 15 7 C15.87591797 8.00160156 15.87591797 8.00160156 16.76953125 9.0234375 C18.19992518 10.66487315 19.60282115 12.33020089 21 14 C21.33 9.38 21.66 4.76 22 0 C24.64 0 27.28 0 30 0 C30 9.24 30 18.48 30 28 C22 28 22 28 19.99023438 26.80664062 C19.52939453 26.26201172 19.06855469 25.71738281 18.59375 25.15625 C18.078125 24.56972656 17.5625 23.98320312 17.03125 23.37890625 C16.5259375 22.75886719 16.020625 22.13882813 15.5 21.5 C14.96375 20.87996094 14.4275 20.25992188 13.875 19.62109375 C12.56288831 18.09810697 11.27853122 16.55128455 10 15 C9.67 19.29 9.34 23.58 9 28 C6.03 28 3.06 28 0 28 C0 18.76 0 9.52 0 0 Z " fill="#BF262B" transform="translate(298,111)"/>
<path d="M0 0 C2.97 0 5.94 0 9 0 C9 3.3 9 6.6 9 10 C12.96 10 16.92 10 21 10 C21 6.7 21 3.4 21 0 C23.97 0 26.94 0 30 0 C30 9.24 30 18.48 30 28 C27.03 28 24.06 28 21 28 C21 24.37 21 20.74 21 17 C17.04 17 13.08 17 9 17 C9 20.63 9 24.26 9 28 C6.03 28 3.06 28 0 28 C0 18.76 0 9.52 0 0 Z " fill="#C12B30" transform="translate(168,111)"/>
<path d="M0 0 C3.3 0 6.6 0 10 0 C11.44067458 3.16525569 12.87761155 6.33212225 14.3125 9.5 C14.71662109 10.386875 15.12074219 11.27375 15.53710938 12.1875 C17.8938156 17.39907799 20.05785988 22.61983189 22 28 C19.03 28 16.06 28 13 28 C12.34 26.02 11.68 24.04 11 22 C7.04 22.33 3.08 22.66 -1 23 C-1.99 25.475 -1.99 25.475 -3 28 C-5.97 28 -8.94 28 -12 28 C-10.38504097 22.76820563 -8.24360916 17.85808846 -6 12.875 C-5.64421875 12.07707031 -5.2884375 11.27914062 -4.921875 10.45703125 C-3.34413683 6.9306687 -1.72860568 3.45721136 0 0 Z " fill="#BF252A" transform="translate(100,111)"/>
<path d="M0 0 C2.1640625 -0.29296875 2.1640625 -0.29296875 4.625 -0.1875 C5.44226563 -0.16042969 6.25953125 -0.13335937 7.1015625 -0.10546875 C8.04128906 -0.05326172 8.04128906 -0.05326172 9 0 C21 23.37752161 21 23.37752161 21 28 C15.04296875 28.48828125 15.04296875 28.48828125 13 28 C12.54625 27.1853125 12.0925 26.370625 11.625 25.53125 C10.21689598 22.69696154 10.21689598 22.69696154 7.08203125 22.29296875 C6.00308594 22.25816406 4.92414063 22.22335938 3.8125 22.1875 C2.18248047 22.11595703 2.18248047 22.11595703 0.51953125 22.04296875 C-0.31191406 22.02878906 -1.14335937 22.01460937 -2 22 C-2.66 23.98 -3.32 25.96 -4 28 C-6.64 28 -9.28 28 -12 28 C-11.40089099 24.48330417 -10.47464749 21.48857572 -9.00390625 18.2421875 C-8.61009766 17.36949219 -8.21628906 16.49679688 -7.81054688 15.59765625 C-7.39869141 14.69917969 -6.98683594 13.80070312 -6.5625 12.875 C-6.15451172 11.96878906 -5.74652344 11.06257813 -5.32617188 10.12890625 C-3.70808092 6.56541068 -2.17601559 3.26402338 0 0 Z " fill="#BF252A" transform="translate(268,111)"/>
<path d="M0 0 C3.68386204 0.8062545 5.1556308 2.38804811 7.1953125 5.48046875 C8.02094623 10.02145428 7.52074585 11.92113017 5.1953125 15.91796875 C1.68930072 18.91268715 1.68930072 18.91268715 -1.8671875 19.10546875 C-6.09978432 18.43362798 -7.31598309 17.86510674 -9.8046875 14.48046875 C-11.35493214 11.37997947 -11.09460765 8.90152657 -10.8046875 5.48046875 C-8.28581643 0.33321047 -5.38423675 -0.32874053 0 0 Z " fill="#FBF3F3" transform="translate(268.8046875,151.51953125)"/>
<path d="M0 0 C3.62771552 0.88320639 4.97802955 2.36925437 6.94140625 5.47265625 C7.37668205 9.84095982 6.65941997 13.29511375 4.37890625 17.03515625 C0.90114544 19.08614339 -2.11886373 19.29781531 -6.05859375 18.47265625 C-8.48978998 16.60250531 -9.69928548 15.1912728 -11.05859375 12.47265625 C-11.54461963 8.17942766 -11.52100983 6.15182986 -9.05859375 2.53515625 C-5.72572182 0.2438068 -3.96026137 -0.29307437 0 0 Z " fill="#FAF2F3" transform="translate(116.05859375,151.52734375)"/>
<path d="M0 0 C2.97 0 5.94 0 9 0 C9 9.24 9 18.48 9 28 C6.03 28 3.06 28 0 28 C0 18.76 0 9.52 0 0 Z " fill="#C74146" transform="translate(339,111)"/>
<path d="M0 0 C9 0 9 0 12.5625 2.0625 C15 5 15 5 15.625 8.5 C14.91563321 12.47245401 13.82768293 14.17231707 11 17 C9 18 9 18 0 18 C0 12.06 0 6.12 0 0 Z " fill="#F8ECED" transform="translate(180,152)"/>
<path d="M0 0 C8 0 8 0 9.97265625 1.1875 C11.31987975 3.56435059 11.43344333 5.2739153 11.4375 8 C11.45683594 8.86625 11.47617188 9.7325 11.49609375 10.625 C11 13 11 13 9.41015625 14.8125 C7 16 7 16 0 16 C0 10.72 0 5.44 0 0 Z " fill="#FCF9F9" transform="translate(139,117)"/>
<path d="M0 0 C0.33 0.99 0.66 1.98 1 3 C0.11962891 4.66992188 0.11962891 4.66992188 -1.2734375 6.46875 C-1.7684375 7.12230469 -2.2634375 7.77585937 -2.7734375 8.44921875 C-3.56621094 9.46435547 -3.56621094 9.46435547 -4.375 10.5 C-5.40704186 11.84114351 -6.43582916 13.18479941 -7.4609375 14.53125 C-7.92290527 15.12486328 -8.38487305 15.71847656 -8.86083984 16.33007812 C-10.19046666 18.11576816 -10.19046666 18.11576816 -11 21 C-9.67935547 19.77023438 -9.67935547 19.77023438 -8.33203125 18.515625 C-7.15893726 17.42699378 -5.98575552 16.33845712 -4.8125 15.25 C-4.23435547 14.71117188 -3.65621094 14.17234375 -3.06054688 13.6171875 C0.19362878 10.60201909 3.49155668 7.72218201 7 5 C7.66 5.33 8.32 5.66 9 6 C9 6.99 9 7.98 9 9 C6.96557838 10.59060197 4.98042515 11.99052137 2.8125 13.375 C-1.62898391 16.24686251 -5.29472477 19.17313542 -9 23 C-12.22791555 25.1519437 -13.28400809 25.20086443 -17 25 C-15.30255278 19.9875382 -12.48398745 15.7838596 -9.625 11.375 C-9.14289063 10.611875 -8.66078125 9.84875 -8.1640625 9.0625 C-7.6896875 8.32773438 -7.2153125 7.59296875 -6.7265625 6.8359375 C-6.29939941 6.17126465 -5.87223633 5.5065918 -5.43212891 4.82177734 C-3.83737402 2.79312734 -2.11754514 1.45860262 0 0 Z " fill="#FAE9DC" transform="translate(211,80)"/>
<path d="M0 0 C1.859375 0.0078125 1.859375 0.0078125 4 1 C5.29263816 3.31844734 6.29169071 5.4254441 7.25 7.875 C7.518125 8.51308594 7.78625 9.15117187 8.0625 9.80859375 C9.24194665 12.69101695 10 14.85851645 10 18 C9.01 18 8.02 18 7 18 C6.67 16.35 6.34 14.7 6 13 C4.54052295 13.06006078 3.08220728 13.1488689 1.625 13.25 C0.81289062 13.29640625 0.00078125 13.3428125 -0.8359375 13.390625 C-3.18838927 13.7922092 -3.18838927 13.7922092 -4.2890625 16.046875 C-4.52367187 16.69140625 -4.75828125 17.3359375 -5 18 C-5.66 18 -6.32 18 -7 18 C-6.34422814 13.97594538 -5.08843632 10.49944851 -3.5 6.75 C-3.0565625 5.69296875 -2.613125 4.6359375 -2.15625 3.546875 C-1 1 -1 1 0 0 Z " fill="#C03236" transform="translate(209,152)"/>
<path d="M0 0 C5 1 5 1 6.80078125 3.50390625 C7.29964844 4.51324219 7.79851562 5.52257812 8.3125 6.5625 C8.82425781 7.57441406 9.33601563 8.58632812 9.86328125 9.62890625 C10.23839844 10.41136719 10.61351562 11.19382813 11 12 C11.33 8.04 11.66 4.08 12 0 C12.66 0 13.32 0 14 0 C14 5.94 14 11.88 14 18 C10 17 10 17 8.296875 14.49609375 C7.78640625 13.48675781 7.2759375 12.47742188 6.75 11.4375 C6.22921875 10.42558594 5.7084375 9.41367188 5.171875 8.37109375 C4.59179688 7.19740234 4.59179688 7.19740234 4 6 C3.67 9.96 3.34 13.92 3 18 C2.01 18 1.02 18 0 18 C0 12.06 0 6.12 0 0 Z " fill="#C02D31" transform="translate(284,152)"/>
<path d="M0 0 C3.68386204 0.8062545 5.1556308 2.38804811 7.1953125 5.48046875 C8.02094623 10.02145428 7.52074585 11.92113017 5.1953125 15.91796875 C1.68930072 18.91268715 1.68930072 18.91268715 -1.8671875 19.10546875 C-6.09978432 18.43362798 -7.31598309 17.86510674 -9.8046875 14.48046875 C-11.35493214 11.37997947 -11.09460765 8.90152657 -10.8046875 5.48046875 C-8.28581643 0.33321047 -5.38423675 -0.32874053 0 0 Z M-6.6796875 3.54296875 C-8.45265381 6.59641072 -8.16812122 9.02784837 -7.8046875 12.48046875 C-6.44583634 14.88130313 -6.44583634 14.88130313 -4.8046875 16.48046875 C-1.37238302 16.21653374 -1.37238302 16.21653374 2.1953125 15.48046875 C4.65855319 11.78560772 4.58522938 9.84753783 4.1953125 5.48046875 C3.21482312 3.4164419 3.21482312 3.4164419 1.1953125 2.48046875 C-1.92280233 2.0907044 -3.91488317 1.9762463 -6.6796875 3.54296875 Z " fill="#C02E33" transform="translate(268.8046875,151.51953125)"/>
<path d="M0 0 C4 1 4 1 5.703125 3.50390625 C6.21359375 4.51324219 6.7240625 5.52257812 7.25 6.5625 C8.03117188 8.08037109 8.03117188 8.08037109 8.828125 9.62890625 C9.21484375 10.41136719 9.6015625 11.19382813 10 12 C10.33 8.04 10.66 4.08 11 0 C11.99 0 12.98 0 14 0 C14 5.94 14 11.88 14 18 C12.68 18 11.36 18 10 18 C7.69 13.71 5.38 9.42 3 5 C2.67 9.29 2.34 13.58 2 18 C1.34 18 0.68 18 0 18 C0 12.06 0 6.12 0 0 Z " fill="#C02E32" transform="translate(156,152)"/>
<path d="M0 0 C3.62771552 0.88320639 4.97802955 2.36925437 6.94140625 5.47265625 C7.37668205 9.84095982 6.65941997 13.29511375 4.37890625 17.03515625 C0.90114544 19.08614339 -2.11886373 19.29781531 -6.05859375 18.47265625 C-8.48978998 16.60250531 -9.69928548 15.1912728 -11.05859375 12.47265625 C-11.54461963 8.17942766 -11.52100983 6.15182986 -9.05859375 2.53515625 C-5.72572182 0.2438068 -3.96026137 -0.29307437 0 0 Z M-6.93359375 3.53515625 C-8.70656006 6.58859822 -8.42202747 9.02003587 -8.05859375 12.47265625 C-6.69974259 14.87349063 -6.69974259 14.87349063 -5.05859375 16.47265625 C-0.31225575 16.33092615 -0.31225575 16.33092615 3.44140625 13.84765625 C4.14839946 10.48943852 3.68117265 7.80160504 2.94140625 4.47265625 C1.06202453 2.17438313 1.06202453 2.17438313 -1.99609375 2.16015625 C-4.96954473 2.25617004 -4.96954473 2.25617004 -6.93359375 3.53515625 Z " fill="#BE282D" transform="translate(116.05859375,151.52734375)"/>
<path d="M0 0 C1.65 0 3.3 0 5 0 C5 7.92 5 15.84 5 24 C3.35 24 1.7 24 0 24 C0 16.08 0 8.16 0 0 Z " fill="#BF2025" transform="translate(341,113)"/>
<path d="M0 0 C9 0 9 0 12.5625 2.0625 C15 5 15 5 15.625 8.5 C14.91563321 12.47245401 13.82768293 14.17231707 11 17 C9 18 9 18 0 18 C0 12.06 0 6.12 0 0 Z M2 2 C2 6.62 2 11.24 2 16 C7.65431209 16.56468392 7.65431209 16.56468392 10.375 14.375 C12.48706506 11.28813568 12.61195145 9.6717087 12 6 C10.5 3.5 10.5 3.5 8 2 C6.02 2 4.04 2 2 2 Z " fill="#BD2328" transform="translate(180,152)"/>
<path d="M0 0 C0.66 0 1.32 0 2 0 C2.06058594 0.91523438 2.12117187 1.83046875 2.18359375 2.7734375 C2.26738281 3.96195313 2.35117188 5.15046875 2.4375 6.375 C2.51871094 7.55835938 2.59992188 8.74171875 2.68359375 9.9609375 C2.81084936 12.91518901 2.81084936 12.91518901 4 15 C5.65 15 7.3 15 9 15 C10.41634833 12.16730334 10.3463005 9.52533562 10.5625 6.375 C10.64628906 5.18648437 10.73007813 3.99796875 10.81640625 2.7734375 C10.87699219 1.85820312 10.93757812 0.94296875 11 0 C11.99 0 12.98 0 14 0 C14.05418326 2.08304538 14.09287551 4.16649768 14.125 6.25 C14.14820313 7.41015625 14.17140625 8.5703125 14.1953125 9.765625 C14.00925052 12.84681133 13.71695953 14.4785909 12 17 C8.95016004 18.52491998 6.3576631 18.23562548 3 18 C1.2890625 16.96484375 1.2890625 16.96484375 0 15 C-0.2172101 12.35003674 -0.28351554 9.94923442 -0.1875 7.3125 C-0.17396484 6.61060547 -0.16042969 5.90871094 -0.14648438 5.18554688 C-0.11120182 3.45670171 -0.05739583 1.72825235 0 0 Z " fill="#C23237" transform="translate(132,152)"/>
<path d="M0 0 C2.97 0 5.94 0 9 0 C9 0.66 9 1.32 9 2 C7.02 2 5.04 2 3 2 C3 3.65 3 5.3 3 7 C4.98 7 6.96 7 9 7 C9 7.99 9 8.98 9 10 C7.02 10 5.04 10 3 10 C3 12.64 3 15.28 3 18 C2.01 18 1.02 18 0 18 C0 12.06 0 6.12 0 0 Z " fill="#C3393D" transform="translate(88,152)"/>
<path d="M0 0 C4.62 0 9.24 0 14 0 C14 0.66 14 1.32 14 2 C12.02 2 10.04 2 8 2 C8 7.28 8 12.56 8 18 C7.34 18 6.68 18 6 18 C6 12.72 6 7.44 6 2 C4.02 2 2.04 2 0 2 C0 1.34 0 0.68 0 0 Z " fill="#BD1F24" transform="translate(225,152)"/>
<path d="M0 0 C0.99 0 1.98 0 3 0 C4.82421875 2.23046875 4.82421875 2.23046875 6.6875 5.1875 C7.31011719 6.15042969 7.93273437 7.11335938 8.57421875 8.10546875 C10.03685991 11.07483066 10.31506163 12.74832619 10 16 C5.74508335 15.52723148 3.77457155 13.07452523 1 10 C0.67 9.34 0.34 8.68 0 8 C1.2065625 8.495 1.2065625 8.495 2.4375 9 C4.69681125 10.06059041 4.69681125 10.06059041 6 10 C5.566875 9.44570312 5.13375 8.89140625 4.6875 8.3203125 C3.8521875 7.23363281 3.8521875 7.23363281 3 6.125 C2.443125 5.40570313 1.88625 4.68640625 1.3125 3.9453125 C0 2 0 2 0 0 Z " fill="#FAEDEA" transform="translate(180,89)"/>
<path d="M0 0 C2.83374881 3.20336822 3.5205537 5.78087253 4 10 C1.36 10 -1.28 10 -4 10 C-3.52449439 8.51965236 -3.04448784 7.04074979 -2.5625 5.5625 C-2.29566406 4.73878906 -2.02882813 3.91507812 -1.75390625 3.06640625 C-1 1 -1 1 0 0 Z " fill="#F3DADB" transform="translate(272,119)"/>
<path d="M0 0 C0.66 0 1.32 0 2 0 C2.99 3.3 3.98 6.6 5 10 C2.36 10 -0.28 10 -3 10 C-2.01 6.7 -1.02 3.4 0 0 Z " fill="#F3D9DA" transform="translate(104,119)"/>
<path d="M0 0 C0.33 0.99 0.66 1.98 1 3 C-0.40833381 5.1962951 -1.81653657 7.16069889 -3.4375 9.1875 C-3.87126953 9.74630859 -4.30503906 10.30511719 -4.75195312 10.88085938 C-5.82546453 12.26108832 -6.9115694 13.63150539 -8 15 C-8.66 14.67 -9.32 14.34 -10 14 C-7.96733835 8.24079198 -5.22242519 3.35727334 0 0 Z " fill="#FAECE9" transform="translate(211,80)"/>
<path d="M0 0 C0.99 0.33 1.98 0.66 3 1 C1.02 3.97 1.02 3.97 -1 7 C-0.01 7.66 0.98 8.32 2 9 C-1.22791555 11.1519437 -2.28400809 11.20086443 -6 11 C-4.54955729 6.89041233 -2.48889248 3.56741255 0 0 Z " fill="#F6D9CA" transform="translate(200,94)"/>
<path d="M0 0 C1.0725 0.268125 2.145 0.53625 3.25 0.8125 C3.25 1.1425 3.25 1.4725 3.25 1.8125 C2.30125 2.080625 1.3525 2.34875 0.375 2.625 C-3.00267273 3.56236588 -3.00267273 3.56236588 -4.75 6.8125 C-5.13499891 8.46799531 -5.47793135 10.1347433 -5.75 11.8125 C-6.41 11.8125 -7.07 11.8125 -7.75 11.8125 C-8.06258994 7.82697826 -8.05332702 5.39488789 -6.1875 1.8125 C-3.75 -0.1875 -3.75 -0.1875 0 0 Z " fill="#C53F44" transform="translate(265.75,152.1875)"/>
<path d="M0 0 C5.05296103 1.15496252 9.01074907 4.85215436 13 8 C12.01 8.495 12.01 8.495 11 9 C8.55667274 7.92481882 6.23245477 6.80191434 3.875 5.5625 C3.21628906 5.22412109 2.55757812 4.88574219 1.87890625 4.53710938 C0.24893453 3.69850074 -1.37601909 2.85015189 -3 2 C-2.01 1.34 -1.02 0.68 0 0 Z " fill="#F39236" transform="translate(173,94)"/>
<path d="M0 0 C0.66 0 1.32 0 2 0 C2.33 5.28 2.66 10.56 3 16 C2.01 15.67 1.02 15.34 0 15 C0 10.05 0 5.1 0 0 Z " fill="#BC2025" transform="translate(132,152)"/>
<path d="M0 0 C2.15377564 2.62198774 3.40072174 4.64404172 4 8 C1.69 8 -0.62 8 -3 8 C-1.125 1.125 -1.125 1.125 0 0 Z " fill="#F5E4E5" transform="translate(210,155)"/>
<path d="M0 0 C3.2542015 2.83430453 4.5206753 4.68607774 5 9 C4.01 9 3.02 9 2 9 C1.67 7.35 1.34 5.7 1 4 C-1.64 4 -4.28 4 -7 4 C-7 3.67 -7 3.34 -7 3 C-4.69 3 -2.38 3 0 3 C0 2.01 0 1.02 0 0 Z " fill="#C0292E" transform="translate(214,161)"/>
<path d="M0 0 C1.85758365 2.83525925 1.37380774 5.5210633 1.1875 8.8125 C0.8575 8.8125 0.5275 8.8125 0.1875 8.8125 C0.1875 6.8325 0.1875 4.8525 0.1875 2.8125 C-0.8025 2.8125 -1.7925 2.8125 -2.8125 2.8125 C-3.245625 2.338125 -3.67875 1.86375 -4.125 1.375 C-6.4831906 -0.80850982 -8.68652561 -0.84016951 -11.8125 -1.1875 C-11.8125 -1.5175 -11.8125 -1.8475 -11.8125 -2.1875 C-6.93478045 -3.58113416 -4.17908812 -2.73802325 0 0 Z " fill="#C53E43" transform="translate(193.8125,155.1875)"/>
<path d="M0 0 C0.99 0.33 1.98 0.66 3 1 C3 1.66 3 2.32 3 3 C1.38007835 3.86375896 -0.24611861 4.71575854 -1.875 5.5625 C-3.23238281 6.27599609 -3.23238281 6.27599609 -4.6171875 7.00390625 C-5.40351563 7.33261719 -6.18984375 7.66132812 -7 8 C-7.66 7.67 -8.32 7.34 -9 7 C-7.33784732 5.66104368 -5.67036393 4.32869858 -4 3 C-3.29875 2.401875 -2.5975 1.80375 -1.875 1.1875 C-1.25625 0.795625 -0.6375 0.40375 0 0 Z " fill="#F38F31" transform="translate(211,94)"/>
<path d="M0 0 C2.375 1.3125 2.375 1.3125 4.375 4.3125 C4.5 7.5 4.5 7.5 4.375 10.3125 C4.045 10.3125 3.715 10.3125 3.375 10.3125 C3.375 8.6625 3.375 7.0125 3.375 5.3125 C2.385 5.3125 1.395 5.3125 0.375 5.3125 C-0.285 4.3225 -0.945 3.3325 -1.625 2.3125 C-4.18782742 1.58284634 -4.18782742 1.58284634 -6.625 1.3125 C-4.02660435 -0.41976377 -3.08769483 -0.80868198 0 0 Z " fill="#C6454A" transform="translate(118.625,152.6875)"/>
<path d="M0 0 C-0.86625 0.3403125 -0.86625 0.3403125 -1.75 0.6875 C-5.8030772 3.05179503 -8.12341425 6.77768207 -10 11 C-10.48541424 3.59743291 -10.48541424 3.59743291 -8.375 1 C-5.44617664 -0.23318878 -3.14711179 -0.2145758 0 0 Z " fill="#BD2227" transform="translate(116,152)"/>
<path d="M0 0 C3.89091235 2.59394157 3.98336169 4.54243204 5 9 C5 9.99 5 10.98 5 12 C2 11 2 11 0.8125 9.375 C-0.27499354 6.19617272 -0.1282071 3.33338467 0 0 Z " fill="#C3393D" transform="translate(105,157)"/>
<path d="M0 0 C-1.305239 2.61047801 -2.35826574 2.68066423 -5.0625 3.625 C-6.16271484 4.01558594 -6.16271484 4.01558594 -7.28515625 4.4140625 C-7.85105469 4.60742188 -8.41695313 4.80078125 -9 5 C-9 4.01 -9 3.02 -9 2 C-9.99 1.67 -10.98 1.34 -12 1 C-7.93631321 0.22596442 -4.13574827 -0.0984702 0 0 Z " fill="#F3A457" transform="translate(347,30)"/>
<path d="M0 0 C2.97 0 5.94 0 9 0 C8.34 1.65 7.68 3.3 7 5 C6.67 4.01 6.34 3.02 6 2 C4.35 2 2.7 2 1 2 C0.67 2.66 0.34 3.32 0 4 C0 2.68 0 1.36 0 0 Z " fill="#C12D33" transform="translate(245,111)"/>
<path d="M0 0 C6.35051546 -0.36637589 6.35051546 -0.36637589 9.4375 1.375 C11 3 11 3 11 5 C8.13275314 4.42655063 7.1385485 4.1385485 5 2 C2.42938689 1.35232207 2.42938689 1.35232207 0 1 C0 0.67 0 0.34 0 0 Z " fill="#BE262B" transform="translate(264,152)"/>
<path d="M0 0 C0.66 0.33 1.32 0.66 2 1 C2 1.99 2 2.98 2 4 C-0.375 5.75 -0.375 5.75 -3 7 C-3.66 6.67 -4.32 6.34 -5 6 C-3.35 4.02 -1.7 2.04 0 0 Z " fill="#FCF2E9" transform="translate(218,85)"/>
<path d="M0 0 C0.99 0 1.98 0 3 0 C3 2.31 3 4.62 3 7 C2.01 7 1.02 7 0 7 C0 4.69 0 2.38 0 0 Z " fill="#C3373C" transform="translate(273,157)"/>
<path d="M0 0 C2.97 0 5.94 0 9 0 C8.67 1.32 8.34 2.64 8 4 C8 3.34 8 2.68 8 2 C5.69 2.33 3.38 2.66 1 3 C0.67 2.01 0.34 1.02 0 0 Z " fill="#C02D32" transform="translate(206,111)"/>
<path d="M0 0 C2.64 0 5.28 0 8 0 C8.33 0.99 8.66 1.98 9 3 C6.03 3 3.06 3 0 3 C0 2.01 0 1.02 0 0 Z " fill="#C12F34" transform="translate(39,111)"/>
<path d="M0 0 C3.98671063 1.36687222 6.88494633 3.15195093 10 6 C10 6.66 10 7.32 10 8 C5.74508335 7.52723148 3.77457155 5.07452523 1 2 C0.67 1.34 0.34 0.68 0 0 Z " fill="#F6D8BF" transform="translate(180,97)"/>
<path d="M0 0 C0.99 0 1.98 0 3 0 C3.99 1.98 4.98 3.96 6 6 C5.01 6.495 5.01 6.495 4 7 C0 2.25 0 2.25 0 0 Z " fill="#F8E5DF" transform="translate(184,95)"/>
</svg>
