<?xml version="1.0" encoding="UTF-8"?>
<svg version="1.1" viewBox="0 0 1667 1667" width="1667" height="1667" xmlns="http://www.w3.org/2000/svg">
<path transform="translate(0)" d="m0 0h1667v1667h-1667z" fill="#FDFDFD"/>
<path transform="translate(601,519)" d="m0 0 6 2 144 68 3 7 18 72 7 29v4l3-3 13-26 10-19 20-39 8-14 3 3 13 26 10 19 18 35 9 17 2-4 20-81 6-25 16-8 106-50 28-13h2l-2 5-15 23-16 25-11 17-16 25-11 17-16 25-11 17-16 25-11 17-16 25-11 17-16 25-11 17-16 25-11 17-16 25-10 15-5-5-12-19-11-17-16-25-11-17-16-25-11-17-16-25-11-17-16-25-11-17-16-25-11-17-16-25-11-17-16-25-11-17-16-25z" fill="#BE2025"/>
<path transform="translate(1467,570)" d="m0 0h5l-4 3-86 43-23 11-98 49-23 11-96 48-23 11-98 49-23 11-96 48-23 11-28 14-2-1 19-14 17-12 72-52 17-12 72-52 17-12 54-39 14-10 18-13 17-12 54-39 14-10 11-2 161-21z" fill="#F38620"/>
<path transform="translate(195,571)" d="m0 0 43 5 188 24 7 2 19 13 16 12 19 13 16 12 19 13 16 12 19 13 16 12 19 13 16 12 19 13 16 12 19 13 16 12 19 13 16 12 19 13 16 12 19 13 16 12 19 13 16 12-2 1-41-20-36-18-23-11-40-20-23-11-42-21-23-11-42-21-23-11-42-21-23-11-42-21-23-11-42-21-23-11-40-20-23-11-42-21-23-11-5-3z" fill="#F38620"/>
<path transform="translate(1233,545)" d="m0 0 3 1-10 9-11 9-15 13-11 9-15 13-11 9-15 13-14 12-11 9-15 13-11 9-15 13-14 12-11 9-15 13-11 9-15 13-14 12-11 9-15 13-11 9-15 13-14 12-11 9-15 13-11 9-15 13-14 12-22 18v-3l78-108 10-14 65-90 12-17 14-19 12-17 8-11 16-5 144-39z" fill="#F16728"/>
<path transform="translate(431,545)" d="m0 0 8 1 140 38 40 11 14 19 10 14 52 72 10 14 52 72 10 14 52 72v2l-4-2-15-13-11-9-10-9-10-8-15-13-14-12-11-9-15-13-26-22-14-12-11-9-15-13-26-22-14-12-11-9-15-13-26-22-14-12-11-9-15-13-26-22-14-12-11-9-15-13-11-9-8-7z" fill="#F16728"/>
<path transform="translate(575,904)" d="m0 0h59l19 3 12 5 10 7 7 7 6 10 4 10 2 11v14l-3 15-6 11-9 10-8 6-9 4-8 2-12 1h-63l-1-1z" fill="#BE2125"/>
<path transform="translate(886,904)" d="m0 0h36l5 12 18 48 1 1 23-53 4-8h25l6 13 19 45 2 3 18-46 6-15h36l-1 5-48 112h-21l-5-10-18-41-6-14-3 4-27 60-1 1h-21l-17-40-15-36-16-38z" fill="#BE2125"/>
<path transform="translate(195,904)" d="m0 0h36l8 20 15 40 1 1 19-44 7-16 1-1h25l11 25 15 36 2-3 22-56 1-2h36l-3 9-46 108h-21l-6-12-18-41-5-12-3 4-19 42-8 18-1 1h-21l-12-28-20-48-16-38z" fill="#BE2125"/>
<path transform="translate(1266,904)" d="m0 0h32l56 60 1 1 1-61h35v116h-31l-28-30-12-13-15-16-3-3-1 62h-34l-1-1z" fill="#BF2225"/>
<path transform="translate(732,904)" d="m0 0h35v42h51v-42h35v116h-34l-1-1v-44h-51v44l-1 1h-34z" fill="#BF2125"/>
<path transform="translate(1141,904)" d="m0 0h39l18 40 13 30 19 43v3h-35l-5-10-5-13h-49l-9 22-1 1h-36l2-6 38-86 10-23z" fill="#BF2125"/>
<path transform="translate(450,904)" d="m0 0h39l13 29 18 41 19 43v3h-35l-5-10-5-13h-49l-9 22-1 1h-35l-1-2 17-38 18-41 15-34z" fill="#BF2125"/>
<path transform="translate(1129,1071)" d="m0 0h18l9 3 9 7 6 9 3 10v19l-4 12-7 9-9 6-7 2h-18l-10-4-8-6-6-9-3-11v-17l3-10 5-8 5-5 5-4z" fill="#C02425"/>
<path transform="translate(498,1071)" d="m0 0h18l10 4 10 9 5 10 2 10v11l-3 13-6 9-8 7-11 4h-17l-11-4-9-8-5-9-2-6-1-15 3-14 6-10 8-7z" fill="#C12425"/>
<path transform="translate(778,1072)" d="m0 0h30l13 4 10 7 7 11 2 7v17l-4 12-9 10-10 5-9 2h-30z" fill="#BF2125"/>
<path transform="translate(1437,904)" d="m0 0h35v116h-35z" fill="#BE2025"/>
<path transform="translate(610,928)" d="m0 0h23l10 3 10 9 4 9 1 5v17l-3 10-4 6-8 5-10 3h-23z" fill="#FEFEFE"/>
<path transform="translate(899,1072)" d="m0 0h12l13 30 18 43v2h-12l-5-11-2-5v-3h-37l-3 10-4 9h-12l6-16 23-53z" fill="#C02325"/>
<path transform="translate(1209,1072)" d="m0 0h15l6 10 13 24 13 23 1-57h11v75h-15l-15-28-10-18-7-12-1 58h-11z" fill="#BE2125"/>
<path transform="translate(678,1072)" d="m0 0h15l5 8 13 24 10 18 4 7 1-57h11v75h-14l-5-8-13-24-13-23-2-4-1 59h-11z" fill="#BE2125"/>
<path transform="translate(1131,1081)" d="m0 0h14l8 4 6 8 3 8v17l-4 10-5 6-8 4h-14l-8-4-6-8-3-8v-17l4-10 5-6z" fill="#FEFEFE"/>
<path transform="translate(500,1081)" d="m0 0h14l8 5 5 6 3 7 1 5v11l-3 10-4 6-6 5-5 2h-13l-8-4-6-7-3-7-1-6v-9l2-9 5-8 6-5z" fill="#FEFEFE"/>
<path transform="translate(579,1072)" d="m0 0h12l1 52 4 9 4 3 3 1h12l6-4 4-8 1-6 1-47h11v51l-4 13-6 7-8 4-3 1h-17l-9-4-5-5-4-6-2-6-1-9z" fill="#C12525"/>
<path transform="translate(789,1082)" d="m0 0h19l9 4 6 5 4 7 1 4v16l-4 9-4 5-8 4-4 1h-19z" fill="#FEFEFE"/>
<path transform="translate(399,1072)" d="m0 0h40v10h-29v21h27l1 1v9h-28v34h-11z" fill="#BE2025"/>
<path transform="translate(966,1072)" d="m0 0h57v10h-23v65h-11v-65h-23z" fill="#BE2025"/>
<path transform="translate(1055,1072)" d="m0 0h11v75h-11z" fill="#BE2025"/>
<path transform="translate(1160,935)" d="m0 0 2 2 15 38v1h-33l6-16z" fill="#FEFEFE"/>
<path transform="translate(469,935)" d="m0 0 2 3 14 34 1 4h-33l3-9z" fill="#FEFEFE"/>
<path transform="translate(904,1084)" d="m0 0 3 4 12 30v1h-29l6-16 7-18z" fill="#FEFEFE"/>
</svg>
